<?xml version="1.0" standalone="no"?>
 <!DOCTYPE svg PUBLIC "-//W3C//DTD SVG 1.1//EN"
 "http://www.w3.org/Graphics/SVG/1.1/DTD/svg11.dtd">
<svg
  xmlns:svg="http://www.w3.org/2000/svg"
  xmlns="http://www.w3.org/2000/svg"
  xmlns:xlink="http://www.w3.org/1999/xlink"
  xmlns:inkscape="http://www.inkscape.org/namespaces/inkscape"
  version="1.1"
  width="543.5854mm" height="96.7740mm" viewBox="0.0000 0.0000 543.5854 96.7740">
<title>SVG Image created as back-copper.svg date 2026-06-11T16:21:02 </title>
  <desc>Image generated by PCBNEW </desc>
<g style="fill:#000000; fill-opacity:1.0000;stroke:#000000; stroke-opacity:1.0000;
stroke-linecap:round; stroke-linejoin:round;"
 transform="translate(0 0) scale(1 1)">
</g>
<g style="fill:none;
stroke:#C872AB; stroke-width:0.1500; stroke-opacity:1;
stroke-linecap:round; stroke-linejoin:round;">
<path d="M423.6000 52.7800
L531.6000 52.7800
L531.6000 84.7800
L423.6000 84.7800
L423.6000 52.7800
" />
<path d="M10.0000 10.0000
L533.6000 10.0000
L533.6000 86.7800
L10.0000 86.7800
L10.0000 10.0000
" />
<path d="M12.0000 12.0000
L531.6000 12.0000
L531.6000 84.7800
L12.0000 84.7800
L12.0000 12.0000
" />
<path d="M60.0000 12.0000
L60.0000 10.0000
" />
<path d="M110.0000 12.0000
L110.0000 10.0000
" />
<path d="M160.0000 12.0000
L160.0000 10.0000
" />
<path d="M210.0000 12.0000
L210.0000 10.0000
" />
<path d="M260.0000 12.0000
L260.0000 10.0000
" />
<path d="M310.0000 12.0000
L310.0000 10.0000
" />
<path d="M360.0000 12.0000
L360.0000 10.0000
" />
<path d="M410.0000 12.0000
L410.0000 10.0000
" />
<path d="M460.0000 12.0000
L460.0000 10.0000
" />
<path d="M510.0000 12.0000
L510.0000 10.0000
" />
<text x="35.0000" y="11.6500"
textLength="1.4281" font-size="1.7333" lengthAdjust="spacingAndGlyphs"
text-anchor="start" opacity="0" stroke-opacity="0">1</text>
<g class="stroked-text"><desc>1</desc>
<path d="M36.0892 11.5936
L35.3463 11.5936
" />
<path d="M35.7177 11.5936
L35.7177 10.2936
" />
<path d="M35.7177 10.2936
L35.5939 10.4793
" />
<path d="M35.5939 10.4793
L35.4701 10.6031
" />
<path d="M35.4701 10.6031
L35.3463 10.6650
" />
</g><text x="85.0000" y="11.6500"
textLength="1.4281" font-size="1.7333" lengthAdjust="spacingAndGlyphs"
text-anchor="start" opacity="0" stroke-opacity="0">2</text>
<g class="stroked-text"><desc>2</desc>
<path d="M85.3463 10.4174
L85.4082 10.3555
" />
<path d="M85.4082 10.3555
L85.5320 10.2936
" />
<path d="M85.5320 10.2936
L85.8415 10.2936
" />
<path d="M85.8415 10.2936
L85.9654 10.3555
" />
<path d="M85.9654 10.3555
L86.0273 10.4174
" />
<path d="M86.0273 10.4174
L86.0892 10.5412
" />
<path d="M86.0892 10.5412
L86.0892 10.6650
" />
<path d="M86.0892 10.6650
L86.0273 10.8507
" />
<path d="M86.0273 10.8507
L85.2844 11.5936
" />
<path d="M85.2844 11.5936
L86.0892 11.5936
" />
</g><text x="135.0000" y="11.6500"
textLength="1.4281" font-size="1.7333" lengthAdjust="spacingAndGlyphs"
text-anchor="start" opacity="0" stroke-opacity="0">3</text>
<g class="stroked-text"><desc>3</desc>
<path d="M135.2844 10.2936
L136.0892 10.2936
" />
<path d="M136.0892 10.2936
L135.6558 10.7888
" />
<path d="M135.6558 10.7888
L135.8415 10.7888
" />
<path d="M135.8415 10.7888
L135.9654 10.8507
" />
<path d="M135.9654 10.8507
L136.0273 10.9127
" />
<path d="M136.0273 10.9127
L136.0892 11.0365
" />
<path d="M136.0892 11.0365
L136.0892 11.3460
" />
<path d="M136.0892 11.3460
L136.0273 11.4698
" />
<path d="M136.0273 11.4698
L135.9654 11.5317
" />
<path d="M135.9654 11.5317
L135.8415 11.5936
" />
<path d="M135.8415 11.5936
L135.4701 11.5936
" />
<path d="M135.4701 11.5936
L135.3463 11.5317
" />
<path d="M135.3463 11.5317
L135.2844 11.4698
" />
</g><text x="185.0000" y="11.6500"
textLength="1.4281" font-size="1.7333" lengthAdjust="spacingAndGlyphs"
text-anchor="start" opacity="0" stroke-opacity="0">4</text>
<g class="stroked-text"><desc>4</desc>
<path d="M185.9654 10.7269
L185.9654 11.5936
" />
<path d="M185.6558 10.2317
L185.3463 11.1603
" />
<path d="M185.3463 11.1603
L186.1511 11.1603
" />
</g><text x="235.0000" y="11.6500"
textLength="1.4281" font-size="1.7333" lengthAdjust="spacingAndGlyphs"
text-anchor="start" opacity="0" stroke-opacity="0">5</text>
<g class="stroked-text"><desc>5</desc>
<path d="M236.0273 10.2936
L235.4082 10.2936
" />
<path d="M235.4082 10.2936
L235.3463 10.9127
" />
<path d="M235.3463 10.9127
L235.4082 10.8507
" />
<path d="M235.4082 10.8507
L235.5320 10.7888
" />
<path d="M235.5320 10.7888
L235.8415 10.7888
" />
<path d="M235.8415 10.7888
L235.9654 10.8507
" />
<path d="M235.9654 10.8507
L236.0273 10.9127
" />
<path d="M236.0273 10.9127
L236.0892 11.0365
" />
<path d="M236.0892 11.0365
L236.0892 11.3460
" />
<path d="M236.0892 11.3460
L236.0273 11.4698
" />
<path d="M236.0273 11.4698
L235.9654 11.5317
" />
<path d="M235.9654 11.5317
L235.8415 11.5936
" />
<path d="M235.8415 11.5936
L235.5320 11.5936
" />
<path d="M235.5320 11.5936
L235.4082 11.5317
" />
<path d="M235.4082 11.5317
L235.3463 11.4698
" />
</g><text x="285.0000" y="11.6500"
textLength="1.4281" font-size="1.7333" lengthAdjust="spacingAndGlyphs"
text-anchor="start" opacity="0" stroke-opacity="0">6</text>
<g class="stroked-text"><desc>6</desc>
<path d="M285.9654 10.2936
L285.7177 10.2936
" />
<path d="M285.7177 10.2936
L285.5939 10.3555
" />
<path d="M285.5939 10.3555
L285.5320 10.4174
" />
<path d="M285.5320 10.4174
L285.4082 10.6031
" />
<path d="M285.4082 10.6031
L285.3463 10.8507
" />
<path d="M285.3463 10.8507
L285.3463 11.3460
" />
<path d="M285.3463 11.3460
L285.4082 11.4698
" />
<path d="M285.4082 11.4698
L285.4701 11.5317
" />
<path d="M285.4701 11.5317
L285.5939 11.5936
" />
<path d="M285.5939 11.5936
L285.8415 11.5936
" />
<path d="M285.8415 11.5936
L285.9654 11.5317
" />
<path d="M285.9654 11.5317
L286.0273 11.4698
" />
<path d="M286.0273 11.4698
L286.0892 11.3460
" />
<path d="M286.0892 11.3460
L286.0892 11.0365
" />
<path d="M286.0892 11.0365
L286.0273 10.9127
" />
<path d="M286.0273 10.9127
L285.9654 10.8507
" />
<path d="M285.9654 10.8507
L285.8415 10.7888
" />
<path d="M285.8415 10.7888
L285.5939 10.7888
" />
<path d="M285.5939 10.7888
L285.4701 10.8507
" />
<path d="M285.4701 10.8507
L285.4082 10.9127
" />
<path d="M285.4082 10.9127
L285.3463 11.0365
" />
</g><text x="335.0000" y="11.6500"
textLength="1.4281" font-size="1.7333" lengthAdjust="spacingAndGlyphs"
text-anchor="start" opacity="0" stroke-opacity="0">7</text>
<g class="stroked-text"><desc>7</desc>
<path d="M335.2844 10.2936
L336.1511 10.2936
" />
<path d="M336.1511 10.2936
L335.5939 11.5936
" />
</g><text x="385.0000" y="11.6500"
textLength="1.4281" font-size="1.7333" lengthAdjust="spacingAndGlyphs"
text-anchor="start" opacity="0" stroke-opacity="0">8</text>
<g class="stroked-text"><desc>8</desc>
<path d="M385.5939 10.8507
L385.4701 10.7888
" />
<path d="M385.4701 10.7888
L385.4082 10.7269
" />
<path d="M385.4082 10.7269
L385.3463 10.6031
" />
<path d="M385.3463 10.6031
L385.3463 10.5412
" />
<path d="M385.3463 10.5412
L385.4082 10.4174
" />
<path d="M385.4082 10.4174
L385.4701 10.3555
" />
<path d="M385.4701 10.3555
L385.5939 10.2936
" />
<path d="M385.5939 10.2936
L385.8415 10.2936
" />
<path d="M385.8415 10.2936
L385.9654 10.3555
" />
<path d="M385.9654 10.3555
L386.0273 10.4174
" />
<path d="M386.0273 10.4174
L386.0892 10.5412
" />
<path d="M386.0892 10.5412
L386.0892 10.6031
" />
<path d="M386.0892 10.6031
L386.0273 10.7269
" />
<path d="M386.0273 10.7269
L385.9654 10.7888
" />
<path d="M385.9654 10.7888
L385.8415 10.8507
" />
<path d="M385.8415 10.8507
L385.5939 10.8507
" />
<path d="M385.5939 10.8507
L385.4701 10.9127
" />
<path d="M385.4701 10.9127
L385.4082 10.9746
" />
<path d="M385.4082 10.9746
L385.3463 11.0984
" />
<path d="M385.3463 11.0984
L385.3463 11.3460
" />
<path d="M385.3463 11.3460
L385.4082 11.4698
" />
<path d="M385.4082 11.4698
L385.4701 11.5317
" />
<path d="M385.4701 11.5317
L385.5939 11.5936
" />
<path d="M385.5939 11.5936
L385.8415 11.5936
" />
<path d="M385.8415 11.5936
L385.9654 11.5317
" />
<path d="M385.9654 11.5317
L386.0273 11.4698
" />
<path d="M386.0273 11.4698
L386.0892 11.3460
" />
<path d="M386.0892 11.3460
L386.0892 11.0984
" />
<path d="M386.0892 11.0984
L386.0273 10.9746
" />
<path d="M386.0273 10.9746
L385.9654 10.9127
" />
<path d="M385.9654 10.9127
L385.8415 10.8507
" />
</g><text x="435.0000" y="11.6500"
textLength="1.4281" font-size="1.7333" lengthAdjust="spacingAndGlyphs"
text-anchor="start" opacity="0" stroke-opacity="0">9</text>
<g class="stroked-text"><desc>9</desc>
<path d="M435.4701 11.5936
L435.7177 11.5936
" />
<path d="M435.7177 11.5936
L435.8415 11.5317
" />
<path d="M435.8415 11.5317
L435.9034 11.4698
" />
<path d="M435.9034 11.4698
L436.0273 11.2841
" />
<path d="M436.0273 11.2841
L436.0892 11.0365
" />
<path d="M436.0892 11.0365
L436.0892 10.5412
" />
<path d="M436.0892 10.5412
L436.0273 10.4174
" />
<path d="M436.0273 10.4174
L435.9654 10.3555
" />
<path d="M435.9654 10.3555
L435.8415 10.2936
" />
<path d="M435.8415 10.2936
L435.5939 10.2936
" />
<path d="M435.5939 10.2936
L435.4701 10.3555
" />
<path d="M435.4701 10.3555
L435.4082 10.4174
" />
<path d="M435.4082 10.4174
L435.3463 10.5412
" />
<path d="M435.3463 10.5412
L435.3463 10.8507
" />
<path d="M435.3463 10.8507
L435.4082 10.9746
" />
<path d="M435.4082 10.9746
L435.4701 11.0365
" />
<path d="M435.4701 11.0365
L435.5939 11.0984
" />
<path d="M435.5939 11.0984
L435.8415 11.0984
" />
<path d="M435.8415 11.0984
L435.9654 11.0365
" />
<path d="M435.9654 11.0365
L436.0273 10.9746
" />
<path d="M436.0273 10.9746
L436.0892 10.8507
" />
</g><text x="485.0000" y="11.6500"
textLength="2.6662" font-size="1.7333" lengthAdjust="spacingAndGlyphs"
text-anchor="start" opacity="0" stroke-opacity="0">10</text>
<g class="stroked-text"><desc>10</desc>
<path d="M486.0892 11.5936
L485.3463 11.5936
" />
<path d="M485.7177 11.5936
L485.7177 10.2936
" />
<path d="M485.7177 10.2936
L485.5939 10.4793
" />
<path d="M485.5939 10.4793
L485.4701 10.6031
" />
<path d="M485.4701 10.6031
L485.3463 10.6650
" />
<path d="M486.8939 10.2936
L487.0177 10.2936
" />
<path d="M487.0177 10.2936
L487.1415 10.3555
" />
<path d="M487.1415 10.3555
L487.2034 10.4174
" />
<path d="M487.2034 10.4174
L487.2653 10.5412
" />
<path d="M487.2653 10.5412
L487.3273 10.7888
" />
<path d="M487.3273 10.7888
L487.3273 11.0984
" />
<path d="M487.3273 11.0984
L487.2653 11.3460
" />
<path d="M487.2653 11.3460
L487.2034 11.4698
" />
<path d="M487.2034 11.4698
L487.1415 11.5317
" />
<path d="M487.1415 11.5317
L487.0177 11.5936
" />
<path d="M487.0177 11.5936
L486.8939 11.5936
" />
<path d="M486.8939 11.5936
L486.7701 11.5317
" />
<path d="M486.7701 11.5317
L486.7082 11.4698
" />
<path d="M486.7082 11.4698
L486.6463 11.3460
" />
<path d="M486.6463 11.3460
L486.5844 11.0984
" />
<path d="M486.5844 11.0984
L486.5844 10.7888
" />
<path d="M486.5844 10.7888
L486.6463 10.5412
" />
<path d="M486.6463 10.5412
L486.7082 10.4174
" />
<path d="M486.7082 10.4174
L486.7701 10.3555
" />
<path d="M486.7701 10.3555
L486.8939 10.2936
" />
</g><path d="M60.0000 84.7800
L60.0000 86.7800
" />
<path d="M110.0000 84.7800
L110.0000 86.7800
" />
<path d="M160.0000 84.7800
L160.0000 86.7800
" />
<path d="M210.0000 84.7800
L210.0000 86.7800
" />
<path d="M260.0000 84.7800
L260.0000 86.7800
" />
<path d="M310.0000 84.7800
L310.0000 86.7800
" />
<path d="M360.0000 84.7800
L360.0000 86.7800
" />
<path d="M410.0000 84.7800
L410.0000 86.7800
" />
<path d="M460.0000 84.7800
L460.0000 86.7800
" />
<path d="M510.0000 84.7800
L510.0000 86.7800
" />
<text x="35.0000" y="86.4300"
textLength="1.4281" font-size="1.7333" lengthAdjust="spacingAndGlyphs"
text-anchor="start" opacity="0" stroke-opacity="0">1</text>
<g class="stroked-text"><desc>1</desc>
<path d="M36.0892 86.3736
L35.3463 86.3736
" />
<path d="M35.7177 86.3736
L35.7177 85.0736
" />
<path d="M35.7177 85.0736
L35.5939 85.2593
" />
<path d="M35.5939 85.2593
L35.4701 85.3831
" />
<path d="M35.4701 85.3831
L35.3463 85.4450
" />
</g><text x="85.0000" y="86.4300"
textLength="1.4281" font-size="1.7333" lengthAdjust="spacingAndGlyphs"
text-anchor="start" opacity="0" stroke-opacity="0">2</text>
<g class="stroked-text"><desc>2</desc>
<path d="M85.3463 85.1974
L85.4082 85.1355
" />
<path d="M85.4082 85.1355
L85.5320 85.0736
" />
<path d="M85.5320 85.0736
L85.8415 85.0736
" />
<path d="M85.8415 85.0736
L85.9654 85.1355
" />
<path d="M85.9654 85.1355
L86.0273 85.1974
" />
<path d="M86.0273 85.1974
L86.0892 85.3212
" />
<path d="M86.0892 85.3212
L86.0892 85.4450
" />
<path d="M86.0892 85.4450
L86.0273 85.6307
" />
<path d="M86.0273 85.6307
L85.2844 86.3736
" />
<path d="M85.2844 86.3736
L86.0892 86.3736
" />
</g><text x="135.0000" y="86.4300"
textLength="1.4281" font-size="1.7333" lengthAdjust="spacingAndGlyphs"
text-anchor="start" opacity="0" stroke-opacity="0">3</text>
<g class="stroked-text"><desc>3</desc>
<path d="M135.2844 85.0736
L136.0892 85.0736
" />
<path d="M136.0892 85.0736
L135.6558 85.5688
" />
<path d="M135.6558 85.5688
L135.8415 85.5688
" />
<path d="M135.8415 85.5688
L135.9654 85.6307
" />
<path d="M135.9654 85.6307
L136.0273 85.6927
" />
<path d="M136.0273 85.6927
L136.0892 85.8165
" />
<path d="M136.0892 85.8165
L136.0892 86.1260
" />
<path d="M136.0892 86.1260
L136.0273 86.2498
" />
<path d="M136.0273 86.2498
L135.9654 86.3117
" />
<path d="M135.9654 86.3117
L135.8415 86.3736
" />
<path d="M135.8415 86.3736
L135.4701 86.3736
" />
<path d="M135.4701 86.3736
L135.3463 86.3117
" />
<path d="M135.3463 86.3117
L135.2844 86.2498
" />
</g><text x="185.0000" y="86.4300"
textLength="1.4281" font-size="1.7333" lengthAdjust="spacingAndGlyphs"
text-anchor="start" opacity="0" stroke-opacity="0">4</text>
<g class="stroked-text"><desc>4</desc>
<path d="M185.9654 85.5069
L185.9654 86.3736
" />
<path d="M185.6558 85.0117
L185.3463 85.9403
" />
<path d="M185.3463 85.9403
L186.1511 85.9403
" />
</g><text x="235.0000" y="86.4300"
textLength="1.4281" font-size="1.7333" lengthAdjust="spacingAndGlyphs"
text-anchor="start" opacity="0" stroke-opacity="0">5</text>
<g class="stroked-text"><desc>5</desc>
<path d="M236.0273 85.0736
L235.4082 85.0736
" />
<path d="M235.4082 85.0736
L235.3463 85.6927
" />
<path d="M235.3463 85.6927
L235.4082 85.6307
" />
<path d="M235.4082 85.6307
L235.5320 85.5688
" />
<path d="M235.5320 85.5688
L235.8415 85.5688
" />
<path d="M235.8415 85.5688
L235.9654 85.6307
" />
<path d="M235.9654 85.6307
L236.0273 85.6927
" />
<path d="M236.0273 85.6927
L236.0892 85.8165
" />
<path d="M236.0892 85.8165
L236.0892 86.1260
" />
<path d="M236.0892 86.1260
L236.0273 86.2498
" />
<path d="M236.0273 86.2498
L235.9654 86.3117
" />
<path d="M235.9654 86.3117
L235.8415 86.3736
" />
<path d="M235.8415 86.3736
L235.5320 86.3736
" />
<path d="M235.5320 86.3736
L235.4082 86.3117
" />
<path d="M235.4082 86.3117
L235.3463 86.2498
" />
</g><text x="285.0000" y="86.4300"
textLength="1.4281" font-size="1.7333" lengthAdjust="spacingAndGlyphs"
text-anchor="start" opacity="0" stroke-opacity="0">6</text>
<g class="stroked-text"><desc>6</desc>
<path d="M285.9654 85.0736
L285.7177 85.0736
" />
<path d="M285.7177 85.0736
L285.5939 85.1355
" />
<path d="M285.5939 85.1355
L285.5320 85.1974
" />
<path d="M285.5320 85.1974
L285.4082 85.3831
" />
<path d="M285.4082 85.3831
L285.3463 85.6307
" />
<path d="M285.3463 85.6307
L285.3463 86.1260
" />
<path d="M285.3463 86.1260
L285.4082 86.2498
" />
<path d="M285.4082 86.2498
L285.4701 86.3117
" />
<path d="M285.4701 86.3117
L285.5939 86.3736
" />
<path d="M285.5939 86.3736
L285.8415 86.3736
" />
<path d="M285.8415 86.3736
L285.9654 86.3117
" />
<path d="M285.9654 86.3117
L286.0273 86.2498
" />
<path d="M286.0273 86.2498
L286.0892 86.1260
" />
<path d="M286.0892 86.1260
L286.0892 85.8165
" />
<path d="M286.0892 85.8165
L286.0273 85.6927
" />
<path d="M286.0273 85.6927
L285.9654 85.6307
" />
<path d="M285.9654 85.6307
L285.8415 85.5688
" />
<path d="M285.8415 85.5688
L285.5939 85.5688
" />
<path d="M285.5939 85.5688
L285.4701 85.6307
" />
<path d="M285.4701 85.6307
L285.4082 85.6927
" />
<path d="M285.4082 85.6927
L285.3463 85.8165
" />
</g><text x="335.0000" y="86.4300"
textLength="1.4281" font-size="1.7333" lengthAdjust="spacingAndGlyphs"
text-anchor="start" opacity="0" stroke-opacity="0">7</text>
<g class="stroked-text"><desc>7</desc>
<path d="M335.2844 85.0736
L336.1511 85.0736
" />
<path d="M336.1511 85.0736
L335.5939 86.3736
" />
</g><text x="385.0000" y="86.4300"
textLength="1.4281" font-size="1.7333" lengthAdjust="spacingAndGlyphs"
text-anchor="start" opacity="0" stroke-opacity="0">8</text>
<g class="stroked-text"><desc>8</desc>
<path d="M385.5939 85.6307
L385.4701 85.5688
" />
<path d="M385.4701 85.5688
L385.4082 85.5069
" />
<path d="M385.4082 85.5069
L385.3463 85.3831
" />
<path d="M385.3463 85.3831
L385.3463 85.3212
" />
<path d="M385.3463 85.3212
L385.4082 85.1974
" />
<path d="M385.4082 85.1974
L385.4701 85.1355
" />
<path d="M385.4701 85.1355
L385.5939 85.0736
" />
<path d="M385.5939 85.0736
L385.8415 85.0736
" />
<path d="M385.8415 85.0736
L385.9654 85.1355
" />
<path d="M385.9654 85.1355
L386.0273 85.1974
" />
<path d="M386.0273 85.1974
L386.0892 85.3212
" />
<path d="M386.0892 85.3212
L386.0892 85.3831
" />
<path d="M386.0892 85.3831
L386.0273 85.5069
" />
<path d="M386.0273 85.5069
L385.9654 85.5688
" />
<path d="M385.9654 85.5688
L385.8415 85.6307
" />
<path d="M385.8415 85.6307
L385.5939 85.6307
" />
<path d="M385.5939 85.6307
L385.4701 85.6927
" />
<path d="M385.4701 85.6927
L385.4082 85.7546
" />
<path d="M385.4082 85.7546
L385.3463 85.8784
" />
<path d="M385.3463 85.8784
L385.3463 86.1260
" />
<path d="M385.3463 86.1260
L385.4082 86.2498
" />
<path d="M385.4082 86.2498
L385.4701 86.3117
" />
<path d="M385.4701 86.3117
L385.5939 86.3736
" />
<path d="M385.5939 86.3736
L385.8415 86.3736
" />
<path d="M385.8415 86.3736
L385.9654 86.3117
" />
<path d="M385.9654 86.3117
L386.0273 86.2498
" />
<path d="M386.0273 86.2498
L386.0892 86.1260
" />
<path d="M386.0892 86.1260
L386.0892 85.8784
" />
<path d="M386.0892 85.8784
L386.0273 85.7546
" />
<path d="M386.0273 85.7546
L385.9654 85.6927
" />
<path d="M385.9654 85.6927
L385.8415 85.6307
" />
</g><text x="435.0000" y="86.4300"
textLength="1.4281" font-size="1.7333" lengthAdjust="spacingAndGlyphs"
text-anchor="start" opacity="0" stroke-opacity="0">9</text>
<g class="stroked-text"><desc>9</desc>
<path d="M435.4701 86.3736
L435.7177 86.3736
" />
<path d="M435.7177 86.3736
L435.8415 86.3117
" />
<path d="M435.8415 86.3117
L435.9034 86.2498
" />
<path d="M435.9034 86.2498
L436.0273 86.0641
" />
<path d="M436.0273 86.0641
L436.0892 85.8165
" />
<path d="M436.0892 85.8165
L436.0892 85.3212
" />
<path d="M436.0892 85.3212
L436.0273 85.1974
" />
<path d="M436.0273 85.1974
L435.9654 85.1355
" />
<path d="M435.9654 85.1355
L435.8415 85.0736
" />
<path d="M435.8415 85.0736
L435.5939 85.0736
" />
<path d="M435.5939 85.0736
L435.4701 85.1355
" />
<path d="M435.4701 85.1355
L435.4082 85.1974
" />
<path d="M435.4082 85.1974
L435.3463 85.3212
" />
<path d="M435.3463 85.3212
L435.3463 85.6307
" />
<path d="M435.3463 85.6307
L435.4082 85.7546
" />
<path d="M435.4082 85.7546
L435.4701 85.8165
" />
<path d="M435.4701 85.8165
L435.5939 85.8784
" />
<path d="M435.5939 85.8784
L435.8415 85.8784
" />
<path d="M435.8415 85.8784
L435.9654 85.8165
" />
<path d="M435.9654 85.8165
L436.0273 85.7546
" />
<path d="M436.0273 85.7546
L436.0892 85.6307
" />
</g><text x="485.0000" y="86.4300"
textLength="2.6662" font-size="1.7333" lengthAdjust="spacingAndGlyphs"
text-anchor="start" opacity="0" stroke-opacity="0">10</text>
<g class="stroked-text"><desc>10</desc>
<path d="M486.0892 86.3736
L485.3463 86.3736
" />
<path d="M485.7177 86.3736
L485.7177 85.0736
" />
<path d="M485.7177 85.0736
L485.5939 85.2593
" />
<path d="M485.5939 85.2593
L485.4701 85.3831
" />
<path d="M485.4701 85.3831
L485.3463 85.4450
" />
<path d="M486.8939 85.0736
L487.0177 85.0736
" />
<path d="M487.0177 85.0736
L487.1415 85.1355
" />
<path d="M487.1415 85.1355
L487.2034 85.1974
" />
<path d="M487.2034 85.1974
L487.2653 85.3212
" />
<path d="M487.2653 85.3212
L487.3273 85.5688
" />
<path d="M487.3273 85.5688
L487.3273 85.8784
" />
<path d="M487.3273 85.8784
L487.2653 86.1260
" />
<path d="M487.2653 86.1260
L487.2034 86.2498
" />
<path d="M487.2034 86.2498
L487.1415 86.3117
" />
<path d="M487.1415 86.3117
L487.0177 86.3736
" />
<path d="M487.0177 86.3736
L486.8939 86.3736
" />
<path d="M486.8939 86.3736
L486.7701 86.3117
" />
<path d="M486.7701 86.3117
L486.7082 86.2498
" />
<path d="M486.7082 86.2498
L486.6463 86.1260
" />
<path d="M486.6463 86.1260
L486.5844 85.8784
" />
<path d="M486.5844 85.8784
L486.5844 85.5688
" />
<path d="M486.5844 85.5688
L486.6463 85.3212
" />
<path d="M486.6463 85.3212
L486.7082 85.1974
" />
<path d="M486.7082 85.1974
L486.7701 85.1355
" />
<path d="M486.7701 85.1355
L486.8939 85.0736
" />
</g><path d="M10.0000 60.0000
L12.0000 60.0000
" />
<text x="11.0000" y="35.6500"
textLength="1.3043" font-size="1.7333" lengthAdjust="spacingAndGlyphs"
text-anchor="middle" opacity="0" stroke-opacity="0">A</text>
<g class="stroked-text"><desc>A</desc>
<path d="M10.6905 35.2222
L11.3095 35.2222
" />
<path d="M10.5667 35.5936
L11.0000 34.2936
" />
<path d="M11.0000 34.2936
L11.4333 35.5936
" />
</g><text x="11.0000" y="85.6500"
textLength="1.4900" font-size="1.7333" lengthAdjust="spacingAndGlyphs"
text-anchor="middle" opacity="0" stroke-opacity="0">B</text>
<g class="stroked-text"><desc>B</desc>
<path d="M11.0929 84.9127
L11.2786 84.9746
" />
<path d="M11.2786 84.9746
L11.3405 85.0365
" />
<path d="M11.3405 85.0365
L11.4024 85.1603
" />
<path d="M11.4024 85.1603
L11.4024 85.3460
" />
<path d="M11.4024 85.3460
L11.3405 85.4698
" />
<path d="M11.3405 85.4698
L11.2786 85.5317
" />
<path d="M11.2786 85.5317
L11.1548 85.5936
" />
<path d="M11.1548 85.5936
L10.6595 85.5936
" />
<path d="M10.6595 85.5936
L10.6595 84.2936
" />
<path d="M10.6595 84.2936
L11.0929 84.2936
" />
<path d="M11.0929 84.2936
L11.2167 84.3555
" />
<path d="M11.2167 84.3555
L11.2786 84.4174
" />
<path d="M11.2786 84.4174
L11.3405 84.5412
" />
<path d="M11.3405 84.5412
L11.3405 84.6650
" />
<path d="M11.3405 84.6650
L11.2786 84.7888
" />
<path d="M11.2786 84.7888
L11.2167 84.8507
" />
<path d="M11.2167 84.8507
L11.0929 84.9127
" />
<path d="M11.0929 84.9127
L10.6595 84.9127
" />
</g><path d="M533.6000 60.0000
L531.6000 60.0000
" />
<text x="532.6000" y="35.6500"
textLength="1.3043" font-size="1.7333" lengthAdjust="spacingAndGlyphs"
text-anchor="middle" opacity="0" stroke-opacity="0">A</text>
<g class="stroked-text"><desc>A</desc>
<path d="M532.2905 35.2222
L532.9095 35.2222
" />
<path d="M532.1667 35.5936
L532.6000 34.2936
" />
<path d="M532.6000 34.2936
L533.0333 35.5936
" />
</g><text x="532.6000" y="85.6500"
textLength="1.4900" font-size="1.7333" lengthAdjust="spacingAndGlyphs"
text-anchor="middle" opacity="0" stroke-opacity="0">B</text>
<g class="stroked-text"><desc>B</desc>
<path d="M532.6929 84.9127
L532.8786 84.9746
" />
<path d="M532.8786 84.9746
L532.9405 85.0365
" />
<path d="M532.9405 85.0365
L533.0024 85.1603
" />
<path d="M533.0024 85.1603
L533.0024 85.3460
" />
<path d="M533.0024 85.3460
L532.9405 85.4698
" />
<path d="M532.9405 85.4698
L532.8786 85.5317
" />
<path d="M532.8786 85.5317
L532.7548 85.5936
" />
<path d="M532.7548 85.5936
L532.2595 85.5936
" />
<path d="M532.2595 85.5936
L532.2595 84.2936
" />
<path d="M532.2595 84.2936
L532.6929 84.2936
" />
<path d="M532.6929 84.2936
L532.8167 84.3555
" />
<path d="M532.8167 84.3555
L532.8786 84.4174
" />
<path d="M532.8786 84.4174
L532.9405 84.5412
" />
<path d="M532.9405 84.5412
L532.9405 84.6650
" />
<path d="M532.9405 84.6650
L532.8786 84.7888
" />
<path d="M532.8786 84.7888
L532.8167 84.8507
" />
<path d="M532.8167 84.8507
L532.6929 84.9127
" />
<path d="M532.6929 84.9127
L532.2595 84.9127
" />
</g><text x="446.6000" y="80.6300"
textLength="7.0071" font-size="2.0000" lengthAdjust="spacingAndGlyphs"
text-anchor="start" opacity="0" stroke-opacity="0">Date: </text>
<g class="stroked-text"><desc>Date: </desc>
<path d="M447.0558 80.5661
L447.0558 79.0661
" />
<path d="M447.0558 79.0661
L447.4130 79.0661
" />
<path d="M447.4130 79.0661
L447.6273 79.1376
" />
<path d="M447.6273 79.1376
L447.7701 79.2804
" />
<path d="M447.7701 79.2804
L447.8415 79.4233
" />
<path d="M447.8415 79.4233
L447.9130 79.7090
" />
<path d="M447.9130 79.7090
L447.9130 79.9233
" />
<path d="M447.9130 79.9233
L447.8415 80.2090
" />
<path d="M447.8415 80.2090
L447.7701 80.3518
" />
<path d="M447.7701 80.3518
L447.6273 80.4947
" />
<path d="M447.6273 80.4947
L447.4130 80.5661
" />
<path d="M447.4130 80.5661
L447.0558 80.5661
" />
<path d="M449.1987 80.5661
L449.1987 79.7804
" />
<path d="M449.1987 79.7804
L449.1273 79.6376
" />
<path d="M449.1273 79.6376
L448.9844 79.5661
" />
<path d="M448.9844 79.5661
L448.6987 79.5661
" />
<path d="M448.6987 79.5661
L448.5558 79.6376
" />
<path d="M449.1987 80.4947
L449.0558 80.5661
" />
<path d="M449.0558 80.5661
L448.6987 80.5661
" />
<path d="M448.6987 80.5661
L448.5558 80.4947
" />
<path d="M448.5558 80.4947
L448.4844 80.3518
" />
<path d="M448.4844 80.3518
L448.4844 80.2090
" />
<path d="M448.4844 80.2090
L448.5558 80.0661
" />
<path d="M448.5558 80.0661
L448.6987 79.9947
" />
<path d="M448.6987 79.9947
L449.0558 79.9947
" />
<path d="M449.0558 79.9947
L449.1987 79.9233
" />
<path d="M449.6987 79.5661
L450.2701 79.5661
" />
<path d="M449.9130 79.0661
L449.9130 80.3518
" />
<path d="M449.9130 80.3518
L449.9844 80.4947
" />
<path d="M449.9844 80.4947
L450.1273 80.5661
" />
<path d="M450.1273 80.5661
L450.2701 80.5661
" />
<path d="M451.3415 80.4947
L451.1987 80.5661
" />
<path d="M451.1987 80.5661
L450.9130 80.5661
" />
<path d="M450.9130 80.5661
L450.7701 80.4947
" />
<path d="M450.7701 80.4947
L450.6987 80.3518
" />
<path d="M450.6987 80.3518
L450.6987 79.7804
" />
<path d="M450.6987 79.7804
L450.7701 79.6376
" />
<path d="M450.7701 79.6376
L450.9130 79.5661
" />
<path d="M450.9130 79.5661
L451.1987 79.5661
" />
<path d="M451.1987 79.5661
L451.3415 79.6376
" />
<path d="M451.3415 79.6376
L451.4130 79.7804
" />
<path d="M451.4130 79.7804
L451.4130 79.9233
" />
<path d="M451.4130 79.9233
L450.6987 80.0661
" />
<path d="M452.0558 80.4233
L452.1273 80.4947
" />
<path d="M452.1273 80.4947
L452.0558 80.5661
" />
<path d="M452.0558 80.5661
L451.9844 80.4947
" />
<path d="M451.9844 80.4947
L452.0558 80.4233
" />
<path d="M452.0558 80.4233
L452.0558 80.5661
" />
<path d="M452.0558 79.6376
L452.1273 79.7090
" />
<path d="M452.1273 79.7090
L452.0558 79.7804
" />
<path d="M452.0558 79.7804
L451.9844 79.7090
" />
<path d="M451.9844 79.7090
L452.0558 79.6376
" />
<path d="M452.0558 79.6376
L452.0558 79.7804
" />
</g><path d="M423.6000 81.2800
L531.6000 81.2800
" />
<text x="424.6000" y="83.4300"
textLength="22.2929" font-size="2.0000" lengthAdjust="spacingAndGlyphs"
text-anchor="start" opacity="0" stroke-opacity="0">KiCad E.D.A. 10.0.3</text>
<g class="stroked-text"><desc>KiCad E.D.A. 10.0.3</desc>
<path d="M425.0558 83.3661
L425.0558 81.8661
" />
<path d="M425.9130 83.3661
L425.2701 82.5090
" />
<path d="M425.9130 81.8661
L425.0558 82.7233
" />
<path d="M426.5558 83.3661
L426.5558 82.3661
" />
<path d="M426.5558 81.8661
L426.4844 81.9376
" />
<path d="M426.4844 81.9376
L426.5558 82.0090
" />
<path d="M426.5558 82.0090
L426.6273 81.9376
" />
<path d="M426.6273 81.9376
L426.5558 81.8661
" />
<path d="M426.5558 81.8661
L426.5558 82.0090
" />
<path d="M428.1273 83.2233
L428.0558 83.2947
" />
<path d="M428.0558 83.2947
L427.8415 83.3661
" />
<path d="M427.8415 83.3661
L427.6987 83.3661
" />
<path d="M427.6987 83.3661
L427.4844 83.2947
" />
<path d="M427.4844 83.2947
L427.3415 83.1518
" />
<path d="M427.3415 83.1518
L427.2701 83.0090
" />
<path d="M427.2701 83.0090
L427.1987 82.7233
" />
<path d="M427.1987 82.7233
L427.1987 82.5090
" />
<path d="M427.1987 82.5090
L427.2701 82.2233
" />
<path d="M427.2701 82.2233
L427.3415 82.0804
" />
<path d="M427.3415 82.0804
L427.4844 81.9376
" />
<path d="M427.4844 81.9376
L427.6987 81.8661
" />
<path d="M427.6987 81.8661
L427.8415 81.8661
" />
<path d="M427.8415 81.8661
L428.0558 81.9376
" />
<path d="M428.0558 81.9376
L428.1273 82.0090
" />
<path d="M429.4130 83.3661
L429.4130 82.5804
" />
<path d="M429.4130 82.5804
L429.3415 82.4376
" />
<path d="M429.3415 82.4376
L429.1987 82.3661
" />
<path d="M429.1987 82.3661
L428.9130 82.3661
" />
<path d="M428.9130 82.3661
L428.7701 82.4376
" />
<path d="M429.4130 83.2947
L429.2701 83.3661
" />
<path d="M429.2701 83.3661
L428.9130 83.3661
" />
<path d="M428.9130 83.3661
L428.7701 83.2947
" />
<path d="M428.7701 83.2947
L428.6987 83.1518
" />
<path d="M428.6987 83.1518
L428.6987 83.0090
" />
<path d="M428.6987 83.0090
L428.7701 82.8661
" />
<path d="M428.7701 82.8661
L428.9130 82.7947
" />
<path d="M428.9130 82.7947
L429.2701 82.7947
" />
<path d="M429.2701 82.7947
L429.4130 82.7233
" />
<path d="M430.7701 83.3661
L430.7701 81.8661
" />
<path d="M430.7701 83.2947
L430.6273 83.3661
" />
<path d="M430.6273 83.3661
L430.3415 83.3661
" />
<path d="M430.3415 83.3661
L430.1987 83.2947
" />
<path d="M430.1987 83.2947
L430.1273 83.2233
" />
<path d="M430.1273 83.2233
L430.0558 83.0804
" />
<path d="M430.0558 83.0804
L430.0558 82.6518
" />
<path d="M430.0558 82.6518
L430.1273 82.5090
" />
<path d="M430.1273 82.5090
L430.1987 82.4376
" />
<path d="M430.1987 82.4376
L430.3415 82.3661
" />
<path d="M430.3415 82.3661
L430.6273 82.3661
" />
<path d="M430.6273 82.3661
L430.7701 82.4376
" />
<path d="M432.6273 82.5804
L433.1273 82.5804
" />
<path d="M433.3415 83.3661
L432.6273 83.3661
" />
<path d="M432.6273 83.3661
L432.6273 81.8661
" />
<path d="M432.6273 81.8661
L433.3415 81.8661
" />
<path d="M433.9844 83.2233
L434.0558 83.2947
" />
<path d="M434.0558 83.2947
L433.9844 83.3661
" />
<path d="M433.9844 83.3661
L433.9130 83.2947
" />
<path d="M433.9130 83.2947
L433.9844 83.2233
" />
<path d="M433.9844 83.2233
L433.9844 83.3661
" />
<path d="M434.6987 83.3661
L434.6987 81.8661
" />
<path d="M434.6987 81.8661
L435.0558 81.8661
" />
<path d="M435.0558 81.8661
L435.2701 81.9376
" />
<path d="M435.2701 81.9376
L435.4130 82.0804
" />
<path d="M435.4130 82.0804
L435.4844 82.2233
" />
<path d="M435.4844 82.2233
L435.5558 82.5090
" />
<path d="M435.5558 82.5090
L435.5558 82.7233
" />
<path d="M435.5558 82.7233
L435.4844 83.0090
" />
<path d="M435.4844 83.0090
L435.4130 83.1518
" />
<path d="M435.4130 83.1518
L435.2701 83.2947
" />
<path d="M435.2701 83.2947
L435.0558 83.3661
" />
<path d="M435.0558 83.3661
L434.6987 83.3661
" />
<path d="M436.1987 83.2233
L436.2701 83.2947
" />
<path d="M436.2701 83.2947
L436.1987 83.3661
" />
<path d="M436.1987 83.3661
L436.1273 83.2947
" />
<path d="M436.1273 83.2947
L436.1987 83.2233
" />
<path d="M436.1987 83.2233
L436.1987 83.3661
" />
<path d="M436.8415 82.9376
L437.5558 82.9376
" />
<path d="M436.6987 83.3661
L437.1987 81.8661
" />
<path d="M437.1987 81.8661
L437.6987 83.3661
" />
<path d="M438.1987 83.2233
L438.2701 83.2947
" />
<path d="M438.2701 83.2947
L438.1987 83.3661
" />
<path d="M438.1987 83.3661
L438.1273 83.2947
" />
<path d="M438.1273 83.2947
L438.1987 83.2233
" />
<path d="M438.1987 83.2233
L438.1987 83.3661
" />
<path d="M440.8415 83.3661
L439.9844 83.3661
" />
<path d="M440.4130 83.3661
L440.4130 81.8661
" />
<path d="M440.4130 81.8661
L440.2701 82.0804
" />
<path d="M440.2701 82.0804
L440.1273 82.2233
" />
<path d="M440.1273 82.2233
L439.9844 82.2947
" />
<path d="M441.7701 81.8661
L441.9130 81.8661
" />
<path d="M441.9130 81.8661
L442.0558 81.9376
" />
<path d="M442.0558 81.9376
L442.1273 82.0090
" />
<path d="M442.1273 82.0090
L442.1987 82.1518
" />
<path d="M442.1987 82.1518
L442.2701 82.4376
" />
<path d="M442.2701 82.4376
L442.2701 82.7947
" />
<path d="M442.2701 82.7947
L442.1987 83.0804
" />
<path d="M442.1987 83.0804
L442.1273 83.2233
" />
<path d="M442.1273 83.2233
L442.0558 83.2947
" />
<path d="M442.0558 83.2947
L441.9130 83.3661
" />
<path d="M441.9130 83.3661
L441.7701 83.3661
" />
<path d="M441.7701 83.3661
L441.6273 83.2947
" />
<path d="M441.6273 83.2947
L441.5558 83.2233
" />
<path d="M441.5558 83.2233
L441.4844 83.0804
" />
<path d="M441.4844 83.0804
L441.4130 82.7947
" />
<path d="M441.4130 82.7947
L441.4130 82.4376
" />
<path d="M441.4130 82.4376
L441.4844 82.1518
" />
<path d="M441.4844 82.1518
L441.5558 82.0090
" />
<path d="M441.5558 82.0090
L441.6273 81.9376
" />
<path d="M441.6273 81.9376
L441.7701 81.8661
" />
<path d="M442.9130 83.2233
L442.9844 83.2947
" />
<path d="M442.9844 83.2947
L442.9130 83.3661
" />
<path d="M442.9130 83.3661
L442.8415 83.2947
" />
<path d="M442.8415 83.2947
L442.9130 83.2233
" />
<path d="M442.9130 83.2233
L442.9130 83.3661
" />
<path d="M443.9130 81.8661
L444.0558 81.8661
" />
<path d="M444.0558 81.8661
L444.1987 81.9376
" />
<path d="M444.1987 81.9376
L444.2701 82.0090
" />
<path d="M444.2701 82.0090
L444.3415 82.1518
" />
<path d="M444.3415 82.1518
L444.4130 82.4376
" />
<path d="M444.4130 82.4376
L444.4130 82.7947
" />
<path d="M444.4130 82.7947
L444.3415 83.0804
" />
<path d="M444.3415 83.0804
L444.2701 83.2233
" />
<path d="M444.2701 83.2233
L444.1987 83.2947
" />
<path d="M444.1987 83.2947
L444.0558 83.3661
" />
<path d="M444.0558 83.3661
L443.9130 83.3661
" />
<path d="M443.9130 83.3661
L443.7701 83.2947
" />
<path d="M443.7701 83.2947
L443.6987 83.2233
" />
<path d="M443.6987 83.2233
L443.6273 83.0804
" />
<path d="M443.6273 83.0804
L443.5558 82.7947
" />
<path d="M443.5558 82.7947
L443.5558 82.4376
" />
<path d="M443.5558 82.4376
L443.6273 82.1518
" />
<path d="M443.6273 82.1518
L443.6987 82.0090
" />
<path d="M443.6987 82.0090
L443.7701 81.9376
" />
<path d="M443.7701 81.9376
L443.9130 81.8661
" />
<path d="M445.0558 83.2233
L445.1273 83.2947
" />
<path d="M445.1273 83.2947
L445.0558 83.3661
" />
<path d="M445.0558 83.3661
L444.9844 83.2947
" />
<path d="M444.9844 83.2947
L445.0558 83.2233
" />
<path d="M445.0558 83.2233
L445.0558 83.3661
" />
<path d="M445.6273 81.8661
L446.5558 81.8661
" />
<path d="M446.5558 81.8661
L446.0558 82.4376
" />
<path d="M446.0558 82.4376
L446.2701 82.4376
" />
<path d="M446.2701 82.4376
L446.4130 82.5090
" />
<path d="M446.4130 82.5090
L446.4844 82.5804
" />
<path d="M446.4844 82.5804
L446.5558 82.7233
" />
<path d="M446.5558 82.7233
L446.5558 83.0804
" />
<path d="M446.5558 83.0804
L446.4844 83.2233
" />
<path d="M446.4844 83.2233
L446.4130 83.2947
" />
<path d="M446.4130 83.2947
L446.2701 83.3661
" />
<path d="M446.2701 83.3661
L445.8415 83.3661
" />
<path d="M445.8415 83.3661
L445.6987 83.2947
" />
<path d="M445.6987 83.2947
L445.6273 83.2233
" />
</g><path d="M423.6000 78.2800
L531.6000 78.2800
" />
</g>
<g style="fill:none;
stroke:#C872AB; stroke-width:0.3000; stroke-opacity:1;
stroke-linecap:round; stroke-linejoin:round;">
<text x="509.6000" y="80.6300"
textLength="6.3857" font-size="2.0000" lengthAdjust="spacingAndGlyphs"
text-anchor="start" opacity="0" stroke-opacity="0">Rev: </text>
<g class="stroked-text"><desc>Rev: </desc>
<path d="M511.0117 80.5583
L510.5117 79.8440
" />
<path d="M510.1545 80.5583
L510.1545 79.0583
" />
<path d="M510.1545 79.0583
L510.7259 79.0583
" />
<path d="M510.7259 79.0583
L510.8688 79.1298
" />
<path d="M510.8688 79.1298
L510.9402 79.2012
" />
<path d="M510.9402 79.2012
L511.0117 79.3440
" />
<path d="M511.0117 79.3440
L511.0117 79.5583
" />
<path d="M511.0117 79.5583
L510.9402 79.7012
" />
<path d="M510.9402 79.7012
L510.8688 79.7726
" />
<path d="M510.8688 79.7726
L510.7259 79.8440
" />
<path d="M510.7259 79.8440
L510.1545 79.8440
" />
<path d="M512.2259 80.4869
L512.0831 80.5583
" />
<path d="M512.0831 80.5583
L511.7974 80.5583
" />
<path d="M511.7974 80.5583
L511.6545 80.4869
" />
<path d="M511.6545 80.4869
L511.5831 80.3440
" />
<path d="M511.5831 80.3440
L511.5831 79.7726
" />
<path d="M511.5831 79.7726
L511.6545 79.6298
" />
<path d="M511.6545 79.6298
L511.7974 79.5583
" />
<path d="M511.7974 79.5583
L512.0831 79.5583
" />
<path d="M512.0831 79.5583
L512.2259 79.6298
" />
<path d="M512.2259 79.6298
L512.2974 79.7726
" />
<path d="M512.2974 79.7726
L512.2974 79.9155
" />
<path d="M512.2974 79.9155
L511.5831 80.0583
" />
<path d="M512.7974 79.5583
L513.1545 80.5583
" />
<path d="M513.1545 80.5583
L513.5117 79.5583
" />
<path d="M514.0831 80.4155
L514.1545 80.4869
" />
<path d="M514.1545 80.4869
L514.0831 80.5583
" />
<path d="M514.0831 80.5583
L514.0117 80.4869
" />
<path d="M514.0117 80.4869
L514.0831 80.4155
" />
<path d="M514.0831 80.4155
L514.0831 80.5583
" />
<path d="M514.0831 79.6298
L514.1545 79.7012
" />
<path d="M514.1545 79.7012
L514.0831 79.7726
" />
<path d="M514.0831 79.7726
L514.0117 79.7012
" />
<path d="M514.0117 79.7012
L514.0831 79.6298
" />
<path d="M514.0831 79.6298
L514.0831 79.7726
" />
</g></g>
<g style="fill:none;
stroke:#C872AB; stroke-width:0.1500; stroke-opacity:1;
stroke-linecap:round; stroke-linejoin:round;">
<text x="424.6000" y="80.6300"
textLength="11.6500" font-size="2.0000" lengthAdjust="spacingAndGlyphs"
text-anchor="start" opacity="0" stroke-opacity="0">Size: User</text>
<g class="stroked-text"><desc>Size: User</desc>
<path d="M424.9844 80.4947
L425.1987 80.5661
" />
<path d="M425.1987 80.5661
L425.5558 80.5661
" />
<path d="M425.5558 80.5661
L425.6987 80.4947
" />
<path d="M425.6987 80.4947
L425.7701 80.4233
" />
<path d="M425.7701 80.4233
L425.8415 80.2804
" />
<path d="M425.8415 80.2804
L425.8415 80.1376
" />
<path d="M425.8415 80.1376
L425.7701 79.9947
" />
<path d="M425.7701 79.9947
L425.6987 79.9233
" />
<path d="M425.6987 79.9233
L425.5558 79.8518
" />
<path d="M425.5558 79.8518
L425.2701 79.7804
" />
<path d="M425.2701 79.7804
L425.1273 79.7090
" />
<path d="M425.1273 79.7090
L425.0558 79.6376
" />
<path d="M425.0558 79.6376
L424.9844 79.4947
" />
<path d="M424.9844 79.4947
L424.9844 79.3518
" />
<path d="M424.9844 79.3518
L425.0558 79.2090
" />
<path d="M425.0558 79.2090
L425.1273 79.1376
" />
<path d="M425.1273 79.1376
L425.2701 79.0661
" />
<path d="M425.2701 79.0661
L425.6273 79.0661
" />
<path d="M425.6273 79.0661
L425.8415 79.1376
" />
<path d="M426.4844 80.5661
L426.4844 79.5661
" />
<path d="M426.4844 79.0661
L426.4130 79.1376
" />
<path d="M426.4130 79.1376
L426.4844 79.2090
" />
<path d="M426.4844 79.2090
L426.5558 79.1376
" />
<path d="M426.5558 79.1376
L426.4844 79.0661
" />
<path d="M426.4844 79.0661
L426.4844 79.2090
" />
<path d="M427.0558 79.5661
L427.8415 79.5661
" />
<path d="M427.8415 79.5661
L427.0558 80.5661
" />
<path d="M427.0558 80.5661
L427.8415 80.5661
" />
<path d="M428.9844 80.4947
L428.8415 80.5661
" />
<path d="M428.8415 80.5661
L428.5558 80.5661
" />
<path d="M428.5558 80.5661
L428.4130 80.4947
" />
<path d="M428.4130 80.4947
L428.3415 80.3518
" />
<path d="M428.3415 80.3518
L428.3415 79.7804
" />
<path d="M428.3415 79.7804
L428.4130 79.6376
" />
<path d="M428.4130 79.6376
L428.5558 79.5661
" />
<path d="M428.5558 79.5661
L428.8415 79.5661
" />
<path d="M428.8415 79.5661
L428.9844 79.6376
" />
<path d="M428.9844 79.6376
L429.0558 79.7804
" />
<path d="M429.0558 79.7804
L429.0558 79.9233
" />
<path d="M429.0558 79.9233
L428.3415 80.0661
" />
<path d="M429.6987 80.4233
L429.7701 80.4947
" />
<path d="M429.7701 80.4947
L429.6987 80.5661
" />
<path d="M429.6987 80.5661
L429.6273 80.4947
" />
<path d="M429.6273 80.4947
L429.6987 80.4233
" />
<path d="M429.6987 80.4233
L429.6987 80.5661
" />
<path d="M429.6987 79.6376
L429.7701 79.7090
" />
<path d="M429.7701 79.7090
L429.6987 79.7804
" />
<path d="M429.6987 79.7804
L429.6273 79.7090
" />
<path d="M429.6273 79.7090
L429.6987 79.6376
" />
<path d="M429.6987 79.6376
L429.6987 79.7804
" />
<path d="M431.5558 79.0661
L431.5558 80.2804
" />
<path d="M431.5558 80.2804
L431.6273 80.4233
" />
<path d="M431.6273 80.4233
L431.6987 80.4947
" />
<path d="M431.6987 80.4947
L431.8415 80.5661
" />
<path d="M431.8415 80.5661
L432.1273 80.5661
" />
<path d="M432.1273 80.5661
L432.2701 80.4947
" />
<path d="M432.2701 80.4947
L432.3415 80.4233
" />
<path d="M432.3415 80.4233
L432.4130 80.2804
" />
<path d="M432.4130 80.2804
L432.4130 79.0661
" />
<path d="M433.0558 80.4947
L433.1987 80.5661
" />
<path d="M433.1987 80.5661
L433.4844 80.5661
" />
<path d="M433.4844 80.5661
L433.6273 80.4947
" />
<path d="M433.6273 80.4947
L433.6987 80.3518
" />
<path d="M433.6987 80.3518
L433.6987 80.2804
" />
<path d="M433.6987 80.2804
L433.6273 80.1376
" />
<path d="M433.6273 80.1376
L433.4844 80.0661
" />
<path d="M433.4844 80.0661
L433.2701 80.0661
" />
<path d="M433.2701 80.0661
L433.1273 79.9947
" />
<path d="M433.1273 79.9947
L433.0558 79.8518
" />
<path d="M433.0558 79.8518
L433.0558 79.7804
" />
<path d="M433.0558 79.7804
L433.1273 79.6376
" />
<path d="M433.1273 79.6376
L433.2701 79.5661
" />
<path d="M433.2701 79.5661
L433.4844 79.5661
" />
<path d="M433.4844 79.5661
L433.6273 79.6376
" />
<path d="M434.9130 80.4947
L434.7701 80.5661
" />
<path d="M434.7701 80.5661
L434.4844 80.5661
" />
<path d="M434.4844 80.5661
L434.3415 80.4947
" />
<path d="M434.3415 80.4947
L434.2701 80.3518
" />
<path d="M434.2701 80.3518
L434.2701 79.7804
" />
<path d="M434.2701 79.7804
L434.3415 79.6376
" />
<path d="M434.3415 79.6376
L434.4844 79.5661
" />
<path d="M434.4844 79.5661
L434.7701 79.5661
" />
<path d="M434.7701 79.5661
L434.9130 79.6376
" />
<path d="M434.9130 79.6376
L434.9844 79.7804
" />
<path d="M434.9844 79.7804
L434.9844 79.9233
" />
<path d="M434.9844 79.9233
L434.2701 80.0661
" />
<path d="M435.6273 80.5661
L435.6273 79.5661
" />
<path d="M435.6273 79.8518
L435.6987 79.7090
" />
<path d="M435.6987 79.7090
L435.7701 79.6376
" />
<path d="M435.7701 79.6376
L435.9130 79.5661
" />
<path d="M435.9130 79.5661
L436.0558 79.5661
" />
</g><text x="509.6000" y="83.4300"
textLength="8.5071" font-size="2.0000" lengthAdjust="spacingAndGlyphs"
text-anchor="start" opacity="0" stroke-opacity="0">Id: 1/1</text>
<g class="stroked-text"><desc>Id: 1/1</desc>
<path d="M510.0558 83.3661
L510.0558 81.8661
" />
<path d="M511.4130 83.3661
L511.4130 81.8661
" />
<path d="M511.4130 83.2947
L511.2701 83.3661
" />
<path d="M511.2701 83.3661
L510.9844 83.3661
" />
<path d="M510.9844 83.3661
L510.8415 83.2947
" />
<path d="M510.8415 83.2947
L510.7701 83.2233
" />
<path d="M510.7701 83.2233
L510.6987 83.0804
" />
<path d="M510.6987 83.0804
L510.6987 82.6518
" />
<path d="M510.6987 82.6518
L510.7701 82.5090
" />
<path d="M510.7701 82.5090
L510.8415 82.4376
" />
<path d="M510.8415 82.4376
L510.9844 82.3661
" />
<path d="M510.9844 82.3661
L511.2701 82.3661
" />
<path d="M511.2701 82.3661
L511.4130 82.4376
" />
<path d="M512.1273 83.2233
L512.1987 83.2947
" />
<path d="M512.1987 83.2947
L512.1273 83.3661
" />
<path d="M512.1273 83.3661
L512.0558 83.2947
" />
<path d="M512.0558 83.2947
L512.1273 83.2233
" />
<path d="M512.1273 83.2233
L512.1273 83.3661
" />
<path d="M512.1273 82.4376
L512.1987 82.5090
" />
<path d="M512.1987 82.5090
L512.1273 82.5804
" />
<path d="M512.1273 82.5804
L512.0558 82.5090
" />
<path d="M512.0558 82.5090
L512.1273 82.4376
" />
<path d="M512.1273 82.4376
L512.1273 82.5804
" />
<path d="M514.7701 83.3661
L513.9130 83.3661
" />
<path d="M514.3415 83.3661
L514.3415 81.8661
" />
<path d="M514.3415 81.8661
L514.1987 82.0804
" />
<path d="M514.1987 82.0804
L514.0558 82.2233
" />
<path d="M514.0558 82.2233
L513.9130 82.2947
" />
<path d="M516.4844 81.7947
L515.1987 83.7233
" />
<path d="M517.7701 83.3661
L516.9130 83.3661
" />
<path d="M517.3415 83.3661
L517.3415 81.8661
" />
<path d="M517.3415 81.8661
L517.1987 82.0804
" />
<path d="M517.1987 82.0804
L517.0558 82.2233
" />
<path d="M517.0558 82.2233
L516.9130 82.2947
" />
</g><path d="M423.6000 74.2800
L531.6000 74.2800
" />
</g>
<g style="fill:none;
stroke:#C872AB; stroke-width:0.4000; stroke-opacity:1;
stroke-linecap:round; stroke-linejoin:round;">
<text x="424.6000" y="77.0800"
textLength="9.6571" font-size="2.6667" lengthAdjust="spacingAndGlyphs"
text-anchor="start" opacity="0" stroke-opacity="0">Title: </text>
<g class="stroked-text"><desc>Title: </desc>
<path d="M425.2917 74.9844
L426.4346 74.9844
" />
<path d="M425.6132 76.9844
L425.8632 74.9844
" />
<path d="M426.8513 76.9844
L427.0179 75.6511
" />
<path d="M427.1013 74.9844
L426.9941 75.0797
" />
<path d="M426.9941 75.0797
L427.0774 75.1749
" />
<path d="M427.0774 75.1749
L427.1846 75.0797
" />
<path d="M427.1846 75.0797
L427.1013 74.9844
" />
<path d="M427.1013 74.9844
L427.0774 75.1749
" />
<path d="M427.6846 75.6511
L428.4465 75.6511
" />
<path d="M428.0536 74.9844
L427.8393 76.6987
" />
<path d="M427.8393 76.6987
L427.9108 76.8892
" />
<path d="M427.9108 76.8892
L428.0893 76.9844
" />
<path d="M428.0893 76.9844
L428.2798 76.9844
" />
<path d="M429.2322 76.9844
L429.0536 76.8892
" />
<path d="M429.0536 76.8892
L428.9822 76.6987
" />
<path d="M428.9822 76.6987
L429.1965 74.9844
" />
<path d="M430.7679 76.8892
L430.5655 76.9844
" />
<path d="M430.5655 76.9844
L430.1846 76.9844
" />
<path d="M430.1846 76.9844
L430.0060 76.8892
" />
<path d="M430.0060 76.8892
L429.9346 76.6987
" />
<path d="M429.9346 76.6987
L430.0298 75.9368
" />
<path d="M430.0298 75.9368
L430.1489 75.7463
" />
<path d="M430.1489 75.7463
L430.3513 75.6511
" />
<path d="M430.3513 75.6511
L430.7322 75.6511
" />
<path d="M430.7322 75.6511
L430.9108 75.7463
" />
<path d="M430.9108 75.7463
L430.9822 75.9368
" />
<path d="M430.9822 75.9368
L430.9584 76.1273
" />
<path d="M430.9584 76.1273
L429.9822 76.3178
" />
<path d="M431.7322 76.7940
L431.8155 76.8892
" />
<path d="M431.8155 76.8892
L431.7084 76.9844
" />
<path d="M431.7084 76.9844
L431.6251 76.8892
" />
<path d="M431.6251 76.8892
L431.7322 76.7940
" />
<path d="M431.7322 76.7940
L431.7084 76.9844
" />
<path d="M431.8632 75.7463
L431.9465 75.8416
" />
<path d="M431.9465 75.8416
L431.8393 75.9368
" />
<path d="M431.8393 75.9368
L431.7560 75.8416
" />
<path d="M431.7560 75.8416
L431.8632 75.7463
" />
<path d="M431.8632 75.7463
L431.8393 75.9368
" />
</g></g>
<g style="fill:none;
stroke:#C872AB; stroke-width:0.1500; stroke-opacity:1;
stroke-linecap:round; stroke-linejoin:round;">
<text x="424.6000" y="73.2300"
textLength="39.2214" font-size="2.0000" lengthAdjust="spacingAndGlyphs"
text-anchor="start" opacity="0" stroke-opacity="0">File: isolated_secondary.kicad_pcb</text>
<g class="stroked-text"><desc>File: isolated_secondary.kicad_pcb</desc>
<path d="M425.5558 72.3804
L425.0558 72.3804
" />
<path d="M425.0558 73.1661
L425.0558 71.6661
" />
<path d="M425.0558 71.6661
L425.7701 71.6661
" />
<path d="M426.3415 73.1661
L426.3415 72.1661
" />
<path d="M426.3415 71.6661
L426.2701 71.7376
" />
<path d="M426.2701 71.7376
L426.3415 71.8090
" />
<path d="M426.3415 71.8090
L426.4130 71.7376
" />
<path d="M426.4130 71.7376
L426.3415 71.6661
" />
<path d="M426.3415 71.6661
L426.3415 71.8090
" />
<path d="M427.2701 73.1661
L427.1273 73.0947
" />
<path d="M427.1273 73.0947
L427.0558 72.9518
" />
<path d="M427.0558 72.9518
L427.0558 71.6661
" />
<path d="M428.4130 73.0947
L428.2701 73.1661
" />
<path d="M428.2701 73.1661
L427.9844 73.1661
" />
<path d="M427.9844 73.1661
L427.8415 73.0947
" />
<path d="M427.8415 73.0947
L427.7701 72.9518
" />
<path d="M427.7701 72.9518
L427.7701 72.3804
" />
<path d="M427.7701 72.3804
L427.8415 72.2376
" />
<path d="M427.8415 72.2376
L427.9844 72.1661
" />
<path d="M427.9844 72.1661
L428.2701 72.1661
" />
<path d="M428.2701 72.1661
L428.4130 72.2376
" />
<path d="M428.4130 72.2376
L428.4844 72.3804
" />
<path d="M428.4844 72.3804
L428.4844 72.5233
" />
<path d="M428.4844 72.5233
L427.7701 72.6661
" />
<path d="M429.1273 73.0233
L429.1987 73.0947
" />
<path d="M429.1987 73.0947
L429.1273 73.1661
" />
<path d="M429.1273 73.1661
L429.0558 73.0947
" />
<path d="M429.0558 73.0947
L429.1273 73.0233
" />
<path d="M429.1273 73.0233
L429.1273 73.1661
" />
<path d="M429.1273 72.2376
L429.1987 72.3090
" />
<path d="M429.1987 72.3090
L429.1273 72.3804
" />
<path d="M429.1273 72.3804
L429.0558 72.3090
" />
<path d="M429.0558 72.3090
L429.1273 72.2376
" />
<path d="M429.1273 72.2376
L429.1273 72.3804
" />
<path d="M430.9844 73.1661
L430.9844 72.1661
" />
<path d="M430.9844 71.6661
L430.9130 71.7376
" />
<path d="M430.9130 71.7376
L430.9844 71.8090
" />
<path d="M430.9844 71.8090
L431.0558 71.7376
" />
<path d="M431.0558 71.7376
L430.9844 71.6661
" />
<path d="M430.9844 71.6661
L430.9844 71.8090
" />
<path d="M431.6273 73.0947
L431.7701 73.1661
" />
<path d="M431.7701 73.1661
L432.0558 73.1661
" />
<path d="M432.0558 73.1661
L432.1987 73.0947
" />
<path d="M432.1987 73.0947
L432.2701 72.9518
" />
<path d="M432.2701 72.9518
L432.2701 72.8804
" />
<path d="M432.2701 72.8804
L432.1987 72.7376
" />
<path d="M432.1987 72.7376
L432.0558 72.6661
" />
<path d="M432.0558 72.6661
L431.8415 72.6661
" />
<path d="M431.8415 72.6661
L431.6987 72.5947
" />
<path d="M431.6987 72.5947
L431.6273 72.4518
" />
<path d="M431.6273 72.4518
L431.6273 72.3804
" />
<path d="M431.6273 72.3804
L431.6987 72.2376
" />
<path d="M431.6987 72.2376
L431.8415 72.1661
" />
<path d="M431.8415 72.1661
L432.0558 72.1661
" />
<path d="M432.0558 72.1661
L432.1987 72.2376
" />
<path d="M433.1273 73.1661
L432.9844 73.0947
" />
<path d="M432.9844 73.0947
L432.9130 73.0233
" />
<path d="M432.9130 73.0233
L432.8415 72.8804
" />
<path d="M432.8415 72.8804
L432.8415 72.4518
" />
<path d="M432.8415 72.4518
L432.9130 72.3090
" />
<path d="M432.9130 72.3090
L432.9844 72.2376
" />
<path d="M432.9844 72.2376
L433.1273 72.1661
" />
<path d="M433.1273 72.1661
L433.3415 72.1661
" />
<path d="M433.3415 72.1661
L433.4844 72.2376
" />
<path d="M433.4844 72.2376
L433.5558 72.3090
" />
<path d="M433.5558 72.3090
L433.6273 72.4518
" />
<path d="M433.6273 72.4518
L433.6273 72.8804
" />
<path d="M433.6273 72.8804
L433.5558 73.0233
" />
<path d="M433.5558 73.0233
L433.4844 73.0947
" />
<path d="M433.4844 73.0947
L433.3415 73.1661
" />
<path d="M433.3415 73.1661
L433.1273 73.1661
" />
<path d="M434.4844 73.1661
L434.3415 73.0947
" />
<path d="M434.3415 73.0947
L434.2701 72.9518
" />
<path d="M434.2701 72.9518
L434.2701 71.6661
" />
<path d="M435.6987 73.1661
L435.6987 72.3804
" />
<path d="M435.6987 72.3804
L435.6273 72.2376
" />
<path d="M435.6273 72.2376
L435.4844 72.1661
" />
<path d="M435.4844 72.1661
L435.1987 72.1661
" />
<path d="M435.1987 72.1661
L435.0558 72.2376
" />
<path d="M435.6987 73.0947
L435.5558 73.1661
" />
<path d="M435.5558 73.1661
L435.1987 73.1661
" />
<path d="M435.1987 73.1661
L435.0558 73.0947
" />
<path d="M435.0558 73.0947
L434.9844 72.9518
" />
<path d="M434.9844 72.9518
L434.9844 72.8090
" />
<path d="M434.9844 72.8090
L435.0558 72.6661
" />
<path d="M435.0558 72.6661
L435.1987 72.5947
" />
<path d="M435.1987 72.5947
L435.5558 72.5947
" />
<path d="M435.5558 72.5947
L435.6987 72.5233
" />
<path d="M436.1987 72.1661
L436.7701 72.1661
" />
<path d="M436.4130 71.6661
L436.4130 72.9518
" />
<path d="M436.4130 72.9518
L436.4844 73.0947
" />
<path d="M436.4844 73.0947
L436.6273 73.1661
" />
<path d="M436.6273 73.1661
L436.7701 73.1661
" />
<path d="M437.8415 73.0947
L437.6987 73.1661
" />
<path d="M437.6987 73.1661
L437.4130 73.1661
" />
<path d="M437.4130 73.1661
L437.2701 73.0947
" />
<path d="M437.2701 73.0947
L437.1987 72.9518
" />
<path d="M437.1987 72.9518
L437.1987 72.3804
" />
<path d="M437.1987 72.3804
L437.2701 72.2376
" />
<path d="M437.2701 72.2376
L437.4130 72.1661
" />
<path d="M437.4130 72.1661
L437.6987 72.1661
" />
<path d="M437.6987 72.1661
L437.8415 72.2376
" />
<path d="M437.8415 72.2376
L437.9130 72.3804
" />
<path d="M437.9130 72.3804
L437.9130 72.5233
" />
<path d="M437.9130 72.5233
L437.1987 72.6661
" />
<path d="M439.1987 73.1661
L439.1987 71.6661
" />
<path d="M439.1987 73.0947
L439.0558 73.1661
" />
<path d="M439.0558 73.1661
L438.7701 73.1661
" />
<path d="M438.7701 73.1661
L438.6273 73.0947
" />
<path d="M438.6273 73.0947
L438.5558 73.0233
" />
<path d="M438.5558 73.0233
L438.4844 72.8804
" />
<path d="M438.4844 72.8804
L438.4844 72.4518
" />
<path d="M438.4844 72.4518
L438.5558 72.3090
" />
<path d="M438.5558 72.3090
L438.6273 72.2376
" />
<path d="M438.6273 72.2376
L438.7701 72.1661
" />
<path d="M438.7701 72.1661
L439.0558 72.1661
" />
<path d="M439.0558 72.1661
L439.1987 72.2376
" />
<path d="M439.5558 73.3090
L440.6987 73.3090
" />
<path d="M440.9844 73.0947
L441.1273 73.1661
" />
<path d="M441.1273 73.1661
L441.4130 73.1661
" />
<path d="M441.4130 73.1661
L441.5558 73.0947
" />
<path d="M441.5558 73.0947
L441.6273 72.9518
" />
<path d="M441.6273 72.9518
L441.6273 72.8804
" />
<path d="M441.6273 72.8804
L441.5558 72.7376
" />
<path d="M441.5558 72.7376
L441.4130 72.6661
" />
<path d="M441.4130 72.6661
L441.1987 72.6661
" />
<path d="M441.1987 72.6661
L441.0558 72.5947
" />
<path d="M441.0558 72.5947
L440.9844 72.4518
" />
<path d="M440.9844 72.4518
L440.9844 72.3804
" />
<path d="M440.9844 72.3804
L441.0558 72.2376
" />
<path d="M441.0558 72.2376
L441.1987 72.1661
" />
<path d="M441.1987 72.1661
L441.4130 72.1661
" />
<path d="M441.4130 72.1661
L441.5558 72.2376
" />
<path d="M442.8415 73.0947
L442.6987 73.1661
" />
<path d="M442.6987 73.1661
L442.4130 73.1661
" />
<path d="M442.4130 73.1661
L442.2701 73.0947
" />
<path d="M442.2701 73.0947
L442.1987 72.9518
" />
<path d="M442.1987 72.9518
L442.1987 72.3804
" />
<path d="M442.1987 72.3804
L442.2701 72.2376
" />
<path d="M442.2701 72.2376
L442.4130 72.1661
" />
<path d="M442.4130 72.1661
L442.6987 72.1661
" />
<path d="M442.6987 72.1661
L442.8415 72.2376
" />
<path d="M442.8415 72.2376
L442.9130 72.3804
" />
<path d="M442.9130 72.3804
L442.9130 72.5233
" />
<path d="M442.9130 72.5233
L442.1987 72.6661
" />
<path d="M444.1987 73.0947
L444.0558 73.1661
" />
<path d="M444.0558 73.1661
L443.7701 73.1661
" />
<path d="M443.7701 73.1661
L443.6273 73.0947
" />
<path d="M443.6273 73.0947
L443.5558 73.0233
" />
<path d="M443.5558 73.0233
L443.4844 72.8804
" />
<path d="M443.4844 72.8804
L443.4844 72.4518
" />
<path d="M443.4844 72.4518
L443.5558 72.3090
" />
<path d="M443.5558 72.3090
L443.6273 72.2376
" />
<path d="M443.6273 72.2376
L443.7701 72.1661
" />
<path d="M443.7701 72.1661
L444.0558 72.1661
" />
<path d="M444.0558 72.1661
L444.1987 72.2376
" />
<path d="M445.0558 73.1661
L444.9130 73.0947
" />
<path d="M444.9130 73.0947
L444.8415 73.0233
" />
<path d="M444.8415 73.0233
L444.7701 72.8804
" />
<path d="M444.7701 72.8804
L444.7701 72.4518
" />
<path d="M444.7701 72.4518
L444.8415 72.3090
" />
<path d="M444.8415 72.3090
L444.9130 72.2376
" />
<path d="M444.9130 72.2376
L445.0558 72.1661
" />
<path d="M445.0558 72.1661
L445.2701 72.1661
" />
<path d="M445.2701 72.1661
L445.4130 72.2376
" />
<path d="M445.4130 72.2376
L445.4844 72.3090
" />
<path d="M445.4844 72.3090
L445.5558 72.4518
" />
<path d="M445.5558 72.4518
L445.5558 72.8804
" />
<path d="M445.5558 72.8804
L445.4844 73.0233
" />
<path d="M445.4844 73.0233
L445.4130 73.0947
" />
<path d="M445.4130 73.0947
L445.2701 73.1661
" />
<path d="M445.2701 73.1661
L445.0558 73.1661
" />
<path d="M446.1987 72.1661
L446.1987 73.1661
" />
<path d="M446.1987 72.3090
L446.2701 72.2376
" />
<path d="M446.2701 72.2376
L446.4130 72.1661
" />
<path d="M446.4130 72.1661
L446.6273 72.1661
" />
<path d="M446.6273 72.1661
L446.7701 72.2376
" />
<path d="M446.7701 72.2376
L446.8415 72.3804
" />
<path d="M446.8415 72.3804
L446.8415 73.1661
" />
<path d="M448.1987 73.1661
L448.1987 71.6661
" />
<path d="M448.1987 73.0947
L448.0558 73.1661
" />
<path d="M448.0558 73.1661
L447.7701 73.1661
" />
<path d="M447.7701 73.1661
L447.6273 73.0947
" />
<path d="M447.6273 73.0947
L447.5558 73.0233
" />
<path d="M447.5558 73.0233
L447.4844 72.8804
" />
<path d="M447.4844 72.8804
L447.4844 72.4518
" />
<path d="M447.4844 72.4518
L447.5558 72.3090
" />
<path d="M447.5558 72.3090
L447.6273 72.2376
" />
<path d="M447.6273 72.2376
L447.7701 72.1661
" />
<path d="M447.7701 72.1661
L448.0558 72.1661
" />
<path d="M448.0558 72.1661
L448.1987 72.2376
" />
<path d="M449.5558 73.1661
L449.5558 72.3804
" />
<path d="M449.5558 72.3804
L449.4844 72.2376
" />
<path d="M449.4844 72.2376
L449.3415 72.1661
" />
<path d="M449.3415 72.1661
L449.0558 72.1661
" />
<path d="M449.0558 72.1661
L448.9130 72.2376
" />
<path d="M449.5558 73.0947
L449.4130 73.1661
" />
<path d="M449.4130 73.1661
L449.0558 73.1661
" />
<path d="M449.0558 73.1661
L448.9130 73.0947
" />
<path d="M448.9130 73.0947
L448.8415 72.9518
" />
<path d="M448.8415 72.9518
L448.8415 72.8090
" />
<path d="M448.8415 72.8090
L448.9130 72.6661
" />
<path d="M448.9130 72.6661
L449.0558 72.5947
" />
<path d="M449.0558 72.5947
L449.4130 72.5947
" />
<path d="M449.4130 72.5947
L449.5558 72.5233
" />
<path d="M450.2701 73.1661
L450.2701 72.1661
" />
<path d="M450.2701 72.4518
L450.3415 72.3090
" />
<path d="M450.3415 72.3090
L450.4130 72.2376
" />
<path d="M450.4130 72.2376
L450.5558 72.1661
" />
<path d="M450.5558 72.1661
L450.6987 72.1661
" />
<path d="M451.0558 72.1661
L451.4130 73.1661
" />
<path d="M451.7701 72.1661
L451.4130 73.1661
" />
<path d="M451.4130 73.1661
L451.2701 73.5233
" />
<path d="M451.2701 73.5233
L451.1987 73.5947
" />
<path d="M451.1987 73.5947
L451.0558 73.6661
" />
<path d="M452.3415 73.0233
L452.4130 73.0947
" />
<path d="M452.4130 73.0947
L452.3415 73.1661
" />
<path d="M452.3415 73.1661
L452.2701 73.0947
" />
<path d="M452.2701 73.0947
L452.3415 73.0233
" />
<path d="M452.3415 73.0233
L452.3415 73.1661
" />
<path d="M453.0558 73.1661
L453.0558 71.6661
" />
<path d="M453.1987 72.5947
L453.6273 73.1661
" />
<path d="M453.6273 72.1661
L453.0558 72.7376
" />
<path d="M454.2701 73.1661
L454.2701 72.1661
" />
<path d="M454.2701 71.6661
L454.1987 71.7376
" />
<path d="M454.1987 71.7376
L454.2701 71.8090
" />
<path d="M454.2701 71.8090
L454.3415 71.7376
" />
<path d="M454.3415 71.7376
L454.2701 71.6661
" />
<path d="M454.2701 71.6661
L454.2701 71.8090
" />
<path d="M455.6273 73.0947
L455.4844 73.1661
" />
<path d="M455.4844 73.1661
L455.1987 73.1661
" />
<path d="M455.1987 73.1661
L455.0558 73.0947
" />
<path d="M455.0558 73.0947
L454.9844 73.0233
" />
<path d="M454.9844 73.0233
L454.9130 72.8804
" />
<path d="M454.9130 72.8804
L454.9130 72.4518
" />
<path d="M454.9130 72.4518
L454.9844 72.3090
" />
<path d="M454.9844 72.3090
L455.0558 72.2376
" />
<path d="M455.0558 72.2376
L455.1987 72.1661
" />
<path d="M455.1987 72.1661
L455.4844 72.1661
" />
<path d="M455.4844 72.1661
L455.6273 72.2376
" />
<path d="M456.9130 73.1661
L456.9130 72.3804
" />
<path d="M456.9130 72.3804
L456.8415 72.2376
" />
<path d="M456.8415 72.2376
L456.6987 72.1661
" />
<path d="M456.6987 72.1661
L456.4130 72.1661
" />
<path d="M456.4130 72.1661
L456.2701 72.2376
" />
<path d="M456.9130 73.0947
L456.7701 73.1661
" />
<path d="M456.7701 73.1661
L456.4130 73.1661
" />
<path d="M456.4130 73.1661
L456.2701 73.0947
" />
<path d="M456.2701 73.0947
L456.1987 72.9518
" />
<path d="M456.1987 72.9518
L456.1987 72.8090
" />
<path d="M456.1987 72.8090
L456.2701 72.6661
" />
<path d="M456.2701 72.6661
L456.4130 72.5947
" />
<path d="M456.4130 72.5947
L456.7701 72.5947
" />
<path d="M456.7701 72.5947
L456.9130 72.5233
" />
<path d="M458.2701 73.1661
L458.2701 71.6661
" />
<path d="M458.2701 73.0947
L458.1273 73.1661
" />
<path d="M458.1273 73.1661
L457.8415 73.1661
" />
<path d="M457.8415 73.1661
L457.6987 73.0947
" />
<path d="M457.6987 73.0947
L457.6273 73.0233
" />
<path d="M457.6273 73.0233
L457.5558 72.8804
" />
<path d="M457.5558 72.8804
L457.5558 72.4518
" />
<path d="M457.5558 72.4518
L457.6273 72.3090
" />
<path d="M457.6273 72.3090
L457.6987 72.2376
" />
<path d="M457.6987 72.2376
L457.8415 72.1661
" />
<path d="M457.8415 72.1661
L458.1273 72.1661
" />
<path d="M458.1273 72.1661
L458.2701 72.2376
" />
<path d="M458.6273 73.3090
L459.7701 73.3090
" />
<path d="M460.1273 72.1661
L460.1273 73.6661
" />
<path d="M460.1273 72.2376
L460.2701 72.1661
" />
<path d="M460.2701 72.1661
L460.5558 72.1661
" />
<path d="M460.5558 72.1661
L460.6987 72.2376
" />
<path d="M460.6987 72.2376
L460.7701 72.3090
" />
<path d="M460.7701 72.3090
L460.8415 72.4518
" />
<path d="M460.8415 72.4518
L460.8415 72.8804
" />
<path d="M460.8415 72.8804
L460.7701 73.0233
" />
<path d="M460.7701 73.0233
L460.6987 73.0947
" />
<path d="M460.6987 73.0947
L460.5558 73.1661
" />
<path d="M460.5558 73.1661
L460.2701 73.1661
" />
<path d="M460.2701 73.1661
L460.1273 73.0947
" />
<path d="M462.1273 73.0947
L461.9844 73.1661
" />
<path d="M461.9844 73.1661
L461.6987 73.1661
" />
<path d="M461.6987 73.1661
L461.5558 73.0947
" />
<path d="M461.5558 73.0947
L461.4844 73.0233
" />
<path d="M461.4844 73.0233
L461.4130 72.8804
" />
<path d="M461.4130 72.8804
L461.4130 72.4518
" />
<path d="M461.4130 72.4518
L461.4844 72.3090
" />
<path d="M461.4844 72.3090
L461.5558 72.2376
" />
<path d="M461.5558 72.2376
L461.6987 72.1661
" />
<path d="M461.6987 72.1661
L461.9844 72.1661
" />
<path d="M461.9844 72.1661
L462.1273 72.2376
" />
<path d="M462.7701 73.1661
L462.7701 71.6661
" />
<path d="M462.7701 72.2376
L462.9130 72.1661
" />
<path d="M462.9130 72.1661
L463.1987 72.1661
" />
<path d="M463.1987 72.1661
L463.3415 72.2376
" />
<path d="M463.3415 72.2376
L463.4130 72.3090
" />
<path d="M463.4130 72.3090
L463.4844 72.4518
" />
<path d="M463.4844 72.4518
L463.4844 72.8804
" />
<path d="M463.4844 72.8804
L463.4130 73.0233
" />
<path d="M463.4130 73.0233
L463.3415 73.0947
" />
<path d="M463.3415 73.0947
L463.1987 73.1661
" />
<path d="M463.1987 73.1661
L462.9130 73.1661
" />
<path d="M462.9130 73.1661
L462.7701 73.0947
" />
</g><path d="M423.6000 68.2800
L531.6000 68.2800
" />
<text x="424.6000" y="70.5300"
textLength="8.2214" font-size="2.0000" lengthAdjust="spacingAndGlyphs"
text-anchor="start" opacity="0" stroke-opacity="0">Sheet: </text>
<g class="stroked-text"><desc>Sheet: </desc>
<path d="M424.9844 70.3947
L425.1987 70.4661
" />
<path d="M425.1987 70.4661
L425.5558 70.4661
" />
<path d="M425.5558 70.4661
L425.6987 70.3947
" />
<path d="M425.6987 70.3947
L425.7701 70.3233
" />
<path d="M425.7701 70.3233
L425.8415 70.1804
" />
<path d="M425.8415 70.1804
L425.8415 70.0376
" />
<path d="M425.8415 70.0376
L425.7701 69.8947
" />
<path d="M425.7701 69.8947
L425.6987 69.8233
" />
<path d="M425.6987 69.8233
L425.5558 69.7518
" />
<path d="M425.5558 69.7518
L425.2701 69.6804
" />
<path d="M425.2701 69.6804
L425.1273 69.6090
" />
<path d="M425.1273 69.6090
L425.0558 69.5376
" />
<path d="M425.0558 69.5376
L424.9844 69.3947
" />
<path d="M424.9844 69.3947
L424.9844 69.2518
" />
<path d="M424.9844 69.2518
L425.0558 69.1090
" />
<path d="M425.0558 69.1090
L425.1273 69.0376
" />
<path d="M425.1273 69.0376
L425.2701 68.9661
" />
<path d="M425.2701 68.9661
L425.6273 68.9661
" />
<path d="M425.6273 68.9661
L425.8415 69.0376
" />
<path d="M426.4844 70.4661
L426.4844 68.9661
" />
<path d="M427.1273 70.4661
L427.1273 69.6804
" />
<path d="M427.1273 69.6804
L427.0558 69.5376
" />
<path d="M427.0558 69.5376
L426.9130 69.4661
" />
<path d="M426.9130 69.4661
L426.6987 69.4661
" />
<path d="M426.6987 69.4661
L426.5558 69.5376
" />
<path d="M426.5558 69.5376
L426.4844 69.6090
" />
<path d="M428.4130 70.3947
L428.2701 70.4661
" />
<path d="M428.2701 70.4661
L427.9844 70.4661
" />
<path d="M427.9844 70.4661
L427.8415 70.3947
" />
<path d="M427.8415 70.3947
L427.7701 70.2518
" />
<path d="M427.7701 70.2518
L427.7701 69.6804
" />
<path d="M427.7701 69.6804
L427.8415 69.5376
" />
<path d="M427.8415 69.5376
L427.9844 69.4661
" />
<path d="M427.9844 69.4661
L428.2701 69.4661
" />
<path d="M428.2701 69.4661
L428.4130 69.5376
" />
<path d="M428.4130 69.5376
L428.4844 69.6804
" />
<path d="M428.4844 69.6804
L428.4844 69.8233
" />
<path d="M428.4844 69.8233
L427.7701 69.9661
" />
<path d="M429.6987 70.3947
L429.5558 70.4661
" />
<path d="M429.5558 70.4661
L429.2701 70.4661
" />
<path d="M429.2701 70.4661
L429.1273 70.3947
" />
<path d="M429.1273 70.3947
L429.0558 70.2518
" />
<path d="M429.0558 70.2518
L429.0558 69.6804
" />
<path d="M429.0558 69.6804
L429.1273 69.5376
" />
<path d="M429.1273 69.5376
L429.2701 69.4661
" />
<path d="M429.2701 69.4661
L429.5558 69.4661
" />
<path d="M429.5558 69.4661
L429.6987 69.5376
" />
<path d="M429.6987 69.5376
L429.7701 69.6804
" />
<path d="M429.7701 69.6804
L429.7701 69.8233
" />
<path d="M429.7701 69.8233
L429.0558 69.9661
" />
<path d="M430.1987 69.4661
L430.7701 69.4661
" />
<path d="M430.4130 68.9661
L430.4130 70.2518
" />
<path d="M430.4130 70.2518
L430.4844 70.3947
" />
<path d="M430.4844 70.3947
L430.6273 70.4661
" />
<path d="M430.6273 70.4661
L430.7701 70.4661
" />
<path d="M431.2701 70.3233
L431.3415 70.3947
" />
<path d="M431.3415 70.3947
L431.2701 70.4661
" />
<path d="M431.2701 70.4661
L431.1987 70.3947
" />
<path d="M431.1987 70.3947
L431.2701 70.3233
" />
<path d="M431.2701 70.3233
L431.2701 70.4661
" />
<path d="M431.2701 69.5376
L431.3415 69.6090
" />
<path d="M431.3415 69.6090
L431.2701 69.6804
" />
<path d="M431.2701 69.6804
L431.1987 69.6090
" />
<path d="M431.1987 69.6090
L431.2701 69.5376
" />
<path d="M431.2701 69.5376
L431.2701 69.6804
" />
</g></g>
<g style="fill:none;
stroke:#C872AB; stroke-width:0.3000; stroke-opacity:1;
stroke-linecap:round; stroke-linejoin:round;">
<text x="424.6000" y="67.5300"
textLength="0.9000" font-size="2.0000" lengthAdjust="spacingAndGlyphs"
text-anchor="start" opacity="0" stroke-opacity="0"></text>
<g class="stroked-text"><desc></desc>
</g></g>
<g style="fill:none;
stroke:#C872AB; stroke-width:0.1500; stroke-opacity:1;
stroke-linecap:round; stroke-linejoin:round;">
<text x="424.6000" y="64.5300"
textLength="0.4500" font-size="2.0000" lengthAdjust="spacingAndGlyphs"
text-anchor="start" opacity="0" stroke-opacity="0"></text>
<g class="stroked-text"><desc></desc>
</g><text x="424.6000" y="61.5300"
textLength="0.4500" font-size="2.0000" lengthAdjust="spacingAndGlyphs"
text-anchor="start" opacity="0" stroke-opacity="0"></text>
<g class="stroked-text"><desc></desc>
</g><text x="424.6000" y="58.5300"
textLength="0.4500" font-size="2.0000" lengthAdjust="spacingAndGlyphs"
text-anchor="start" opacity="0" stroke-opacity="0"></text>
<g class="stroked-text"><desc></desc>
</g><text x="424.6000" y="55.5300"
textLength="0.4500" font-size="2.0000" lengthAdjust="spacingAndGlyphs"
text-anchor="start" opacity="0" stroke-opacity="0"></text>
<g class="stroked-text"><desc></desc>
</g><path d="M443.6000 78.2800
L443.6000 81.2800
" />
<path d="M507.6000 78.2800
L507.6000 84.7800
" />
<path style="fill:#4D7FC4; fill-opacity:1.0000; stroke:none;fill-rule:evenodd;"
d="M 19.4000,20.9500
19.4190,20.8543
19.4732,20.7732
19.5543,20.7190
19.6500,20.7000
21.5500,20.7000
21.6457,20.7190
21.7268,20.7732
21.7810,20.8543
21.8000,20.9500
21.8000,22.8500
21.7810,22.9457
21.7268,23.0268
21.6457,23.0810
21.5500,23.1000
19.6500,23.1000
19.5543,23.0810
19.4732,23.0268
19.4190,22.9457
19.4000,22.8500
Z" />
</g>
<g style="fill:#4D7FC4; fill-opacity:1.0000; stroke:none;">
<circle cx="24.1000" cy="21.9000" r="1.2000" />
<circle cx="93.6600" cy="26.0000" r="1.7000" />
<circle cx="98.7400" cy="20.2800" r="1.5000" />
<path style="fill:#4D7FC4; fill-opacity:1.0000; stroke:none;fill-rule:evenodd;"
d="M 125.3000,21.3800
125.3000,20.0800
126.6000,20.0800
126.6000,21.3800
Z" />
<circle cx="127.2200" cy="19.4600" r="0.6500" />
<circle cx="128.4900" cy="20.7300" r="0.6500" />
<circle cx="149.0000" cy="19.0500" r="0.7000" />
<circle cx="150.9000" cy="19.0500" r="0.7000" />
<circle cx="190.3100" cy="19.0500" r="0.7000" />
<circle cx="192.2100" cy="19.0500" r="0.7000" />
<circle cx="231.6200" cy="19.0500" r="0.7000" />
<circle cx="233.5200" cy="19.0500" r="0.7000" />
<circle cx="272.9300" cy="19.0500" r="0.7000" />
<circle cx="274.8300" cy="19.0500" r="0.7000" />
<path style="fill:#4D7FC4; fill-opacity:1.0000; stroke:none;fill-rule:evenodd;"
d="M 343.9650,34.1500
343.9650,32.3500
345.6750,32.3500
345.6750,34.1500
Z" />
</g>
<g style="fill:none;
stroke:#4D7FC4; stroke-width:1.7100; stroke-opacity:1;
stroke-linecap:round; stroke-linejoin:round;">
<path d="M347.1000 33.2050
L347.1000 33.2950
" />
<path d="M349.3800 33.2050
L349.3800 33.2950
" />
<path style="fill:#4D7FC4; fill-opacity:1.0000; stroke:none;fill-rule:evenodd;"
d="M 370.8500,46.5300
370.8500,42.0300
373.3500,42.0300
373.3500,46.5300
Z" />
</g>
<g style="fill:none;
stroke:#4D7FC4; stroke-width:2.5000; stroke-opacity:1;
stroke-linecap:round; stroke-linejoin:round;">
<path d="M377.5500 43.2800
L377.5500 45.2800
" />
<path d="M383.0000 43.2800
L383.0000 45.2800
" />
</g>
<g style="fill:#4D7FC4; fill-opacity:1.0000; stroke:none;">
<circle cx="405.7500" cy="28.3200" r="1.5000" />
<circle cx="410.1900" cy="37.8500" r="1.5000" />
<circle cx="457.0100" cy="19.0500" r="0.7000" />
<circle cx="458.9100" cy="19.0500" r="0.7000" />
<circle cx="478.9200" cy="19.0500" r="0.7000" />
<circle cx="480.8200" cy="19.0500" r="0.7000" />
<circle cx="500.8300" cy="19.0500" r="0.7000" />
<circle cx="502.7300" cy="19.0500" r="0.7000" />
<circle cx="522.7400" cy="19.0500" r="0.7000" />
<circle cx="524.6400" cy="19.0500" r="0.7000" />
<circle cx="24.1000" cy="34.6000" r="0.3000" />
<circle cx="41.7000" cy="34.6000" r="0.3000" />
<circle cx="51.8900" cy="35.3500" r="0.3000" />
<circle cx="71.9700" cy="35.3500" r="0.3000" />
<circle cx="56.5900" cy="36.1000" r="0.3000" />
<circle cx="72.6100" cy="36.1000" r="0.3000" />
<circle cx="93.6600" cy="40.2500" r="0.3000" />
<circle cx="125.9500" cy="40.2500" r="0.3000" />
<circle cx="128.4900" cy="29.7400" r="0.3000" />
<circle cx="149.0000" cy="29.7400" r="0.3000" />
<circle cx="253.5000" cy="27.8500" r="0.3000" />
<circle cx="272.9300" cy="27.8500" r="0.3000" />
<circle cx="310.1900" cy="42.9000" r="0.3000" />
<circle cx="344.8200" cy="42.9000" r="0.3000" />
<circle cx="349.3800" cy="56.0300" r="0.3000" />
<circle cx="372.1000" cy="56.0300" r="0.3000" />
<circle cx="383.0000" cy="56.7800" r="0.3000" />
<circle cx="405.7500" cy="56.7800" r="0.3000" />
<circle cx="458.9100" cy="30.8500" r="0.3000" />
<circle cx="478.9200" cy="30.8500" r="0.3000" />
<circle cx="274.8300" cy="31.6000" r="0.3000" />
<circle cx="294.1700" cy="31.6000" r="0.3000" />
<circle cx="294.8100" cy="37.2600" r="0.3000" />
<circle cx="314.6950" cy="37.2600" r="0.3000" />
<circle cx="150.9000" cy="24.1000" r="0.3000" />
<circle cx="170.2400" cy="24.1000" r="0.3000" />
<circle cx="170.8800" cy="24.8500" r="0.3000" />
<circle cx="190.3100" cy="24.8500" r="0.3000" />
<circle cx="192.2100" cy="25.6000" r="0.3000" />
<circle cx="211.5500" cy="25.6000" r="0.3000" />
<circle cx="212.1900" cy="26.3500" r="0.3000" />
<circle cx="231.6200" cy="26.3500" r="0.3000" />
<circle cx="233.5200" cy="27.1000" r="0.3000" />
<circle cx="252.8600" cy="27.1000" r="0.3000" />
<circle cx="502.7300" cy="27.8500" r="0.3000" />
<circle cx="522.7400" cy="27.8500" r="0.3000" />
</g>
<g style="fill:none;
stroke:#4D7FC4; stroke-width:0.2500; stroke-opacity:1;
stroke-linecap:round; stroke-linejoin:round;">
<path d="M24.1000 34.6000
L41.7000 34.6000
" />
<path d="M51.8900 35.3500
L71.9700 35.3500
" />
<path d="M56.5900 36.1000
L72.6100 36.1000
" />
<path d="M93.6600 40.2500
L125.9500 40.2500
" />
<path d="M128.4900 29.7400
L149.0000 29.7400
" />
<path d="M253.5000 27.8500
L272.9300 27.8500
" />
<path d="M310.1900 42.9000
L344.8200 42.9000
" />
<path d="M349.3800 56.0300
L372.1000 56.0300
" />
<path d="M383.0000 56.7800
L405.7500 56.7800
" />
<path d="M458.9100 30.8500
L478.9200 30.8500
" />
<path d="M274.8300 31.6000
L294.1700 31.6000
" />
<path d="M294.8100 37.2600
L314.6950 37.2600
" />
<path d="M150.9000 24.1000
L170.2400 24.1000
" />
<path d="M170.8800 24.8500
L190.3100 24.8500
" />
<path d="M192.2100 25.6000
L211.5500 25.6000
" />
<path d="M212.1900 26.3500
L231.6200 26.3500
" />
<path d="M233.5200 27.1000
L252.8600 27.1000
" />
<path d="M502.7300 27.8500
L522.7400 27.8500
" />
<path style="fill:#02FFEE; fill-opacity:0.4000; stroke:none;fill-rule:evenodd;"
d="M 19.4000,20.9500
19.4190,20.8543
19.4732,20.7732
19.5543,20.7190
19.6500,20.7000
21.5500,20.7000
21.6457,20.7190
21.7268,20.7732
21.7810,20.8543
21.8000,20.9500
21.8000,22.8500
21.7810,22.9457
21.7268,23.0268
21.6457,23.0810
21.5500,23.1000
19.6500,23.1000
19.5543,23.0810
19.4732,23.0268
19.4190,22.9457
19.4000,22.8500
Z" />
</g>
<g style="fill:#02FFEE; fill-opacity:0.4000; stroke:none;">
<circle cx="24.1000" cy="21.9000" r="1.2000" />
<circle cx="95.5600" cy="32.3500" r="0.8000" />
<circle cx="102.5500" cy="22.1900" r="1.0500" />
<circle cx="93.6600" cy="26.0000" r="1.7000" />
<circle cx="98.7400" cy="20.2800" r="1.5000" />
<path style="fill:#02FFEE; fill-opacity:0.4000; stroke:none;fill-rule:evenodd;"
d="M 125.3000,21.3800
125.3000,20.0800
126.6000,20.0800
126.6000,21.3800
Z" />
<circle cx="127.2200" cy="19.4600" r="0.6500" />
<circle cx="128.4900" cy="20.7300" r="0.6500" />
<circle cx="149.0000" cy="19.0500" r="0.7000" />
<circle cx="150.9000" cy="19.0500" r="0.7000" />
<circle cx="190.3100" cy="19.0500" r="0.7000" />
<circle cx="192.2100" cy="19.0500" r="0.7000" />
<circle cx="231.6200" cy="19.0500" r="0.7000" />
<circle cx="233.5200" cy="19.0500" r="0.7000" />
<circle cx="272.9300" cy="19.0500" r="0.7000" />
<circle cx="274.8300" cy="19.0500" r="0.7000" />
<circle cx="347.1000" cy="22.1500" r="1.6000" />
<path style="fill:#02FFEE; fill-opacity:0.4000; stroke:none;fill-rule:evenodd;"
d="M 343.9650,34.1500
343.9650,32.3500
345.6750,32.3500
345.6750,34.1500
Z" />
</g>
<g style="fill:none;
stroke:#02FFEE; stroke-width:1.7100; stroke-opacity:1;
stroke-linecap:round; stroke-linejoin:round;">
<path d="M347.1000 33.2050
L347.1000 33.2950
" />
<path d="M349.3800 33.2050
L349.3800 33.2950
" />
</g>
<g style="fill:#02FFEE; fill-opacity:0.4000; stroke:none;">
<circle cx="377.5500" cy="24.4200" r="1.8000" />
<path style="fill:#02FFEE; fill-opacity:0.4000; stroke:none;fill-rule:evenodd;"
d="M 370.8500,46.5300
370.8500,42.0300
373.3500,42.0300
373.3500,46.5300
Z" />
</g>
<g style="fill:none;
stroke:#02FFEE; stroke-width:2.5000; stroke-opacity:1;
stroke-linecap:round; stroke-linejoin:round;">
<path d="M377.5500 43.2800
L377.5500 45.2800
" />
<path d="M383.0000 43.2800
L383.0000 45.2800
" />
</g>
<g style="fill:#02FFEE; fill-opacity:0.4000; stroke:none;">
<circle cx="405.7500" cy="28.3200" r="1.5000" />
<circle cx="410.1900" cy="37.8500" r="1.5000" />
<circle cx="457.0100" cy="19.0500" r="0.7000" />
<circle cx="458.9100" cy="19.0500" r="0.7000" />
<circle cx="478.9200" cy="19.0500" r="0.7000" />
<circle cx="480.8200" cy="19.0500" r="0.7000" />
<circle cx="500.8300" cy="19.0500" r="0.7000" />
<circle cx="502.7300" cy="19.0500" r="0.7000" />
<circle cx="522.7400" cy="19.0500" r="0.7000" />
<circle cx="524.6400" cy="19.0500" r="0.7000" />
<path style="fill:none;
stroke:#D0D2CD; stroke-width:0.1000; stroke-opacity:1;
stroke-linecap:round; stroke-linejoin:round;fill:none"
d="M 0.0000,0.0000
543.6000,0.0000
543.6000,96.7800
0.0000,96.7800
Z" />
</g>
<g style="fill:#FFFFFF; fill-opacity:1.0000; stroke:none;">
<circle cx="24.1000" cy="34.6000" r="0.1500" />
<circle cx="41.7000" cy="34.6000" r="0.1500" />
<circle cx="51.8900" cy="35.3500" r="0.1500" />
<circle cx="71.9700" cy="35.3500" r="0.1500" />
<circle cx="56.5900" cy="36.1000" r="0.1500" />
<circle cx="72.6100" cy="36.1000" r="0.1500" />
<circle cx="93.6600" cy="40.2500" r="0.1500" />
<circle cx="125.9500" cy="40.2500" r="0.1500" />
<circle cx="128.4900" cy="29.7400" r="0.1500" />
<circle cx="149.0000" cy="29.7400" r="0.1500" />
<circle cx="253.5000" cy="27.8500" r="0.1500" />
<circle cx="272.9300" cy="27.8500" r="0.1500" />
<circle cx="310.1900" cy="42.9000" r="0.1500" />
<circle cx="344.8200" cy="42.9000" r="0.1500" />
<circle cx="349.3800" cy="56.0300" r="0.1500" />
<circle cx="372.1000" cy="56.0300" r="0.1500" />
<circle cx="383.0000" cy="56.7800" r="0.1500" />
<circle cx="405.7500" cy="56.7800" r="0.1500" />
<circle cx="458.9100" cy="30.8500" r="0.1500" />
<circle cx="478.9200" cy="30.8500" r="0.1500" />
<circle cx="274.8300" cy="31.6000" r="0.1500" />
<circle cx="294.1700" cy="31.6000" r="0.1500" />
<circle cx="294.8100" cy="37.2600" r="0.1500" />
<circle cx="314.6950" cy="37.2600" r="0.1500" />
<circle cx="150.9000" cy="24.1000" r="0.1500" />
<circle cx="170.2400" cy="24.1000" r="0.1500" />
<circle cx="170.8800" cy="24.8500" r="0.1500" />
<circle cx="190.3100" cy="24.8500" r="0.1500" />
<circle cx="192.2100" cy="25.6000" r="0.1500" />
<circle cx="211.5500" cy="25.6000" r="0.1500" />
<circle cx="212.1900" cy="26.3500" r="0.1500" />
<circle cx="231.6200" cy="26.3500" r="0.1500" />
<circle cx="233.5200" cy="27.1000" r="0.1500" />
<circle cx="252.8600" cy="27.1000" r="0.1500" />
<circle cx="502.7300" cy="27.8500" r="0.1500" />
<circle cx="522.7400" cy="27.8500" r="0.1500" />
</g>
<g style="fill:#FFFFFF; fill-opacity:1.0000; stroke:none;">
<circle cx="20.6000" cy="21.9000" r="0.6000" />
</g>
<g style="fill:#FFFFFF; fill-opacity:1.0000; stroke:none;">
<circle cx="24.1000" cy="21.9000" r="0.6000" />
</g>
<g style="fill:#000000; fill-opacity:1.0000; stroke:none;">
<circle cx="95.5600" cy="32.3500" r="0.8000" />
<circle cx="102.5500" cy="22.1900" r="1.0500" />
</g>
<g style="fill:#FFFFFF; fill-opacity:1.0000; stroke:none;">
<circle cx="93.6600" cy="26.0000" r="0.8000" />
</g>
<g style="fill:#FFFFFF; fill-opacity:1.0000; stroke:none;">
<circle cx="98.7400" cy="20.2800" r="0.6000" />
</g>
<g style="fill:#FFFFFF; fill-opacity:1.0000; stroke:none;">
<circle cx="125.9500" cy="20.7300" r="0.3750" />
</g>
<g style="fill:#FFFFFF; fill-opacity:1.0000; stroke:none;">
<circle cx="127.2200" cy="19.4600" r="0.3750" />
</g>
<g style="fill:#FFFFFF; fill-opacity:1.0000; stroke:none;">
<circle cx="128.4900" cy="20.7300" r="0.3750" />
</g>
<g style="fill:#FFFFFF; fill-opacity:1.0000; stroke:none;">
<circle cx="149.0000" cy="19.0500" r="0.3500" />
</g>
<g style="fill:#FFFFFF; fill-opacity:1.0000; stroke:none;">
<circle cx="150.9000" cy="19.0500" r="0.3500" />
</g>
<g style="fill:#FFFFFF; fill-opacity:1.0000; stroke:none;">
<circle cx="190.3100" cy="19.0500" r="0.3500" />
</g>
<g style="fill:#FFFFFF; fill-opacity:1.0000; stroke:none;">
<circle cx="192.2100" cy="19.0500" r="0.3500" />
</g>
<g style="fill:#FFFFFF; fill-opacity:1.0000; stroke:none;">
<circle cx="231.6200" cy="19.0500" r="0.3500" />
</g>
<g style="fill:#FFFFFF; fill-opacity:1.0000; stroke:none;">
<circle cx="233.5200" cy="19.0500" r="0.3500" />
</g>
<g style="fill:#FFFFFF; fill-opacity:1.0000; stroke:none;">
<circle cx="272.9300" cy="19.0500" r="0.3500" />
</g>
<g style="fill:#FFFFFF; fill-opacity:1.0000; stroke:none;">
<circle cx="274.8300" cy="19.0500" r="0.3500" />
</g>
<g style="fill:#000000; fill-opacity:1.0000; stroke:none;">
<circle cx="347.1000" cy="22.1500" r="1.6000" />
</g>
<g style="fill:#FFFFFF; fill-opacity:1.0000; stroke:none;">
<circle cx="344.8200" cy="33.2500" r="0.5000" />
</g>
<g style="fill:#FFFFFF; fill-opacity:1.0000; stroke:none;">
<circle cx="347.1000" cy="33.2500" r="0.5000" />
</g>
<g style="fill:#FFFFFF; fill-opacity:1.0000; stroke:none;">
<circle cx="349.3800" cy="33.2500" r="0.5000" />
</g>
<g style="fill:#000000; fill-opacity:1.0000; stroke:none;">
<circle cx="377.5500" cy="24.4200" r="1.8000" />
</g>
<g style="fill:#FFFFFF; fill-opacity:1.0000; stroke:none;">
<circle cx="372.1000" cy="44.2800" r="0.7500" />
</g>
<g style="fill:#FFFFFF; fill-opacity:1.0000; stroke:none;">
<circle cx="377.5500" cy="44.2800" r="0.7500" />
</g>
<g style="fill:#FFFFFF; fill-opacity:1.0000; stroke:none;">
<circle cx="383.0000" cy="44.2800" r="0.7500" />
</g>
<g style="fill:#FFFFFF; fill-opacity:1.0000; stroke:none;">
<circle cx="405.7500" cy="28.3200" r="0.6000" />
</g>
<g style="fill:#FFFFFF; fill-opacity:1.0000; stroke:none;">
<circle cx="410.1900" cy="37.8500" r="0.6000" />
</g>
<g style="fill:#FFFFFF; fill-opacity:1.0000; stroke:none;">
<circle cx="457.0100" cy="19.0500" r="0.3500" />
</g>
<g style="fill:#FFFFFF; fill-opacity:1.0000; stroke:none;">
<circle cx="458.9100" cy="19.0500" r="0.3500" />
</g>
<g style="fill:#FFFFFF; fill-opacity:1.0000; stroke:none;">
<circle cx="478.9200" cy="19.0500" r="0.3500" />
</g>
<g style="fill:#FFFFFF; fill-opacity:1.0000; stroke:none;">
<circle cx="480.8200" cy="19.0500" r="0.3500" />
</g>
<g style="fill:#FFFFFF; fill-opacity:1.0000; stroke:none;">
<circle cx="500.8300" cy="19.0500" r="0.3500" />
</g>
<g style="fill:#FFFFFF; fill-opacity:1.0000; stroke:none;">
<circle cx="502.7300" cy="19.0500" r="0.3500" />
</g>
<g style="fill:#FFFFFF; fill-opacity:1.0000; stroke:none;">
<circle cx="522.7400" cy="19.0500" r="0.3500" />
</g>
<g style="fill:#FFFFFF; fill-opacity:1.0000; stroke:none;">
<circle cx="524.6400" cy="19.0500" r="0.3500" />
</g>
</svg>
