<?xml version="1.0" standalone="no"?>
 <!DOCTYPE svg PUBLIC "-//W3C//DTD SVG 1.1//EN" 
 "http://www.w3.org/Graphics/SVG/1.1/DTD/svg11.dtd"> 
<svg
  xmlns:svg="http://www.w3.org/2000/svg"
  xmlns="http://www.w3.org/2000/svg"
  xmlns:xlink="http://www.w3.org/1999/xlink"
  xmlns:inkscape="http://www.inkscape.org/namespaces/inkscape"
  version="1.1"
  width="1751.3046mm" height="294.9956mm" viewBox="0.0000 0.0000 1751.3046 294.9956">
<title>SVG Image created as back-copper.svg date 2026-06-11T13:49:33 </title>
  <desc>Image generated by PCBNEW </desc>
<g style="fill:#000000; fill-opacity:1.0000;stroke:#000000; stroke-opacity:1.0000;
stroke-linecap:round; stroke-linejoin:round;"
 transform="translate(0 0) scale(1 1)">
</g>
<g style="fill:#4D7FC4; fill-opacity:1.0000; stroke:none;">
<circle cx="26.0000" cy="28.0000" r="0.8000" /> 
<circle cx="28.5400" cy="28.0000" r="0.8000" /> 
<circle cx="93.0800" cy="28.0000" r="0.8000" /> 
<circle cx="95.6200" cy="28.0000" r="0.8000" /> 
<circle cx="98.1600" cy="28.0000" r="0.8000" /> 
<circle cx="100.7000" cy="28.0000" r="0.8000" /> 
<circle cx="165.2400" cy="28.0000" r="0.8000" /> 
<circle cx="167.7800" cy="28.0000" r="0.8000" /> 
<circle cx="232.3200" cy="28.0000" r="0.8000" /> 
<circle cx="234.8600" cy="28.0000" r="0.8000" /> 
<circle cx="299.4000" cy="28.0000" r="0.8000" /> 
<circle cx="301.9400" cy="28.0000" r="0.8000" /> 
<circle cx="366.4800" cy="28.0000" r="0.8000" /> 
<circle cx="369.0200" cy="28.0000" r="0.8000" /> 
<circle cx="433.5600" cy="28.0000" r="0.8000" /> 
<circle cx="436.1000" cy="28.0000" r="0.8000" /> 
<circle cx="438.6400" cy="28.0000" r="0.8000" /> 
<circle cx="503.1800" cy="28.0000" r="0.8000" /> 
<circle cx="505.7200" cy="28.0000" r="0.8000" /> 
<circle cx="570.2600" cy="28.0000" r="0.8000" /> 
<circle cx="572.8000" cy="28.0000" r="0.8000" /> 
<circle cx="637.3400" cy="28.0000" r="0.8000" /> 
<circle cx="639.8800" cy="28.0000" r="0.8000" /> 
<circle cx="704.4200" cy="28.0000" r="0.8000" /> 
<circle cx="706.9600" cy="28.0000" r="0.8000" /> 
<circle cx="771.5000" cy="28.0000" r="0.8000" /> 
<circle cx="774.0400" cy="28.0000" r="0.8000" /> 
<circle cx="838.5800" cy="28.0000" r="0.8000" /> 
<circle cx="841.1200" cy="28.0000" r="0.8000" /> 
<circle cx="905.6600" cy="28.0000" r="0.8000" /> 
<circle cx="908.2000" cy="28.0000" r="0.8000" /> 
<circle cx="972.7400" cy="28.0000" r="0.8000" /> 
<circle cx="975.2800" cy="28.0000" r="0.8000" /> 
<circle cx="1039.8200" cy="28.0000" r="0.8000" /> 
<circle cx="1042.3600" cy="28.0000" r="0.8000" /> 
<circle cx="1106.9000" cy="28.0000" r="0.8000" /> 
<circle cx="1109.4400" cy="28.0000" r="0.8000" /> 
<circle cx="1173.9800" cy="28.0000" r="0.8000" /> 
<circle cx="1176.5200" cy="28.0000" r="0.8000" /> 
<circle cx="1241.0600" cy="28.0000" r="0.8000" /> 
<circle cx="1243.6000" cy="28.0000" r="0.8000" /> 
<circle cx="1308.1400" cy="28.0000" r="0.8000" /> 
<circle cx="1310.6800" cy="28.0000" r="0.8000" /> 
<circle cx="1313.2200" cy="28.0000" r="0.8000" /> 
<circle cx="1377.7600" cy="28.0000" r="0.8000" /> 
<circle cx="1380.3000" cy="28.0000" r="0.8000" /> 
<circle cx="1382.8400" cy="28.0000" r="0.8000" /> 
<circle cx="1447.3800" cy="28.0000" r="0.8000" /> 
<circle cx="1449.9200" cy="28.0000" r="0.8000" /> 
<circle cx="1514.4600" cy="28.0000" r="0.8000" /> 
<circle cx="1517.0000" cy="28.0000" r="0.8000" /> 
<circle cx="1519.5400" cy="28.0000" r="0.8000" /> 
<circle cx="1584.0800" cy="28.0000" r="0.8000" /> 
<circle cx="1586.6200" cy="28.0000" r="0.8000" /> 
<circle cx="1651.1600" cy="28.0000" r="0.8000" /> 
<circle cx="1653.7000" cy="28.0000" r="0.8000" /> 
<circle cx="1718.2400" cy="28.0000" r="0.8000" /> 
<circle cx="1720.7800" cy="28.0000" r="0.8000" /> 
<circle cx="26.0000" cy="44.0000" r="0.4000" /> 
<circle cx="98.1600" cy="44.0000" r="0.4000" /> 
<circle cx="28.5400" cy="51.0000" r="0.4000" /> 
<circle cx="100.7000" cy="51.0000" r="0.4000" /> 
<circle cx="93.0800" cy="58.0000" r="0.4000" /> 
<circle cx="165.2400" cy="58.0000" r="0.4000" /> 
<circle cx="503.1800" cy="58.0000" r="0.4000" /> 
<circle cx="1447.3800" cy="58.0000" r="0.4000" /> 
<circle cx="1517.0000" cy="58.0000" r="0.4000" /> 
<circle cx="95.6200" cy="65.0000" r="0.4000" /> 
<circle cx="167.7800" cy="65.0000" r="0.4000" /> 
<circle cx="234.8600" cy="65.0000" r="0.4000" /> 
<circle cx="301.9400" cy="65.0000" r="0.4000" /> 
<circle cx="706.9600" cy="65.0000" r="0.4000" /> 
<circle cx="774.0400" cy="65.0000" r="0.4000" /> 
<circle cx="841.1200" cy="65.0000" r="0.4000" /> 
<circle cx="975.2800" cy="65.0000" r="0.4000" /> 
<circle cx="1109.4400" cy="65.0000" r="0.4000" /> 
<circle cx="1243.6000" cy="65.0000" r="0.4000" /> 
<circle cx="1586.6200" cy="65.0000" r="0.4000" /> 
<circle cx="1653.7000" cy="65.0000" r="0.4000" /> 
<circle cx="1720.7800" cy="65.0000" r="0.4000" /> 
<circle cx="232.3200" cy="72.0000" r="0.4000" /> 
<circle cx="299.4000" cy="72.0000" r="0.4000" /> 
<circle cx="366.4800" cy="72.0000" r="0.4000" /> 
<circle cx="369.0200" cy="79.0000" r="0.4000" /> 
<circle cx="438.6400" cy="79.0000" r="0.4000" /> 
<circle cx="433.5600" cy="86.0000" r="0.4000" /> 
<circle cx="505.7200" cy="86.0000" r="0.4000" /> 
<circle cx="570.2600" cy="86.0000" r="0.4000" /> 
<circle cx="436.1000" cy="93.0000" r="0.4000" /> 
<circle cx="771.5000" cy="93.0000" r="0.4000" /> 
<circle cx="838.5800" cy="93.0000" r="0.4000" /> 
<circle cx="572.8000" cy="100.0000" r="0.4000" /> 
<circle cx="637.3400" cy="100.0000" r="0.4000" /> 
<circle cx="905.6600" cy="100.0000" r="0.4000" /> 
<circle cx="1039.8200" cy="100.0000" r="0.4000" /> 
<circle cx="639.8800" cy="107.0000" r="0.4000" /> 
<circle cx="704.4200" cy="107.0000" r="0.4000" /> 
<circle cx="908.2000" cy="107.0000" r="0.4000" /> 
<circle cx="972.7400" cy="107.0000" r="0.4000" /> 
<circle cx="1042.3600" cy="107.0000" r="0.4000" /> 
<circle cx="1106.9000" cy="107.0000" r="0.4000" /> 
<circle cx="1173.9800" cy="107.0000" r="0.4000" /> 
<circle cx="1176.5200" cy="114.0000" r="0.4000" /> 
<circle cx="1241.0600" cy="114.0000" r="0.4000" /> 
<circle cx="1310.6800" cy="114.0000" r="0.4000" /> 
<circle cx="1377.7600" cy="114.0000" r="0.4000" /> 
<circle cx="1308.1400" cy="121.0000" r="0.4000" /> 
<circle cx="1313.2200" cy="121.0000" r="0.4000" /> 
<circle cx="1380.3000" cy="128.0000" r="0.4000" /> 
<circle cx="1449.9200" cy="128.0000" r="0.4000" /> 
<circle cx="1514.4600" cy="128.0000" r="0.4000" /> 
<circle cx="1382.8400" cy="135.0000" r="0.4000" /> 
<circle cx="1651.1600" cy="135.0000" r="0.4000" /> 
<circle cx="1519.5400" cy="142.0000" r="0.4000" /> 
<circle cx="1584.0800" cy="142.0000" r="0.4000" /> 
<circle cx="1718.2400" cy="142.0000" r="0.4000" /> 
</g>
<g style="fill:none; 
stroke:#4D7FC4; stroke-width:0.2500; stroke-opacity:1; 
stroke-linecap:round; stroke-linejoin:round;">
<path d="M26.0000 44.0000
L98.1600 44.0000
" />
<path d="M28.5400 51.0000
L100.7000 51.0000
" />
<path d="M93.0800 58.0000
L165.2400 58.0000
" />
<path d="M165.2400 58.0000
L503.1800 58.0000
" />
<path d="M503.1800 58.0000
L1447.3800 58.0000
" />
<path d="M1447.3800 58.0000
L1517.0000 58.0000
" />
<path d="M95.6200 65.0000
L167.7800 65.0000
" />
<path d="M167.7800 65.0000
L234.8600 65.0000
" />
<path d="M234.8600 65.0000
L301.9400 65.0000
" />
<path d="M301.9400 65.0000
L706.9600 65.0000
" />
<path d="M706.9600 65.0000
L774.0400 65.0000
" />
<path d="M774.0400 65.0000
L841.1200 65.0000
" />
<path d="M841.1200 65.0000
L975.2800 65.0000
" />
<path d="M975.2800 65.0000
L1109.4400 65.0000
" />
<path d="M1109.4400 65.0000
L1243.6000 65.0000
" />
<path d="M1243.6000 65.0000
L1586.6200 65.0000
" />
<path d="M1586.6200 65.0000
L1653.7000 65.0000
" />
<path d="M1653.7000 65.0000
L1720.7800 65.0000
" />
<path d="M232.3200 72.0000
L299.4000 72.0000
" />
<path d="M299.4000 72.0000
L366.4800 72.0000
" />
<path d="M369.0200 79.0000
L438.6400 79.0000
" />
<path d="M433.5600 86.0000
L505.7200 86.0000
" />
<path d="M505.7200 86.0000
L570.2600 86.0000
" />
<path d="M436.1000 93.0000
L771.5000 93.0000
" />
<path d="M771.5000 93.0000
L838.5800 93.0000
" />
<path d="M572.8000 100.0000
L637.3400 100.0000
" />
<path d="M637.3400 100.0000
L905.6600 100.0000
" />
<path d="M905.6600 100.0000
L1039.8200 100.0000
" />
<path d="M639.8800 107.0000
L704.4200 107.0000
" />
<path d="M704.4200 107.0000
L908.2000 107.0000
" />
<path d="M908.2000 107.0000
L972.7400 107.0000
" />
<path d="M972.7400 107.0000
L1042.3600 107.0000
" />
<path d="M1042.3600 107.0000
L1106.9000 107.0000
" />
<path d="M1106.9000 107.0000
L1173.9800 107.0000
" />
<path d="M1176.5200 114.0000
L1241.0600 114.0000
" />
<path d="M1241.0600 114.0000
L1310.6800 114.0000
" />
<path d="M1310.6800 114.0000
L1377.7600 114.0000
" />
<path d="M1308.1400 121.0000
L1313.2200 121.0000
" />
<path d="M1380.3000 128.0000
L1449.9200 128.0000
" />
<path d="M1449.9200 128.0000
L1514.4600 128.0000
" />
<path d="M1382.8400 135.0000
L1651.1600 135.0000
" />
<path d="M1519.5400 142.0000
L1584.0800 142.0000
" />
<path d="M1584.0800 142.0000
L1718.2400 142.0000
" />
<path style="fill:none; 
stroke:#D0D2CD; stroke-width:0.1000; stroke-opacity:1; 
stroke-linecap:round; stroke-linejoin:round;fill:none"
d="M 0.0000,0.0000
1751.3200,0.0000
1751.3200,295.0000
0.0000,295.0000
Z" /> 
</g>
<g style="fill:#FFFFFF; fill-opacity:1.0000; stroke:none;">
<circle cx="26.0000" cy="44.0000" r="0.2000" /> 
<circle cx="98.1600" cy="44.0000" r="0.2000" /> 
<circle cx="28.5400" cy="51.0000" r="0.2000" /> 
<circle cx="100.7000" cy="51.0000" r="0.2000" /> 
<circle cx="93.0800" cy="58.0000" r="0.2000" /> 
<circle cx="165.2400" cy="58.0000" r="0.2000" /> 
<circle cx="503.1800" cy="58.0000" r="0.2000" /> 
<circle cx="1447.3800" cy="58.0000" r="0.2000" /> 
<circle cx="1517.0000" cy="58.0000" r="0.2000" /> 
<circle cx="95.6200" cy="65.0000" r="0.2000" /> 
<circle cx="167.7800" cy="65.0000" r="0.2000" /> 
<circle cx="234.8600" cy="65.0000" r="0.2000" /> 
<circle cx="301.9400" cy="65.0000" r="0.2000" /> 
<circle cx="706.9600" cy="65.0000" r="0.2000" /> 
<circle cx="774.0400" cy="65.0000" r="0.2000" /> 
<circle cx="841.1200" cy="65.0000" r="0.2000" /> 
<circle cx="975.2800" cy="65.0000" r="0.2000" /> 
<circle cx="1109.4400" cy="65.0000" r="0.2000" /> 
<circle cx="1243.6000" cy="65.0000" r="0.2000" /> 
<circle cx="1586.6200" cy="65.0000" r="0.2000" /> 
<circle cx="1653.7000" cy="65.0000" r="0.2000" /> 
<circle cx="1720.7800" cy="65.0000" r="0.2000" /> 
<circle cx="232.3200" cy="72.0000" r="0.2000" /> 
<circle cx="299.4000" cy="72.0000" r="0.2000" /> 
<circle cx="366.4800" cy="72.0000" r="0.2000" /> 
<circle cx="369.0200" cy="79.0000" r="0.2000" /> 
<circle cx="438.6400" cy="79.0000" r="0.2000" /> 
<circle cx="433.5600" cy="86.0000" r="0.2000" /> 
<circle cx="505.7200" cy="86.0000" r="0.2000" /> 
<circle cx="570.2600" cy="86.0000" r="0.2000" /> 
<circle cx="436.1000" cy="93.0000" r="0.2000" /> 
<circle cx="771.5000" cy="93.0000" r="0.2000" /> 
<circle cx="838.5800" cy="93.0000" r="0.2000" /> 
<circle cx="572.8000" cy="100.0000" r="0.2000" /> 
<circle cx="637.3400" cy="100.0000" r="0.2000" /> 
<circle cx="905.6600" cy="100.0000" r="0.2000" /> 
<circle cx="1039.8200" cy="100.0000" r="0.2000" /> 
<circle cx="639.8800" cy="107.0000" r="0.2000" /> 
<circle cx="704.4200" cy="107.0000" r="0.2000" /> 
<circle cx="908.2000" cy="107.0000" r="0.2000" /> 
<circle cx="972.7400" cy="107.0000" r="0.2000" /> 
<circle cx="1042.3600" cy="107.0000" r="0.2000" /> 
<circle cx="1106.9000" cy="107.0000" r="0.2000" /> 
<circle cx="1173.9800" cy="107.0000" r="0.2000" /> 
<circle cx="1176.5200" cy="114.0000" r="0.2000" /> 
<circle cx="1241.0600" cy="114.0000" r="0.2000" /> 
<circle cx="1310.6800" cy="114.0000" r="0.2000" /> 
<circle cx="1377.7600" cy="114.0000" r="0.2000" /> 
<circle cx="1308.1400" cy="121.0000" r="0.2000" /> 
<circle cx="1313.2200" cy="121.0000" r="0.2000" /> 
<circle cx="1380.3000" cy="128.0000" r="0.2000" /> 
<circle cx="1449.9200" cy="128.0000" r="0.2000" /> 
<circle cx="1514.4600" cy="128.0000" r="0.2000" /> 
<circle cx="1382.8400" cy="135.0000" r="0.2000" /> 
<circle cx="1651.1600" cy="135.0000" r="0.2000" /> 
<circle cx="1519.5400" cy="142.0000" r="0.2000" /> 
<circle cx="1584.0800" cy="142.0000" r="0.2000" /> 
<circle cx="1718.2400" cy="142.0000" r="0.2000" /> 
</g>
<g style="fill:#FFFFFF; fill-opacity:1.0000; stroke:none;">
<circle cx="26.0000" cy="28.0000" r="0.4000" /> 
</g>
<g style="fill:#FFFFFF; fill-opacity:1.0000; stroke:none;">
<circle cx="28.5400" cy="28.0000" r="0.4000" /> 
</g>
<g style="fill:#FFFFFF; fill-opacity:1.0000; stroke:none;">
<circle cx="93.0800" cy="28.0000" r="0.4000" /> 
</g>
<g style="fill:#FFFFFF; fill-opacity:1.0000; stroke:none;">
<circle cx="95.6200" cy="28.0000" r="0.4000" /> 
</g>
<g style="fill:#FFFFFF; fill-opacity:1.0000; stroke:none;">
<circle cx="98.1600" cy="28.0000" r="0.4000" /> 
</g>
<g style="fill:#FFFFFF; fill-opacity:1.0000; stroke:none;">
<circle cx="100.7000" cy="28.0000" r="0.4000" /> 
</g>
<g style="fill:#FFFFFF; fill-opacity:1.0000; stroke:none;">
<circle cx="165.2400" cy="28.0000" r="0.4000" /> 
</g>
<g style="fill:#FFFFFF; fill-opacity:1.0000; stroke:none;">
<circle cx="167.7800" cy="28.0000" r="0.4000" /> 
</g>
<g style="fill:#FFFFFF; fill-opacity:1.0000; stroke:none;">
<circle cx="232.3200" cy="28.0000" r="0.4000" /> 
</g>
<g style="fill:#FFFFFF; fill-opacity:1.0000; stroke:none;">
<circle cx="234.8600" cy="28.0000" r="0.4000" /> 
</g>
<g style="fill:#FFFFFF; fill-opacity:1.0000; stroke:none;">
<circle cx="299.4000" cy="28.0000" r="0.4000" /> 
</g>
<g style="fill:#FFFFFF; fill-opacity:1.0000; stroke:none;">
<circle cx="301.9400" cy="28.0000" r="0.4000" /> 
</g>
<g style="fill:#FFFFFF; fill-opacity:1.0000; stroke:none;">
<circle cx="366.4800" cy="28.0000" r="0.4000" /> 
</g>
<g style="fill:#FFFFFF; fill-opacity:1.0000; stroke:none;">
<circle cx="369.0200" cy="28.0000" r="0.4000" /> 
</g>
<g style="fill:#FFFFFF; fill-opacity:1.0000; stroke:none;">
<circle cx="433.5600" cy="28.0000" r="0.4000" /> 
</g>
<g style="fill:#FFFFFF; fill-opacity:1.0000; stroke:none;">
<circle cx="436.1000" cy="28.0000" r="0.4000" /> 
</g>
<g style="fill:#FFFFFF; fill-opacity:1.0000; stroke:none;">
<circle cx="438.6400" cy="28.0000" r="0.4000" /> 
</g>
<g style="fill:#FFFFFF; fill-opacity:1.0000; stroke:none;">
<circle cx="503.1800" cy="28.0000" r="0.4000" /> 
</g>
<g style="fill:#FFFFFF; fill-opacity:1.0000; stroke:none;">
<circle cx="505.7200" cy="28.0000" r="0.4000" /> 
</g>
<g style="fill:#FFFFFF; fill-opacity:1.0000; stroke:none;">
<circle cx="570.2600" cy="28.0000" r="0.4000" /> 
</g>
<g style="fill:#FFFFFF; fill-opacity:1.0000; stroke:none;">
<circle cx="572.8000" cy="28.0000" r="0.4000" /> 
</g>
<g style="fill:#FFFFFF; fill-opacity:1.0000; stroke:none;">
<circle cx="637.3400" cy="28.0000" r="0.4000" /> 
</g>
<g style="fill:#FFFFFF; fill-opacity:1.0000; stroke:none;">
<circle cx="639.8800" cy="28.0000" r="0.4000" /> 
</g>
<g style="fill:#FFFFFF; fill-opacity:1.0000; stroke:none;">
<circle cx="704.4200" cy="28.0000" r="0.4000" /> 
</g>
<g style="fill:#FFFFFF; fill-opacity:1.0000; stroke:none;">
<circle cx="706.9600" cy="28.0000" r="0.4000" /> 
</g>
<g style="fill:#FFFFFF; fill-opacity:1.0000; stroke:none;">
<circle cx="771.5000" cy="28.0000" r="0.4000" /> 
</g>
<g style="fill:#FFFFFF; fill-opacity:1.0000; stroke:none;">
<circle cx="774.0400" cy="28.0000" r="0.4000" /> 
</g>
<g style="fill:#FFFFFF; fill-opacity:1.0000; stroke:none;">
<circle cx="838.5800" cy="28.0000" r="0.4000" /> 
</g>
<g style="fill:#FFFFFF; fill-opacity:1.0000; stroke:none;">
<circle cx="841.1200" cy="28.0000" r="0.4000" /> 
</g>
<g style="fill:#FFFFFF; fill-opacity:1.0000; stroke:none;">
<circle cx="905.6600" cy="28.0000" r="0.4000" /> 
</g>
<g style="fill:#FFFFFF; fill-opacity:1.0000; stroke:none;">
<circle cx="908.2000" cy="28.0000" r="0.4000" /> 
</g>
<g style="fill:#FFFFFF; fill-opacity:1.0000; stroke:none;">
<circle cx="972.7400" cy="28.0000" r="0.4000" /> 
</g>
<g style="fill:#FFFFFF; fill-opacity:1.0000; stroke:none;">
<circle cx="975.2800" cy="28.0000" r="0.4000" /> 
</g>
<g style="fill:#FFFFFF; fill-opacity:1.0000; stroke:none;">
<circle cx="1039.8200" cy="28.0000" r="0.4000" /> 
</g>
<g style="fill:#FFFFFF; fill-opacity:1.0000; stroke:none;">
<circle cx="1042.3600" cy="28.0000" r="0.4000" /> 
</g>
<g style="fill:#FFFFFF; fill-opacity:1.0000; stroke:none;">
<circle cx="1106.9000" cy="28.0000" r="0.4000" /> 
</g>
<g style="fill:#FFFFFF; fill-opacity:1.0000; stroke:none;">
<circle cx="1109.4400" cy="28.0000" r="0.4000" /> 
</g>
<g style="fill:#FFFFFF; fill-opacity:1.0000; stroke:none;">
<circle cx="1173.9800" cy="28.0000" r="0.4000" /> 
</g>
<g style="fill:#FFFFFF; fill-opacity:1.0000; stroke:none;">
<circle cx="1176.5200" cy="28.0000" r="0.4000" /> 
</g>
<g style="fill:#FFFFFF; fill-opacity:1.0000; stroke:none;">
<circle cx="1241.0600" cy="28.0000" r="0.4000" /> 
</g>
<g style="fill:#FFFFFF; fill-opacity:1.0000; stroke:none;">
<circle cx="1243.6000" cy="28.0000" r="0.4000" /> 
</g>
<g style="fill:#FFFFFF; fill-opacity:1.0000; stroke:none;">
<circle cx="1308.1400" cy="28.0000" r="0.4000" /> 
</g>
<g style="fill:#FFFFFF; fill-opacity:1.0000; stroke:none;">
<circle cx="1310.6800" cy="28.0000" r="0.4000" /> 
</g>
<g style="fill:#FFFFFF; fill-opacity:1.0000; stroke:none;">
<circle cx="1313.2200" cy="28.0000" r="0.4000" /> 
</g>
<g style="fill:#FFFFFF; fill-opacity:1.0000; stroke:none;">
<circle cx="1377.7600" cy="28.0000" r="0.4000" /> 
</g>
<g style="fill:#FFFFFF; fill-opacity:1.0000; stroke:none;">
<circle cx="1380.3000" cy="28.0000" r="0.4000" /> 
</g>
<g style="fill:#FFFFFF; fill-opacity:1.0000; stroke:none;">
<circle cx="1382.8400" cy="28.0000" r="0.4000" /> 
</g>
<g style="fill:#FFFFFF; fill-opacity:1.0000; stroke:none;">
<circle cx="1447.3800" cy="28.0000" r="0.4000" /> 
</g>
<g style="fill:#FFFFFF; fill-opacity:1.0000; stroke:none;">
<circle cx="1449.9200" cy="28.0000" r="0.4000" /> 
</g>
<g style="fill:#FFFFFF; fill-opacity:1.0000; stroke:none;">
<circle cx="1514.4600" cy="28.0000" r="0.4000" /> 
</g>
<g style="fill:#FFFFFF; fill-opacity:1.0000; stroke:none;">
<circle cx="1517.0000" cy="28.0000" r="0.4000" /> 
</g>
<g style="fill:#FFFFFF; fill-opacity:1.0000; stroke:none;">
<circle cx="1519.5400" cy="28.0000" r="0.4000" /> 
</g>
<g style="fill:#FFFFFF; fill-opacity:1.0000; stroke:none;">
<circle cx="1584.0800" cy="28.0000" r="0.4000" /> 
</g>
<g style="fill:#FFFFFF; fill-opacity:1.0000; stroke:none;">
<circle cx="1586.6200" cy="28.0000" r="0.4000" /> 
</g>
<g style="fill:#FFFFFF; fill-opacity:1.0000; stroke:none;">
<circle cx="1651.1600" cy="28.0000" r="0.4000" /> 
</g>
<g style="fill:#FFFFFF; fill-opacity:1.0000; stroke:none;">
<circle cx="1653.7000" cy="28.0000" r="0.4000" /> 
</g>
<g style="fill:#FFFFFF; fill-opacity:1.0000; stroke:none;">
<circle cx="1718.2400" cy="28.0000" r="0.4000" /> 
</g>
<g style="fill:#FFFFFF; fill-opacity:1.0000; stroke:none;">
<circle cx="1720.7800" cy="28.0000" r="0.4000" /> 
</g> 
</svg>
