<?xml version="1.0" standalone="no"?>
 <!DOCTYPE svg PUBLIC "-//W3C//DTD SVG 1.1//EN" 
 "http://www.w3.org/Graphics/SVG/1.1/DTD/svg11.dtd"> 
<svg
  xmlns:svg="http://www.w3.org/2000/svg"
  xmlns="http://www.w3.org/2000/svg"
  xmlns:xlink="http://www.w3.org/1999/xlink"
  xmlns:inkscape="http://www.inkscape.org/namespaces/inkscape"
  version="1.1"
  width="1751.3046mm" height="294.9956mm" viewBox="0.0000 0.0000 1751.3046 294.9956">
<title>SVG Image created as routed-composite.svg date 2026-06-11T13:49:32 </title>
  <desc>Image generated by PCBNEW </desc>
<g style="fill:#000000; fill-opacity:1.0000;stroke:#000000; stroke-opacity:1.0000;
stroke-linecap:round; stroke-linejoin:round;"
 transform="translate(0 0) scale(1 1)">
</g>
<g style="fill:#C83434; fill-opacity:1.0000; stroke:none;">
<circle cx="26.0000" cy="28.0000" r="0.8000" /> 
<circle cx="28.5400" cy="28.0000" r="0.8000" /> 
<circle cx="93.0800" cy="28.0000" r="0.8000" /> 
<circle cx="95.6200" cy="28.0000" r="0.8000" /> 
<circle cx="98.1600" cy="28.0000" r="0.8000" /> 
<circle cx="100.7000" cy="28.0000" r="0.8000" /> 
<circle cx="165.2400" cy="28.0000" r="0.8000" /> 
<circle cx="167.7800" cy="28.0000" r="0.8000" /> 
<circle cx="232.3200" cy="28.0000" r="0.8000" /> 
<circle cx="234.8600" cy="28.0000" r="0.8000" /> 
<circle cx="299.4000" cy="28.0000" r="0.8000" /> 
<circle cx="301.9400" cy="28.0000" r="0.8000" /> 
<circle cx="366.4800" cy="28.0000" r="0.8000" /> 
<circle cx="369.0200" cy="28.0000" r="0.8000" /> 
<circle cx="433.5600" cy="28.0000" r="0.8000" /> 
<circle cx="436.1000" cy="28.0000" r="0.8000" /> 
<circle cx="438.6400" cy="28.0000" r="0.8000" /> 
<circle cx="503.1800" cy="28.0000" r="0.8000" /> 
<circle cx="505.7200" cy="28.0000" r="0.8000" /> 
<circle cx="570.2600" cy="28.0000" r="0.8000" /> 
<circle cx="572.8000" cy="28.0000" r="0.8000" /> 
<circle cx="637.3400" cy="28.0000" r="0.8000" /> 
<circle cx="639.8800" cy="28.0000" r="0.8000" /> 
<circle cx="704.4200" cy="28.0000" r="0.8000" /> 
<circle cx="706.9600" cy="28.0000" r="0.8000" /> 
<circle cx="771.5000" cy="28.0000" r="0.8000" /> 
<circle cx="774.0400" cy="28.0000" r="0.8000" /> 
<circle cx="838.5800" cy="28.0000" r="0.8000" /> 
<circle cx="841.1200" cy="28.0000" r="0.8000" /> 
<circle cx="905.6600" cy="28.0000" r="0.8000" /> 
<circle cx="908.2000" cy="28.0000" r="0.8000" /> 
<circle cx="972.7400" cy="28.0000" r="0.8000" /> 
<circle cx="975.2800" cy="28.0000" r="0.8000" /> 
<circle cx="1039.8200" cy="28.0000" r="0.8000" /> 
<circle cx="1042.3600" cy="28.0000" r="0.8000" /> 
<circle cx="1106.9000" cy="28.0000" r="0.8000" /> 
<circle cx="1109.4400" cy="28.0000" r="0.8000" /> 
<circle cx="1173.9800" cy="28.0000" r="0.8000" /> 
<circle cx="1176.5200" cy="28.0000" r="0.8000" /> 
<circle cx="1241.0600" cy="28.0000" r="0.8000" /> 
<circle cx="1243.6000" cy="28.0000" r="0.8000" /> 
<circle cx="1308.1400" cy="28.0000" r="0.8000" /> 
<circle cx="1310.6800" cy="28.0000" r="0.8000" /> 
<circle cx="1313.2200" cy="28.0000" r="0.8000" /> 
<circle cx="1377.7600" cy="28.0000" r="0.8000" /> 
<circle cx="1380.3000" cy="28.0000" r="0.8000" /> 
<circle cx="1382.8400" cy="28.0000" r="0.8000" /> 
<circle cx="1447.3800" cy="28.0000" r="0.8000" /> 
<circle cx="1449.9200" cy="28.0000" r="0.8000" /> 
<circle cx="1514.4600" cy="28.0000" r="0.8000" /> 
<circle cx="1517.0000" cy="28.0000" r="0.8000" /> 
<circle cx="1519.5400" cy="28.0000" r="0.8000" /> 
<circle cx="1584.0800" cy="28.0000" r="0.8000" /> 
<circle cx="1586.6200" cy="28.0000" r="0.8000" /> 
<circle cx="1651.1600" cy="28.0000" r="0.8000" /> 
<circle cx="1653.7000" cy="28.0000" r="0.8000" /> 
<circle cx="1718.2400" cy="28.0000" r="0.8000" /> 
<circle cx="1720.7800" cy="28.0000" r="0.8000" /> 
<circle cx="26.0000" cy="44.0000" r="0.4000" /> 
<circle cx="98.1600" cy="44.0000" r="0.4000" /> 
<circle cx="28.5400" cy="51.0000" r="0.4000" /> 
<circle cx="100.7000" cy="51.0000" r="0.4000" /> 
<circle cx="93.0800" cy="58.0000" r="0.4000" /> 
<circle cx="165.2400" cy="58.0000" r="0.4000" /> 
<circle cx="503.1800" cy="58.0000" r="0.4000" /> 
<circle cx="1447.3800" cy="58.0000" r="0.4000" /> 
<circle cx="1517.0000" cy="58.0000" r="0.4000" /> 
<circle cx="95.6200" cy="65.0000" r="0.4000" /> 
<circle cx="167.7800" cy="65.0000" r="0.4000" /> 
<circle cx="234.8600" cy="65.0000" r="0.4000" /> 
<circle cx="301.9400" cy="65.0000" r="0.4000" /> 
<circle cx="706.9600" cy="65.0000" r="0.4000" /> 
<circle cx="774.0400" cy="65.0000" r="0.4000" /> 
<circle cx="841.1200" cy="65.0000" r="0.4000" /> 
<circle cx="975.2800" cy="65.0000" r="0.4000" /> 
<circle cx="1109.4400" cy="65.0000" r="0.4000" /> 
<circle cx="1243.6000" cy="65.0000" r="0.4000" /> 
<circle cx="1586.6200" cy="65.0000" r="0.4000" /> 
<circle cx="1653.7000" cy="65.0000" r="0.4000" /> 
<circle cx="1720.7800" cy="65.0000" r="0.4000" /> 
<circle cx="232.3200" cy="72.0000" r="0.4000" /> 
<circle cx="299.4000" cy="72.0000" r="0.4000" /> 
<circle cx="366.4800" cy="72.0000" r="0.4000" /> 
<circle cx="369.0200" cy="79.0000" r="0.4000" /> 
<circle cx="438.6400" cy="79.0000" r="0.4000" /> 
<circle cx="433.5600" cy="86.0000" r="0.4000" /> 
<circle cx="505.7200" cy="86.0000" r="0.4000" /> 
<circle cx="570.2600" cy="86.0000" r="0.4000" /> 
<circle cx="436.1000" cy="93.0000" r="0.4000" /> 
<circle cx="771.5000" cy="93.0000" r="0.4000" /> 
<circle cx="838.5800" cy="93.0000" r="0.4000" /> 
<circle cx="572.8000" cy="100.0000" r="0.4000" /> 
<circle cx="637.3400" cy="100.0000" r="0.4000" /> 
<circle cx="905.6600" cy="100.0000" r="0.4000" /> 
<circle cx="1039.8200" cy="100.0000" r="0.4000" /> 
<circle cx="639.8800" cy="107.0000" r="0.4000" /> 
<circle cx="704.4200" cy="107.0000" r="0.4000" /> 
<circle cx="908.2000" cy="107.0000" r="0.4000" /> 
<circle cx="972.7400" cy="107.0000" r="0.4000" /> 
<circle cx="1042.3600" cy="107.0000" r="0.4000" /> 
<circle cx="1106.9000" cy="107.0000" r="0.4000" /> 
<circle cx="1173.9800" cy="107.0000" r="0.4000" /> 
<circle cx="1176.5200" cy="114.0000" r="0.4000" /> 
<circle cx="1241.0600" cy="114.0000" r="0.4000" /> 
<circle cx="1310.6800" cy="114.0000" r="0.4000" /> 
<circle cx="1377.7600" cy="114.0000" r="0.4000" /> 
<circle cx="1308.1400" cy="121.0000" r="0.4000" /> 
<circle cx="1313.2200" cy="121.0000" r="0.4000" /> 
<circle cx="1380.3000" cy="128.0000" r="0.4000" /> 
<circle cx="1449.9200" cy="128.0000" r="0.4000" /> 
<circle cx="1514.4600" cy="128.0000" r="0.4000" /> 
<circle cx="1382.8400" cy="135.0000" r="0.4000" /> 
<circle cx="1651.1600" cy="135.0000" r="0.4000" /> 
<circle cx="1519.5400" cy="142.0000" r="0.4000" /> 
<circle cx="1584.0800" cy="142.0000" r="0.4000" /> 
<circle cx="1718.2400" cy="142.0000" r="0.4000" /> 
</g>
<g style="fill:none; 
stroke:#C83434; stroke-width:0.2500; stroke-opacity:1; 
stroke-linecap:round; stroke-linejoin:round;">
<path d="M26.0000 28.0000
L26.0000 35.0000
" />
<path d="M26.0000 35.0000
L26.0000 44.0000
" />
<path d="M98.1600 28.0000
L98.1600 35.0000
" />
<path d="M98.1600 35.0000
L98.1600 44.0000
" />
<path d="M28.5400 28.0000
L28.5400 35.0000
" />
<path d="M28.5400 35.0000
L28.5400 51.0000
" />
<path d="M100.7000 28.0000
L100.7000 35.0000
" />
<path d="M100.7000 35.0000
L100.7000 51.0000
" />
<path d="M93.0800 28.0000
L93.0800 35.0000
" />
<path d="M93.0800 35.0000
L93.0800 58.0000
" />
<path d="M165.2400 28.0000
L165.2400 35.0000
" />
<path d="M165.2400 35.0000
L165.2400 58.0000
" />
<path d="M503.1800 28.0000
L503.1800 35.0000
" />
<path d="M503.1800 35.0000
L503.1800 58.0000
" />
<path d="M1447.3800 28.0000
L1447.3800 35.0000
" />
<path d="M1447.3800 35.0000
L1447.3800 58.0000
" />
<path d="M1517.0000 28.0000
L1517.0000 35.0000
" />
<path d="M1517.0000 35.0000
L1517.0000 58.0000
" />
<path d="M95.6200 28.0000
L95.6200 35.0000
" />
<path d="M95.6200 35.0000
L95.6200 65.0000
" />
<path d="M167.7800 28.0000
L167.7800 35.0000
" />
<path d="M167.7800 35.0000
L167.7800 65.0000
" />
<path d="M234.8600 28.0000
L234.8600 35.0000
" />
<path d="M234.8600 35.0000
L234.8600 65.0000
" />
<path d="M301.9400 28.0000
L301.9400 35.0000
" />
<path d="M301.9400 35.0000
L301.9400 65.0000
" />
<path d="M706.9600 28.0000
L706.9600 35.0000
" />
<path d="M706.9600 35.0000
L706.9600 65.0000
" />
<path d="M774.0400 28.0000
L774.0400 35.0000
" />
<path d="M774.0400 35.0000
L774.0400 65.0000
" />
<path d="M841.1200 28.0000
L841.1200 35.0000
" />
<path d="M841.1200 35.0000
L841.1200 65.0000
" />
<path d="M975.2800 28.0000
L975.2800 35.0000
" />
<path d="M975.2800 35.0000
L975.2800 65.0000
" />
<path d="M1109.4400 28.0000
L1109.4400 35.0000
" />
<path d="M1109.4400 35.0000
L1109.4400 65.0000
" />
<path d="M1243.6000 28.0000
L1243.6000 35.0000
" />
<path d="M1243.6000 35.0000
L1243.6000 65.0000
" />
<path d="M1586.6200 28.0000
L1586.6200 35.0000
" />
<path d="M1586.6200 35.0000
L1586.6200 65.0000
" />
<path d="M1653.7000 28.0000
L1653.7000 35.0000
" />
<path d="M1653.7000 35.0000
L1653.7000 65.0000
" />
<path d="M1720.7800 28.0000
L1720.7800 35.0000
" />
<path d="M1720.7800 35.0000
L1720.7800 65.0000
" />
<path d="M232.3200 28.0000
L232.3200 35.0000
" />
<path d="M232.3200 35.0000
L232.3200 72.0000
" />
<path d="M299.4000 28.0000
L299.4000 35.0000
" />
<path d="M299.4000 35.0000
L299.4000 72.0000
" />
<path d="M366.4800 28.0000
L366.4800 35.0000
" />
<path d="M366.4800 35.0000
L366.4800 72.0000
" />
<path d="M369.0200 28.0000
L369.0200 35.0000
" />
<path d="M369.0200 35.0000
L369.0200 79.0000
" />
<path d="M438.6400 28.0000
L438.6400 35.0000
" />
<path d="M438.6400 35.0000
L438.6400 79.0000
" />
<path d="M433.5600 28.0000
L433.5600 35.0000
" />
<path d="M433.5600 35.0000
L433.5600 86.0000
" />
<path d="M505.7200 28.0000
L505.7200 35.0000
" />
<path d="M505.7200 35.0000
L505.7200 86.0000
" />
<path d="M570.2600 28.0000
L570.2600 35.0000
" />
<path d="M570.2600 35.0000
L570.2600 86.0000
" />
<path d="M436.1000 28.0000
L436.1000 35.0000
" />
<path d="M436.1000 35.0000
L436.1000 93.0000
" />
<path d="M771.5000 28.0000
L771.5000 35.0000
" />
<path d="M771.5000 35.0000
L771.5000 93.0000
" />
<path d="M838.5800 28.0000
L838.5800 35.0000
" />
<path d="M838.5800 35.0000
L838.5800 93.0000
" />
<path d="M572.8000 28.0000
L572.8000 35.0000
" />
<path d="M572.8000 35.0000
L572.8000 100.0000
" />
<path d="M637.3400 28.0000
L637.3400 35.0000
" />
<path d="M637.3400 35.0000
L637.3400 100.0000
" />
<path d="M905.6600 28.0000
L905.6600 35.0000
" />
<path d="M905.6600 35.0000
L905.6600 100.0000
" />
<path d="M1039.8200 28.0000
L1039.8200 35.0000
" />
<path d="M1039.8200 35.0000
L1039.8200 100.0000
" />
<path d="M639.8800 28.0000
L639.8800 35.0000
" />
<path d="M639.8800 35.0000
L639.8800 107.0000
" />
<path d="M704.4200 28.0000
L704.4200 35.0000
" />
<path d="M704.4200 35.0000
L704.4200 107.0000
" />
<path d="M908.2000 28.0000
L908.2000 35.0000
" />
<path d="M908.2000 35.0000
L908.2000 107.0000
" />
<path d="M972.7400 28.0000
L972.7400 35.0000
" />
<path d="M972.7400 35.0000
L972.7400 107.0000
" />
<path d="M1042.3600 28.0000
L1042.3600 35.0000
" />
<path d="M1042.3600 35.0000
L1042.3600 107.0000
" />
<path d="M1106.9000 28.0000
L1106.9000 35.0000
" />
<path d="M1106.9000 35.0000
L1106.9000 107.0000
" />
<path d="M1173.9800 28.0000
L1173.9800 35.0000
" />
<path d="M1173.9800 35.0000
L1173.9800 107.0000
" />
<path d="M1176.5200 28.0000
L1176.5200 35.0000
" />
<path d="M1176.5200 35.0000
L1176.5200 114.0000
" />
<path d="M1241.0600 28.0000
L1241.0600 35.0000
" />
<path d="M1241.0600 35.0000
L1241.0600 114.0000
" />
<path d="M1310.6800 28.0000
L1310.6800 35.0000
" />
<path d="M1310.6800 35.0000
L1310.6800 114.0000
" />
<path d="M1377.7600 28.0000
L1377.7600 35.0000
" />
<path d="M1377.7600 35.0000
L1377.7600 114.0000
" />
<path d="M1308.1400 28.0000
L1308.1400 35.0000
" />
<path d="M1308.1400 35.0000
L1308.1400 121.0000
" />
<path d="M1313.2200 28.0000
L1313.2200 35.0000
" />
<path d="M1313.2200 35.0000
L1313.2200 121.0000
" />
<path d="M1380.3000 28.0000
L1380.3000 35.0000
" />
<path d="M1380.3000 35.0000
L1380.3000 128.0000
" />
<path d="M1449.9200 28.0000
L1449.9200 35.0000
" />
<path d="M1449.9200 35.0000
L1449.9200 128.0000
" />
<path d="M1514.4600 28.0000
L1514.4600 35.0000
" />
<path d="M1514.4600 35.0000
L1514.4600 128.0000
" />
<path d="M1382.8400 28.0000
L1382.8400 35.0000
" />
<path d="M1382.8400 35.0000
L1382.8400 135.0000
" />
<path d="M1651.1600 28.0000
L1651.1600 35.0000
" />
<path d="M1651.1600 35.0000
L1651.1600 135.0000
" />
<path d="M1519.5400 28.0000
L1519.5400 35.0000
" />
<path d="M1519.5400 35.0000
L1519.5400 142.0000
" />
<path d="M1584.0800 28.0000
L1584.0800 35.0000
" />
<path d="M1584.0800 35.0000
L1584.0800 142.0000
" />
<path d="M1718.2400 28.0000
L1718.2400 35.0000
" />
<path d="M1718.2400 35.0000
L1718.2400 142.0000
" />
</g>
<g style="fill:#4D7FC4; fill-opacity:1.0000; stroke:none;">
<circle cx="26.0000" cy="28.0000" r="0.8000" /> 
<circle cx="28.5400" cy="28.0000" r="0.8000" /> 
<circle cx="93.0800" cy="28.0000" r="0.8000" /> 
<circle cx="95.6200" cy="28.0000" r="0.8000" /> 
<circle cx="98.1600" cy="28.0000" r="0.8000" /> 
<circle cx="100.7000" cy="28.0000" r="0.8000" /> 
<circle cx="165.2400" cy="28.0000" r="0.8000" /> 
<circle cx="167.7800" cy="28.0000" r="0.8000" /> 
<circle cx="232.3200" cy="28.0000" r="0.8000" /> 
<circle cx="234.8600" cy="28.0000" r="0.8000" /> 
<circle cx="299.4000" cy="28.0000" r="0.8000" /> 
<circle cx="301.9400" cy="28.0000" r="0.8000" /> 
<circle cx="366.4800" cy="28.0000" r="0.8000" /> 
<circle cx="369.0200" cy="28.0000" r="0.8000" /> 
<circle cx="433.5600" cy="28.0000" r="0.8000" /> 
<circle cx="436.1000" cy="28.0000" r="0.8000" /> 
<circle cx="438.6400" cy="28.0000" r="0.8000" /> 
<circle cx="503.1800" cy="28.0000" r="0.8000" /> 
<circle cx="505.7200" cy="28.0000" r="0.8000" /> 
<circle cx="570.2600" cy="28.0000" r="0.8000" /> 
<circle cx="572.8000" cy="28.0000" r="0.8000" /> 
<circle cx="637.3400" cy="28.0000" r="0.8000" /> 
<circle cx="639.8800" cy="28.0000" r="0.8000" /> 
<circle cx="704.4200" cy="28.0000" r="0.8000" /> 
<circle cx="706.9600" cy="28.0000" r="0.8000" /> 
<circle cx="771.5000" cy="28.0000" r="0.8000" /> 
<circle cx="774.0400" cy="28.0000" r="0.8000" /> 
<circle cx="838.5800" cy="28.0000" r="0.8000" /> 
<circle cx="841.1200" cy="28.0000" r="0.8000" /> 
<circle cx="905.6600" cy="28.0000" r="0.8000" /> 
<circle cx="908.2000" cy="28.0000" r="0.8000" /> 
<circle cx="972.7400" cy="28.0000" r="0.8000" /> 
<circle cx="975.2800" cy="28.0000" r="0.8000" /> 
<circle cx="1039.8200" cy="28.0000" r="0.8000" /> 
<circle cx="1042.3600" cy="28.0000" r="0.8000" /> 
<circle cx="1106.9000" cy="28.0000" r="0.8000" /> 
<circle cx="1109.4400" cy="28.0000" r="0.8000" /> 
<circle cx="1173.9800" cy="28.0000" r="0.8000" /> 
<circle cx="1176.5200" cy="28.0000" r="0.8000" /> 
<circle cx="1241.0600" cy="28.0000" r="0.8000" /> 
<circle cx="1243.6000" cy="28.0000" r="0.8000" /> 
<circle cx="1308.1400" cy="28.0000" r="0.8000" /> 
<circle cx="1310.6800" cy="28.0000" r="0.8000" /> 
<circle cx="1313.2200" cy="28.0000" r="0.8000" /> 
<circle cx="1377.7600" cy="28.0000" r="0.8000" /> 
<circle cx="1380.3000" cy="28.0000" r="0.8000" /> 
<circle cx="1382.8400" cy="28.0000" r="0.8000" /> 
<circle cx="1447.3800" cy="28.0000" r="0.8000" /> 
<circle cx="1449.9200" cy="28.0000" r="0.8000" /> 
<circle cx="1514.4600" cy="28.0000" r="0.8000" /> 
<circle cx="1517.0000" cy="28.0000" r="0.8000" /> 
<circle cx="1519.5400" cy="28.0000" r="0.8000" /> 
<circle cx="1584.0800" cy="28.0000" r="0.8000" /> 
<circle cx="1586.6200" cy="28.0000" r="0.8000" /> 
<circle cx="1651.1600" cy="28.0000" r="0.8000" /> 
<circle cx="1653.7000" cy="28.0000" r="0.8000" /> 
<circle cx="1718.2400" cy="28.0000" r="0.8000" /> 
<circle cx="1720.7800" cy="28.0000" r="0.8000" /> 
<circle cx="26.0000" cy="44.0000" r="0.4000" /> 
<circle cx="98.1600" cy="44.0000" r="0.4000" /> 
<circle cx="28.5400" cy="51.0000" r="0.4000" /> 
<circle cx="100.7000" cy="51.0000" r="0.4000" /> 
<circle cx="93.0800" cy="58.0000" r="0.4000" /> 
<circle cx="165.2400" cy="58.0000" r="0.4000" /> 
<circle cx="503.1800" cy="58.0000" r="0.4000" /> 
<circle cx="1447.3800" cy="58.0000" r="0.4000" /> 
<circle cx="1517.0000" cy="58.0000" r="0.4000" /> 
<circle cx="95.6200" cy="65.0000" r="0.4000" /> 
<circle cx="167.7800" cy="65.0000" r="0.4000" /> 
<circle cx="234.8600" cy="65.0000" r="0.4000" /> 
<circle cx="301.9400" cy="65.0000" r="0.4000" /> 
<circle cx="706.9600" cy="65.0000" r="0.4000" /> 
<circle cx="774.0400" cy="65.0000" r="0.4000" /> 
<circle cx="841.1200" cy="65.0000" r="0.4000" /> 
<circle cx="975.2800" cy="65.0000" r="0.4000" /> 
<circle cx="1109.4400" cy="65.0000" r="0.4000" /> 
<circle cx="1243.6000" cy="65.0000" r="0.4000" /> 
<circle cx="1586.6200" cy="65.0000" r="0.4000" /> 
<circle cx="1653.7000" cy="65.0000" r="0.4000" /> 
<circle cx="1720.7800" cy="65.0000" r="0.4000" /> 
<circle cx="232.3200" cy="72.0000" r="0.4000" /> 
<circle cx="299.4000" cy="72.0000" r="0.4000" /> 
<circle cx="366.4800" cy="72.0000" r="0.4000" /> 
<circle cx="369.0200" cy="79.0000" r="0.4000" /> 
<circle cx="438.6400" cy="79.0000" r="0.4000" /> 
<circle cx="433.5600" cy="86.0000" r="0.4000" /> 
<circle cx="505.7200" cy="86.0000" r="0.4000" /> 
<circle cx="570.2600" cy="86.0000" r="0.4000" /> 
<circle cx="436.1000" cy="93.0000" r="0.4000" /> 
<circle cx="771.5000" cy="93.0000" r="0.4000" /> 
<circle cx="838.5800" cy="93.0000" r="0.4000" /> 
<circle cx="572.8000" cy="100.0000" r="0.4000" /> 
<circle cx="637.3400" cy="100.0000" r="0.4000" /> 
<circle cx="905.6600" cy="100.0000" r="0.4000" /> 
<circle cx="1039.8200" cy="100.0000" r="0.4000" /> 
<circle cx="639.8800" cy="107.0000" r="0.4000" /> 
<circle cx="704.4200" cy="107.0000" r="0.4000" /> 
<circle cx="908.2000" cy="107.0000" r="0.4000" /> 
<circle cx="972.7400" cy="107.0000" r="0.4000" /> 
<circle cx="1042.3600" cy="107.0000" r="0.4000" /> 
<circle cx="1106.9000" cy="107.0000" r="0.4000" /> 
<circle cx="1173.9800" cy="107.0000" r="0.4000" /> 
<circle cx="1176.5200" cy="114.0000" r="0.4000" /> 
<circle cx="1241.0600" cy="114.0000" r="0.4000" /> 
<circle cx="1310.6800" cy="114.0000" r="0.4000" /> 
<circle cx="1377.7600" cy="114.0000" r="0.4000" /> 
<circle cx="1308.1400" cy="121.0000" r="0.4000" /> 
<circle cx="1313.2200" cy="121.0000" r="0.4000" /> 
<circle cx="1380.3000" cy="128.0000" r="0.4000" /> 
<circle cx="1449.9200" cy="128.0000" r="0.4000" /> 
<circle cx="1514.4600" cy="128.0000" r="0.4000" /> 
<circle cx="1382.8400" cy="135.0000" r="0.4000" /> 
<circle cx="1651.1600" cy="135.0000" r="0.4000" /> 
<circle cx="1519.5400" cy="142.0000" r="0.4000" /> 
<circle cx="1584.0800" cy="142.0000" r="0.4000" /> 
<circle cx="1718.2400" cy="142.0000" r="0.4000" /> 
</g>
<g style="fill:none; 
stroke:#4D7FC4; stroke-width:0.2500; stroke-opacity:1; 
stroke-linecap:round; stroke-linejoin:round;">
<path d="M26.0000 44.0000
L98.1600 44.0000
" />
<path d="M28.5400 51.0000
L100.7000 51.0000
" />
<path d="M93.0800 58.0000
L165.2400 58.0000
" />
<path d="M165.2400 58.0000
L503.1800 58.0000
" />
<path d="M503.1800 58.0000
L1447.3800 58.0000
" />
<path d="M1447.3800 58.0000
L1517.0000 58.0000
" />
<path d="M95.6200 65.0000
L167.7800 65.0000
" />
<path d="M167.7800 65.0000
L234.8600 65.0000
" />
<path d="M234.8600 65.0000
L301.9400 65.0000
" />
<path d="M301.9400 65.0000
L706.9600 65.0000
" />
<path d="M706.9600 65.0000
L774.0400 65.0000
" />
<path d="M774.0400 65.0000
L841.1200 65.0000
" />
<path d="M841.1200 65.0000
L975.2800 65.0000
" />
<path d="M975.2800 65.0000
L1109.4400 65.0000
" />
<path d="M1109.4400 65.0000
L1243.6000 65.0000
" />
<path d="M1243.6000 65.0000
L1586.6200 65.0000
" />
<path d="M1586.6200 65.0000
L1653.7000 65.0000
" />
<path d="M1653.7000 65.0000
L1720.7800 65.0000
" />
<path d="M232.3200 72.0000
L299.4000 72.0000
" />
<path d="M299.4000 72.0000
L366.4800 72.0000
" />
<path d="M369.0200 79.0000
L438.6400 79.0000
" />
<path d="M433.5600 86.0000
L505.7200 86.0000
" />
<path d="M505.7200 86.0000
L570.2600 86.0000
" />
<path d="M436.1000 93.0000
L771.5000 93.0000
" />
<path d="M771.5000 93.0000
L838.5800 93.0000
" />
<path d="M572.8000 100.0000
L637.3400 100.0000
" />
<path d="M637.3400 100.0000
L905.6600 100.0000
" />
<path d="M905.6600 100.0000
L1039.8200 100.0000
" />
<path d="M639.8800 107.0000
L704.4200 107.0000
" />
<path d="M704.4200 107.0000
L908.2000 107.0000
" />
<path d="M908.2000 107.0000
L972.7400 107.0000
" />
<path d="M972.7400 107.0000
L1042.3600 107.0000
" />
<path d="M1042.3600 107.0000
L1106.9000 107.0000
" />
<path d="M1106.9000 107.0000
L1173.9800 107.0000
" />
<path d="M1176.5200 114.0000
L1241.0600 114.0000
" />
<path d="M1241.0600 114.0000
L1310.6800 114.0000
" />
<path d="M1310.6800 114.0000
L1377.7600 114.0000
" />
<path d="M1308.1400 121.0000
L1313.2200 121.0000
" />
<path d="M1380.3000 128.0000
L1449.9200 128.0000
" />
<path d="M1449.9200 128.0000
L1514.4600 128.0000
" />
<path d="M1382.8400 135.0000
L1651.1600 135.0000
" />
<path d="M1519.5400 142.0000
L1584.0800 142.0000
" />
<path d="M1584.0800 142.0000
L1718.2400 142.0000
" />
</g>
<g style="fill:none; 
stroke:#F2EDA1; stroke-width:0.1500; stroke-opacity:1; 
stroke-linecap:round; stroke-linejoin:round;">
<text x="26.0000" y="26.5000"
textLength="3.8690" font-size="1.3333" lengthAdjust="spacingAndGlyphs"
text-anchor="middle" opacity="0" stroke-opacity="0">JSEC</text>
<g class="stroked-text"><desc>JSEC</desc>
<path d="M24.7143 25.4548
L24.7143 26.1691
" />
<path d="M24.7143 26.1691
L24.6667 26.3120
" />
<path d="M24.6667 26.3120
L24.5714 26.4072
" />
<path d="M24.5714 26.4072
L24.4286 26.4548
" />
<path d="M24.4286 26.4548
L24.3333 26.4548
" />
<path d="M25.1429 26.4072
L25.2857 26.4548
" />
<path d="M25.2857 26.4548
L25.5238 26.4548
" />
<path d="M25.5238 26.4548
L25.6190 26.4072
" />
<path d="M25.6190 26.4072
L25.6667 26.3596
" />
<path d="M25.6667 26.3596
L25.7143 26.2643
" />
<path d="M25.7143 26.2643
L25.7143 26.1691
" />
<path d="M25.7143 26.1691
L25.6667 26.0739
" />
<path d="M25.6667 26.0739
L25.6190 26.0262
" />
<path d="M25.6190 26.0262
L25.5238 25.9786
" />
<path d="M25.5238 25.9786
L25.3333 25.9310
" />
<path d="M25.3333 25.9310
L25.2381 25.8834
" />
<path d="M25.2381 25.8834
L25.1905 25.8358
" />
<path d="M25.1905 25.8358
L25.1429 25.7405
" />
<path d="M25.1429 25.7405
L25.1429 25.6453
" />
<path d="M25.1429 25.6453
L25.1905 25.5501
" />
<path d="M25.1905 25.5501
L25.2381 25.5024
" />
<path d="M25.2381 25.5024
L25.3333 25.4548
" />
<path d="M25.3333 25.4548
L25.5714 25.4548
" />
<path d="M25.5714 25.4548
L25.7143 25.5024
" />
<path d="M26.1429 25.9310
L26.4762 25.9310
" />
<path d="M26.6190 26.4548
L26.1429 26.4548
" />
<path d="M26.1429 26.4548
L26.1429 25.4548
" />
<path d="M26.1429 25.4548
L26.6190 25.4548
" />
<path d="M27.6190 26.3596
L27.5714 26.4072
" />
<path d="M27.5714 26.4072
L27.4286 26.4548
" />
<path d="M27.4286 26.4548
L27.3333 26.4548
" />
<path d="M27.3333 26.4548
L27.1905 26.4072
" />
<path d="M27.1905 26.4072
L27.0952 26.3120
" />
<path d="M27.0952 26.3120
L27.0476 26.2167
" />
<path d="M27.0476 26.2167
L27.0000 26.0262
" />
<path d="M27.0000 26.0262
L27.0000 25.8834
" />
<path d="M27.0000 25.8834
L27.0476 25.6929
" />
<path d="M27.0476 25.6929
L27.0952 25.5977
" />
<path d="M27.0952 25.5977
L27.1905 25.5024
" />
<path d="M27.1905 25.5024
L27.3333 25.4548
" />
<path d="M27.3333 25.4548
L27.4286 25.4548
" />
<path d="M27.4286 25.4548
L27.5714 25.5024
" />
<path d="M27.5714 25.5024
L27.6190 25.5501
" />
</g><text x="93.0800" y="26.5000"
textLength="3.2024" font-size="1.3333" lengthAdjust="spacingAndGlyphs"
text-anchor="middle" opacity="0" stroke-opacity="0">BR1</text>
<g class="stroked-text"><desc>BR1</desc>
<path d="M92.1752 25.9310
L92.3181 25.9786
" />
<path d="M92.3181 25.9786
L92.3657 26.0262
" />
<path d="M92.3657 26.0262
L92.4133 26.1215
" />
<path d="M92.4133 26.1215
L92.4133 26.2643
" />
<path d="M92.4133 26.2643
L92.3657 26.3596
" />
<path d="M92.3657 26.3596
L92.3181 26.4072
" />
<path d="M92.3181 26.4072
L92.2229 26.4548
" />
<path d="M92.2229 26.4548
L91.8419 26.4548
" />
<path d="M91.8419 26.4548
L91.8419 25.4548
" />
<path d="M91.8419 25.4548
L92.1752 25.4548
" />
<path d="M92.1752 25.4548
L92.2705 25.5024
" />
<path d="M92.2705 25.5024
L92.3181 25.5501
" />
<path d="M92.3181 25.5501
L92.3657 25.6453
" />
<path d="M92.3657 25.6453
L92.3657 25.7405
" />
<path d="M92.3657 25.7405
L92.3181 25.8358
" />
<path d="M92.3181 25.8358
L92.2705 25.8834
" />
<path d="M92.2705 25.8834
L92.1752 25.9310
" />
<path d="M92.1752 25.9310
L91.8419 25.9310
" />
<path d="M93.4133 26.4548
L93.0800 25.9786
" />
<path d="M92.8419 26.4548
L92.8419 25.4548
" />
<path d="M92.8419 25.4548
L93.2229 25.4548
" />
<path d="M93.2229 25.4548
L93.3181 25.5024
" />
<path d="M93.3181 25.5024
L93.3657 25.5501
" />
<path d="M93.3657 25.5501
L93.4133 25.6453
" />
<path d="M93.4133 25.6453
L93.4133 25.7882
" />
<path d="M93.4133 25.7882
L93.3657 25.8834
" />
<path d="M93.3657 25.8834
L93.3181 25.9310
" />
<path d="M93.3181 25.9310
L93.2229 25.9786
" />
<path d="M93.2229 25.9786
L92.8419 25.9786
" />
<path d="M94.3657 26.4548
L93.7943 26.4548
" />
<path d="M94.0800 26.4548
L94.0800 25.4548
" />
<path d="M94.0800 25.4548
L93.9848 25.5977
" />
<path d="M93.9848 25.5977
L93.8895 25.6929
" />
<path d="M93.8895 25.6929
L93.7943 25.7405
" />
</g><text x="165.2400" y="26.5000"
textLength="5.0595" font-size="1.3333" lengthAdjust="spacingAndGlyphs"
text-anchor="middle" opacity="0" stroke-opacity="0">CRES1</text>
<g class="stroked-text"><desc>CRES1</desc>
<path d="M163.6448 26.3596
L163.5971 26.4072
" />
<path d="M163.5971 26.4072
L163.4543 26.4548
" />
<path d="M163.4543 26.4548
L163.3590 26.4548
" />
<path d="M163.3590 26.4548
L163.2162 26.4072
" />
<path d="M163.2162 26.4072
L163.1210 26.3120
" />
<path d="M163.1210 26.3120
L163.0733 26.2167
" />
<path d="M163.0733 26.2167
L163.0257 26.0262
" />
<path d="M163.0257 26.0262
L163.0257 25.8834
" />
<path d="M163.0257 25.8834
L163.0733 25.6929
" />
<path d="M163.0733 25.6929
L163.1210 25.5977
" />
<path d="M163.1210 25.5977
L163.2162 25.5024
" />
<path d="M163.2162 25.5024
L163.3590 25.4548
" />
<path d="M163.3590 25.4548
L163.4543 25.4548
" />
<path d="M163.4543 25.4548
L163.5971 25.5024
" />
<path d="M163.5971 25.5024
L163.6448 25.5501
" />
<path d="M164.6448 26.4548
L164.3114 25.9786
" />
<path d="M164.0733 26.4548
L164.0733 25.4548
" />
<path d="M164.0733 25.4548
L164.4543 25.4548
" />
<path d="M164.4543 25.4548
L164.5495 25.5024
" />
<path d="M164.5495 25.5024
L164.5971 25.5501
" />
<path d="M164.5971 25.5501
L164.6448 25.6453
" />
<path d="M164.6448 25.6453
L164.6448 25.7882
" />
<path d="M164.6448 25.7882
L164.5971 25.8834
" />
<path d="M164.5971 25.8834
L164.5495 25.9310
" />
<path d="M164.5495 25.9310
L164.4543 25.9786
" />
<path d="M164.4543 25.9786
L164.0733 25.9786
" />
<path d="M165.0733 25.9310
L165.4067 25.9310
" />
<path d="M165.5495 26.4548
L165.0733 26.4548
" />
<path d="M165.0733 26.4548
L165.0733 25.4548
" />
<path d="M165.0733 25.4548
L165.5495 25.4548
" />
<path d="M165.9305 26.4072
L166.0733 26.4548
" />
<path d="M166.0733 26.4548
L166.3114 26.4548
" />
<path d="M166.3114 26.4548
L166.4067 26.4072
" />
<path d="M166.4067 26.4072
L166.4543 26.3596
" />
<path d="M166.4543 26.3596
L166.5019 26.2643
" />
<path d="M166.5019 26.2643
L166.5019 26.1691
" />
<path d="M166.5019 26.1691
L166.4543 26.0739
" />
<path d="M166.4543 26.0739
L166.4067 26.0262
" />
<path d="M166.4067 26.0262
L166.3114 25.9786
" />
<path d="M166.3114 25.9786
L166.1210 25.9310
" />
<path d="M166.1210 25.9310
L166.0257 25.8834
" />
<path d="M166.0257 25.8834
L165.9781 25.8358
" />
<path d="M165.9781 25.8358
L165.9305 25.7405
" />
<path d="M165.9305 25.7405
L165.9305 25.6453
" />
<path d="M165.9305 25.6453
L165.9781 25.5501
" />
<path d="M165.9781 25.5501
L166.0257 25.5024
" />
<path d="M166.0257 25.5024
L166.1210 25.4548
" />
<path d="M166.1210 25.4548
L166.3590 25.4548
" />
<path d="M166.3590 25.4548
L166.5019 25.5024
" />
<path d="M167.4543 26.4548
L166.8829 26.4548
" />
<path d="M167.1686 26.4548
L167.1686 25.4548
" />
<path d="M167.1686 25.4548
L167.0733 25.5977
" />
<path d="M167.0733 25.5977
L166.9781 25.6929
" />
<path d="M166.9781 25.6929
L166.8829 25.7405
" />
</g><text x="232.3200" y="26.5000"
textLength="2.5357" font-size="1.3333" lengthAdjust="spacingAndGlyphs"
text-anchor="middle" opacity="0" stroke-opacity="0">JIN</text>
<g class="stroked-text"><desc>JIN</desc>
<path d="M231.7010 25.4548
L231.7010 26.1691
" />
<path d="M231.7010 26.1691
L231.6533 26.3120
" />
<path d="M231.6533 26.3120
L231.5581 26.4072
" />
<path d="M231.5581 26.4072
L231.4152 26.4548
" />
<path d="M231.4152 26.4548
L231.3200 26.4548
" />
<path d="M232.1771 26.4548
L232.1771 25.4548
" />
<path d="M232.6533 26.4548
L232.6533 25.4548
" />
<path d="M232.6533 25.4548
L233.2248 26.4548
" />
<path d="M233.2248 26.4548
L233.2248 25.4548
" />
</g><text x="299.4000" y="26.5000"
textLength="2.7738" font-size="1.3333" lengthAdjust="spacingAndGlyphs"
text-anchor="middle" opacity="0" stroke-opacity="0">RIN</text>
<g class="stroked-text"><desc>RIN</desc>
<path d="M298.9476 26.4548
L298.6143 25.9786
" />
<path d="M298.3762 26.4548
L298.3762 25.4548
" />
<path d="M298.3762 25.4548
L298.7571 25.4548
" />
<path d="M298.7571 25.4548
L298.8524 25.5024
" />
<path d="M298.8524 25.5024
L298.9000 25.5501
" />
<path d="M298.9000 25.5501
L298.9476 25.6453
" />
<path d="M298.9476 25.6453
L298.9476 25.7882
" />
<path d="M298.9476 25.7882
L298.9000 25.8834
" />
<path d="M298.9000 25.8834
L298.8524 25.9310
" />
<path d="M298.8524 25.9310
L298.7571 25.9786
" />
<path d="M298.7571 25.9786
L298.3762 25.9786
" />
<path d="M299.3762 26.4548
L299.3762 25.4548
" />
<path d="M299.8524 26.4548
L299.8524 25.4548
" />
<path d="M299.8524 25.4548
L300.4238 26.4548
" />
<path d="M300.4238 26.4548
L300.4238 25.4548
" />
</g><text x="366.4800" y="26.5000"
textLength="2.7738" font-size="1.3333" lengthAdjust="spacingAndGlyphs"
text-anchor="middle" opacity="0" stroke-opacity="0">CIN</text>
<g class="stroked-text"><desc>CIN</desc>
<path d="M366.0276 26.3596
L365.9800 26.4072
" />
<path d="M365.9800 26.4072
L365.8371 26.4548
" />
<path d="M365.8371 26.4548
L365.7419 26.4548
" />
<path d="M365.7419 26.4548
L365.5990 26.4072
" />
<path d="M365.5990 26.4072
L365.5038 26.3120
" />
<path d="M365.5038 26.3120
L365.4562 26.2167
" />
<path d="M365.4562 26.2167
L365.4086 26.0262
" />
<path d="M365.4086 26.0262
L365.4086 25.8834
" />
<path d="M365.4086 25.8834
L365.4562 25.6929
" />
<path d="M365.4562 25.6929
L365.5038 25.5977
" />
<path d="M365.5038 25.5977
L365.5990 25.5024
" />
<path d="M365.5990 25.5024
L365.7419 25.4548
" />
<path d="M365.7419 25.4548
L365.8371 25.4548
" />
<path d="M365.8371 25.4548
L365.9800 25.5024
" />
<path d="M365.9800 25.5024
L366.0276 25.5501
" />
<path d="M366.4562 26.4548
L366.4562 25.4548
" />
<path d="M366.9324 26.4548
L366.9324 25.4548
" />
<path d="M366.9324 25.4548
L367.5038 26.4548
" />
<path d="M367.5038 26.4548
L367.5038 25.4548
" />
</g><text x="433.5600" y="26.5000"
textLength="5.1548" font-size="1.3333" lengthAdjust="spacingAndGlyphs"
text-anchor="middle" opacity="0" stroke-opacity="0">QPRE1</text>
<g class="stroked-text"><desc>QPRE1</desc>
<path d="M432.0124 26.5501
L431.9171 26.5024
" />
<path d="M431.9171 26.5024
L431.8219 26.4072
" />
<path d="M431.8219 26.4072
L431.6790 26.2643
" />
<path d="M431.6790 26.2643
L431.5838 26.2167
" />
<path d="M431.5838 26.2167
L431.4886 26.2167
" />
<path d="M431.5362 26.4548
L431.4410 26.4072
" />
<path d="M431.4410 26.4072
L431.3457 26.3120
" />
<path d="M431.3457 26.3120
L431.2981 26.1215
" />
<path d="M431.2981 26.1215
L431.2981 25.7882
" />
<path d="M431.2981 25.7882
L431.3457 25.5977
" />
<path d="M431.3457 25.5977
L431.4410 25.5024
" />
<path d="M431.4410 25.5024
L431.5362 25.4548
" />
<path d="M431.5362 25.4548
L431.7267 25.4548
" />
<path d="M431.7267 25.4548
L431.8219 25.5024
" />
<path d="M431.8219 25.5024
L431.9171 25.5977
" />
<path d="M431.9171 25.5977
L431.9648 25.7882
" />
<path d="M431.9648 25.7882
L431.9648 26.1215
" />
<path d="M431.9648 26.1215
L431.9171 26.3120
" />
<path d="M431.9171 26.3120
L431.8219 26.4072
" />
<path d="M431.8219 26.4072
L431.7267 26.4548
" />
<path d="M431.7267 26.4548
L431.5362 26.4548
" />
<path d="M432.3933 26.4548
L432.3933 25.4548
" />
<path d="M432.3933 25.4548
L432.7743 25.4548
" />
<path d="M432.7743 25.4548
L432.8695 25.5024
" />
<path d="M432.8695 25.5024
L432.9171 25.5501
" />
<path d="M432.9171 25.5501
L432.9648 25.6453
" />
<path d="M432.9648 25.6453
L432.9648 25.7882
" />
<path d="M432.9648 25.7882
L432.9171 25.8834
" />
<path d="M432.9171 25.8834
L432.8695 25.9310
" />
<path d="M432.8695 25.9310
L432.7743 25.9786
" />
<path d="M432.7743 25.9786
L432.3933 25.9786
" />
<path d="M433.9648 26.4548
L433.6314 25.9786
" />
<path d="M433.3933 26.4548
L433.3933 25.4548
" />
<path d="M433.3933 25.4548
L433.7743 25.4548
" />
<path d="M433.7743 25.4548
L433.8695 25.5024
" />
<path d="M433.8695 25.5024
L433.9171 25.5501
" />
<path d="M433.9171 25.5501
L433.9648 25.6453
" />
<path d="M433.9648 25.6453
L433.9648 25.7882
" />
<path d="M433.9648 25.7882
L433.9171 25.8834
" />
<path d="M433.9171 25.8834
L433.8695 25.9310
" />
<path d="M433.8695 25.9310
L433.7743 25.9786
" />
<path d="M433.7743 25.9786
L433.3933 25.9786
" />
<path d="M434.3933 25.9310
L434.7267 25.9310
" />
<path d="M434.8695 26.4548
L434.3933 26.4548
" />
<path d="M434.3933 26.4548
L434.3933 25.4548
" />
<path d="M434.3933 25.4548
L434.8695 25.4548
" />
<path d="M435.8219 26.4548
L435.2505 26.4548
" />
<path d="M435.5362 26.4548
L435.5362 25.4548
" />
<path d="M435.5362 25.4548
L435.4410 25.5977
" />
<path d="M435.4410 25.5977
L435.3457 25.6929
" />
<path d="M435.3457 25.6929
L435.2505 25.7405
" />
</g><text x="503.1800" y="26.5000"
textLength="5.9167" font-size="1.3333" lengthAdjust="spacingAndGlyphs"
text-anchor="middle" opacity="0" stroke-opacity="0">RPRE_D</text>
<g class="stroked-text"><desc>RPRE_D</desc>
<path d="M501.1562 26.4548
L500.8229 25.9786
" />
<path d="M500.5848 26.4548
L500.5848 25.4548
" />
<path d="M500.5848 25.4548
L500.9657 25.4548
" />
<path d="M500.9657 25.4548
L501.0610 25.5024
" />
<path d="M501.0610 25.5024
L501.1086 25.5501
" />
<path d="M501.1086 25.5501
L501.1562 25.6453
" />
<path d="M501.1562 25.6453
L501.1562 25.7882
" />
<path d="M501.1562 25.7882
L501.1086 25.8834
" />
<path d="M501.1086 25.8834
L501.0610 25.9310
" />
<path d="M501.0610 25.9310
L500.9657 25.9786
" />
<path d="M500.9657 25.9786
L500.5848 25.9786
" />
<path d="M501.5848 26.4548
L501.5848 25.4548
" />
<path d="M501.5848 25.4548
L501.9657 25.4548
" />
<path d="M501.9657 25.4548
L502.0610 25.5024
" />
<path d="M502.0610 25.5024
L502.1086 25.5501
" />
<path d="M502.1086 25.5501
L502.1562 25.6453
" />
<path d="M502.1562 25.6453
L502.1562 25.7882
" />
<path d="M502.1562 25.7882
L502.1086 25.8834
" />
<path d="M502.1086 25.8834
L502.0610 25.9310
" />
<path d="M502.0610 25.9310
L501.9657 25.9786
" />
<path d="M501.9657 25.9786
L501.5848 25.9786
" />
<path d="M503.1562 26.4548
L502.8229 25.9786
" />
<path d="M502.5848 26.4548
L502.5848 25.4548
" />
<path d="M502.5848 25.4548
L502.9657 25.4548
" />
<path d="M502.9657 25.4548
L503.0610 25.5024
" />
<path d="M503.0610 25.5024
L503.1086 25.5501
" />
<path d="M503.1086 25.5501
L503.1562 25.6453
" />
<path d="M503.1562 25.6453
L503.1562 25.7882
" />
<path d="M503.1562 25.7882
L503.1086 25.8834
" />
<path d="M503.1086 25.8834
L503.0610 25.9310
" />
<path d="M503.0610 25.9310
L502.9657 25.9786
" />
<path d="M502.9657 25.9786
L502.5848 25.9786
" />
<path d="M503.5848 25.9310
L503.9181 25.9310
" />
<path d="M504.0610 26.4548
L503.5848 26.4548
" />
<path d="M503.5848 26.4548
L503.5848 25.4548
" />
<path d="M503.5848 25.4548
L504.0610 25.4548
" />
<path d="M504.2514 26.5501
L505.0133 26.5501
" />
<path d="M505.2514 26.4548
L505.2514 25.4548
" />
<path d="M505.2514 25.4548
L505.4895 25.4548
" />
<path d="M505.4895 25.4548
L505.6324 25.5024
" />
<path d="M505.6324 25.5024
L505.7276 25.5977
" />
<path d="M505.7276 25.5977
L505.7752 25.6929
" />
<path d="M505.7752 25.6929
L505.8229 25.8834
" />
<path d="M505.8229 25.8834
L505.8229 26.0262
" />
<path d="M505.8229 26.0262
L505.7752 26.2167
" />
<path d="M505.7752 26.2167
L505.7276 26.3120
" />
<path d="M505.7276 26.3120
L505.6324 26.4072
" />
<path d="M505.6324 26.4072
L505.4895 26.4548
" />
<path d="M505.4895 26.4548
L505.2514 26.4548
" />
</g><text x="570.2600" y="26.5000"
textLength="7.2976" font-size="1.3333" lengthAdjust="spacingAndGlyphs"
text-anchor="middle" opacity="0" stroke-opacity="0">CTONE_IN</text>
<g class="stroked-text"><desc>CTONE_IN</desc>
<path d="M567.5457 26.3596
L567.4981 26.4072
" />
<path d="M567.4981 26.4072
L567.3552 26.4548
" />
<path d="M567.3552 26.4548
L567.2600 26.4548
" />
<path d="M567.2600 26.4548
L567.1171 26.4072
" />
<path d="M567.1171 26.4072
L567.0219 26.3120
" />
<path d="M567.0219 26.3120
L566.9743 26.2167
" />
<path d="M566.9743 26.2167
L566.9267 26.0262
" />
<path d="M566.9267 26.0262
L566.9267 25.8834
" />
<path d="M566.9267 25.8834
L566.9743 25.6929
" />
<path d="M566.9743 25.6929
L567.0219 25.5977
" />
<path d="M567.0219 25.5977
L567.1171 25.5024
" />
<path d="M567.1171 25.5024
L567.2600 25.4548
" />
<path d="M567.2600 25.4548
L567.3552 25.4548
" />
<path d="M567.3552 25.4548
L567.4981 25.5024
" />
<path d="M567.4981 25.5024
L567.5457 25.5501
" />
<path d="M567.8314 25.4548
L568.4029 25.4548
" />
<path d="M568.1171 26.4548
L568.1171 25.4548
" />
<path d="M568.9267 25.4548
L569.1171 25.4548
" />
<path d="M569.1171 25.4548
L569.2124 25.5024
" />
<path d="M569.2124 25.5024
L569.3076 25.5977
" />
<path d="M569.3076 25.5977
L569.3552 25.7882
" />
<path d="M569.3552 25.7882
L569.3552 26.1215
" />
<path d="M569.3552 26.1215
L569.3076 26.3120
" />
<path d="M569.3076 26.3120
L569.2124 26.4072
" />
<path d="M569.2124 26.4072
L569.1171 26.4548
" />
<path d="M569.1171 26.4548
L568.9267 26.4548
" />
<path d="M568.9267 26.4548
L568.8314 26.4072
" />
<path d="M568.8314 26.4072
L568.7362 26.3120
" />
<path d="M568.7362 26.3120
L568.6886 26.1215
" />
<path d="M568.6886 26.1215
L568.6886 25.7882
" />
<path d="M568.6886 25.7882
L568.7362 25.5977
" />
<path d="M568.7362 25.5977
L568.8314 25.5024
" />
<path d="M568.8314 25.5024
L568.9267 25.4548
" />
<path d="M569.7838 26.4548
L569.7838 25.4548
" />
<path d="M569.7838 25.4548
L570.3552 26.4548
" />
<path d="M570.3552 26.4548
L570.3552 25.4548
" />
<path d="M570.8314 25.9310
L571.1648 25.9310
" />
<path d="M571.3076 26.4548
L570.8314 26.4548
" />
<path d="M570.8314 26.4548
L570.8314 25.4548
" />
<path d="M570.8314 25.4548
L571.3076 25.4548
" />
<path d="M571.4981 26.5501
L572.2600 26.5501
" />
<path d="M572.4981 26.4548
L572.4981 25.4548
" />
<path d="M572.9743 26.4548
L572.9743 25.4548
" />
<path d="M572.9743 25.4548
L573.5457 26.4548
" />
<path d="M573.5457 26.4548
L573.5457 25.4548
" />
</g><text x="637.3400" y="26.5000"
textLength="5.0119" font-size="1.3333" lengthAdjust="spacingAndGlyphs"
text-anchor="middle" opacity="0" stroke-opacity="0">RBASS</text>
<g class="stroked-text"><desc>RBASS</desc>
<path d="M635.7686 26.4548
L635.4352 25.9786
" />
<path d="M635.1971 26.4548
L635.1971 25.4548
" />
<path d="M635.1971 25.4548
L635.5781 25.4548
" />
<path d="M635.5781 25.4548
L635.6733 25.5024
" />
<path d="M635.6733 25.5024
L635.7210 25.5501
" />
<path d="M635.7210 25.5501
L635.7686 25.6453
" />
<path d="M635.7686 25.6453
L635.7686 25.7882
" />
<path d="M635.7686 25.7882
L635.7210 25.8834
" />
<path d="M635.7210 25.8834
L635.6733 25.9310
" />
<path d="M635.6733 25.9310
L635.5781 25.9786
" />
<path d="M635.5781 25.9786
L635.1971 25.9786
" />
<path d="M636.5305 25.9310
L636.6733 25.9786
" />
<path d="M636.6733 25.9786
L636.7210 26.0262
" />
<path d="M636.7210 26.0262
L636.7686 26.1215
" />
<path d="M636.7686 26.1215
L636.7686 26.2643
" />
<path d="M636.7686 26.2643
L636.7210 26.3596
" />
<path d="M636.7210 26.3596
L636.6733 26.4072
" />
<path d="M636.6733 26.4072
L636.5781 26.4548
" />
<path d="M636.5781 26.4548
L636.1971 26.4548
" />
<path d="M636.1971 26.4548
L636.1971 25.4548
" />
<path d="M636.1971 25.4548
L636.5305 25.4548
" />
<path d="M636.5305 25.4548
L636.6257 25.5024
" />
<path d="M636.6257 25.5024
L636.6733 25.5501
" />
<path d="M636.6733 25.5501
L636.7210 25.6453
" />
<path d="M636.7210 25.6453
L636.7210 25.7405
" />
<path d="M636.7210 25.7405
L636.6733 25.8358
" />
<path d="M636.6733 25.8358
L636.6257 25.8834
" />
<path d="M636.6257 25.8834
L636.5305 25.9310
" />
<path d="M636.5305 25.9310
L636.1971 25.9310
" />
<path d="M637.1495 26.1691
L637.6257 26.1691
" />
<path d="M637.0543 26.4548
L637.3876 25.4548
" />
<path d="M637.3876 25.4548
L637.7210 26.4548
" />
<path d="M638.0067 26.4072
L638.1495 26.4548
" />
<path d="M638.1495 26.4548
L638.3876 26.4548
" />
<path d="M638.3876 26.4548
L638.4829 26.4072
" />
<path d="M638.4829 26.4072
L638.5305 26.3596
" />
<path d="M638.5305 26.3596
L638.5781 26.2643
" />
<path d="M638.5781 26.2643
L638.5781 26.1691
" />
<path d="M638.5781 26.1691
L638.5305 26.0739
" />
<path d="M638.5305 26.0739
L638.4829 26.0262
" />
<path d="M638.4829 26.0262
L638.3876 25.9786
" />
<path d="M638.3876 25.9786
L638.1971 25.9310
" />
<path d="M638.1971 25.9310
L638.1019 25.8834
" />
<path d="M638.1019 25.8834
L638.0543 25.8358
" />
<path d="M638.0543 25.8358
L638.0067 25.7405
" />
<path d="M638.0067 25.7405
L638.0067 25.6453
" />
<path d="M638.0067 25.6453
L638.0543 25.5501
" />
<path d="M638.0543 25.5501
L638.1019 25.5024
" />
<path d="M638.1019 25.5024
L638.1971 25.4548
" />
<path d="M638.1971 25.4548
L638.4352 25.4548
" />
<path d="M638.4352 25.4548
L638.5781 25.5024
" />
<path d="M638.9590 26.4072
L639.1019 26.4548
" />
<path d="M639.1019 26.4548
L639.3400 26.4548
" />
<path d="M639.3400 26.4548
L639.4352 26.4072
" />
<path d="M639.4352 26.4072
L639.4829 26.3596
" />
<path d="M639.4829 26.3596
L639.5305 26.2643
" />
<path d="M639.5305 26.2643
L639.5305 26.1691
" />
<path d="M639.5305 26.1691
L639.4829 26.0739
" />
<path d="M639.4829 26.0739
L639.4352 26.0262
" />
<path d="M639.4352 26.0262
L639.3400 25.9786
" />
<path d="M639.3400 25.9786
L639.1495 25.9310
" />
<path d="M639.1495 25.9310
L639.0543 25.8834
" />
<path d="M639.0543 25.8834
L639.0067 25.8358
" />
<path d="M639.0067 25.8358
L638.9590 25.7405
" />
<path d="M638.9590 25.7405
L638.9590 25.6453
" />
<path d="M638.9590 25.6453
L639.0067 25.5501
" />
<path d="M639.0067 25.5501
L639.0543 25.5024
" />
<path d="M639.0543 25.5024
L639.1495 25.4548
" />
<path d="M639.1495 25.4548
L639.3876 25.4548
" />
<path d="M639.3876 25.4548
L639.5305 25.5024
" />
</g><text x="704.4200" y="26.5000"
textLength="5.0119" font-size="1.3333" lengthAdjust="spacingAndGlyphs"
text-anchor="middle" opacity="0" stroke-opacity="0">CBASS</text>
<g class="stroked-text"><desc>CBASS</desc>
<path d="M702.8486 26.3596
L702.8010 26.4072
" />
<path d="M702.8010 26.4072
L702.6581 26.4548
" />
<path d="M702.6581 26.4548
L702.5629 26.4548
" />
<path d="M702.5629 26.4548
L702.4200 26.4072
" />
<path d="M702.4200 26.4072
L702.3248 26.3120
" />
<path d="M702.3248 26.3120
L702.2771 26.2167
" />
<path d="M702.2771 26.2167
L702.2295 26.0262
" />
<path d="M702.2295 26.0262
L702.2295 25.8834
" />
<path d="M702.2295 25.8834
L702.2771 25.6929
" />
<path d="M702.2771 25.6929
L702.3248 25.5977
" />
<path d="M702.3248 25.5977
L702.4200 25.5024
" />
<path d="M702.4200 25.5024
L702.5629 25.4548
" />
<path d="M702.5629 25.4548
L702.6581 25.4548
" />
<path d="M702.6581 25.4548
L702.8010 25.5024
" />
<path d="M702.8010 25.5024
L702.8486 25.5501
" />
<path d="M703.6105 25.9310
L703.7533 25.9786
" />
<path d="M703.7533 25.9786
L703.8010 26.0262
" />
<path d="M703.8010 26.0262
L703.8486 26.1215
" />
<path d="M703.8486 26.1215
L703.8486 26.2643
" />
<path d="M703.8486 26.2643
L703.8010 26.3596
" />
<path d="M703.8010 26.3596
L703.7533 26.4072
" />
<path d="M703.7533 26.4072
L703.6581 26.4548
" />
<path d="M703.6581 26.4548
L703.2771 26.4548
" />
<path d="M703.2771 26.4548
L703.2771 25.4548
" />
<path d="M703.2771 25.4548
L703.6105 25.4548
" />
<path d="M703.6105 25.4548
L703.7057 25.5024
" />
<path d="M703.7057 25.5024
L703.7533 25.5501
" />
<path d="M703.7533 25.5501
L703.8010 25.6453
" />
<path d="M703.8010 25.6453
L703.8010 25.7405
" />
<path d="M703.8010 25.7405
L703.7533 25.8358
" />
<path d="M703.7533 25.8358
L703.7057 25.8834
" />
<path d="M703.7057 25.8834
L703.6105 25.9310
" />
<path d="M703.6105 25.9310
L703.2771 25.9310
" />
<path d="M704.2295 26.1691
L704.7057 26.1691
" />
<path d="M704.1343 26.4548
L704.4676 25.4548
" />
<path d="M704.4676 25.4548
L704.8010 26.4548
" />
<path d="M705.0867 26.4072
L705.2295 26.4548
" />
<path d="M705.2295 26.4548
L705.4676 26.4548
" />
<path d="M705.4676 26.4548
L705.5629 26.4072
" />
<path d="M705.5629 26.4072
L705.6105 26.3596
" />
<path d="M705.6105 26.3596
L705.6581 26.2643
" />
<path d="M705.6581 26.2643
L705.6581 26.1691
" />
<path d="M705.6581 26.1691
L705.6105 26.0739
" />
<path d="M705.6105 26.0739
L705.5629 26.0262
" />
<path d="M705.5629 26.0262
L705.4676 25.9786
" />
<path d="M705.4676 25.9786
L705.2771 25.9310
" />
<path d="M705.2771 25.9310
L705.1819 25.8834
" />
<path d="M705.1819 25.8834
L705.1343 25.8358
" />
<path d="M705.1343 25.8358
L705.0867 25.7405
" />
<path d="M705.0867 25.7405
L705.0867 25.6453
" />
<path d="M705.0867 25.6453
L705.1343 25.5501
" />
<path d="M705.1343 25.5501
L705.1819 25.5024
" />
<path d="M705.1819 25.5024
L705.2771 25.4548
" />
<path d="M705.2771 25.4548
L705.5152 25.4548
" />
<path d="M705.5152 25.4548
L705.6581 25.5024
" />
<path d="M706.0390 26.4072
L706.1819 26.4548
" />
<path d="M706.1819 26.4548
L706.4200 26.4548
" />
<path d="M706.4200 26.4548
L706.5152 26.4072
" />
<path d="M706.5152 26.4072
L706.5629 26.3596
" />
<path d="M706.5629 26.3596
L706.6105 26.2643
" />
<path d="M706.6105 26.2643
L706.6105 26.1691
" />
<path d="M706.6105 26.1691
L706.5629 26.0739
" />
<path d="M706.5629 26.0739
L706.5152 26.0262
" />
<path d="M706.5152 26.0262
L706.4200 25.9786
" />
<path d="M706.4200 25.9786
L706.2295 25.9310
" />
<path d="M706.2295 25.9310
L706.1343 25.8834
" />
<path d="M706.1343 25.8834
L706.0867 25.8358
" />
<path d="M706.0867 25.8358
L706.0390 25.7405
" />
<path d="M706.0390 25.7405
L706.0390 25.6453
" />
<path d="M706.0390 25.6453
L706.0867 25.5501
" />
<path d="M706.0867 25.5501
L706.1343 25.5024
" />
<path d="M706.1343 25.5024
L706.2295 25.4548
" />
<path d="M706.2295 25.4548
L706.4676 25.4548
" />
<path d="M706.4676 25.4548
L706.6105 25.5024
" />
</g><text x="771.5000" y="26.5000"
textLength="7.7738" font-size="1.3333" lengthAdjust="spacingAndGlyphs"
text-anchor="middle" opacity="0" stroke-opacity="0">CPRE_BYP</text>
<g class="stroked-text"><desc>CPRE_BYP</desc>
<path d="M768.5476 26.3596
L768.5000 26.4072
" />
<path d="M768.5000 26.4072
L768.3571 26.4548
" />
<path d="M768.3571 26.4548
L768.2619 26.4548
" />
<path d="M768.2619 26.4548
L768.1190 26.4072
" />
<path d="M768.1190 26.4072
L768.0238 26.3120
" />
<path d="M768.0238 26.3120
L767.9762 26.2167
" />
<path d="M767.9762 26.2167
L767.9286 26.0262
" />
<path d="M767.9286 26.0262
L767.9286 25.8834
" />
<path d="M767.9286 25.8834
L767.9762 25.6929
" />
<path d="M767.9762 25.6929
L768.0238 25.5977
" />
<path d="M768.0238 25.5977
L768.1190 25.5024
" />
<path d="M768.1190 25.5024
L768.2619 25.4548
" />
<path d="M768.2619 25.4548
L768.3571 25.4548
" />
<path d="M768.3571 25.4548
L768.5000 25.5024
" />
<path d="M768.5000 25.5024
L768.5476 25.5501
" />
<path d="M768.9762 26.4548
L768.9762 25.4548
" />
<path d="M768.9762 25.4548
L769.3571 25.4548
" />
<path d="M769.3571 25.4548
L769.4524 25.5024
" />
<path d="M769.4524 25.5024
L769.5000 25.5501
" />
<path d="M769.5000 25.5501
L769.5476 25.6453
" />
<path d="M769.5476 25.6453
L769.5476 25.7882
" />
<path d="M769.5476 25.7882
L769.5000 25.8834
" />
<path d="M769.5000 25.8834
L769.4524 25.9310
" />
<path d="M769.4524 25.9310
L769.3571 25.9786
" />
<path d="M769.3571 25.9786
L768.9762 25.9786
" />
<path d="M770.5476 26.4548
L770.2143 25.9786
" />
<path d="M769.9762 26.4548
L769.9762 25.4548
" />
<path d="M769.9762 25.4548
L770.3571 25.4548
" />
<path d="M770.3571 25.4548
L770.4524 25.5024
" />
<path d="M770.4524 25.5024
L770.5000 25.5501
" />
<path d="M770.5000 25.5501
L770.5476 25.6453
" />
<path d="M770.5476 25.6453
L770.5476 25.7882
" />
<path d="M770.5476 25.7882
L770.5000 25.8834
" />
<path d="M770.5000 25.8834
L770.4524 25.9310
" />
<path d="M770.4524 25.9310
L770.3571 25.9786
" />
<path d="M770.3571 25.9786
L769.9762 25.9786
" />
<path d="M770.9762 25.9310
L771.3095 25.9310
" />
<path d="M771.4524 26.4548
L770.9762 26.4548
" />
<path d="M770.9762 26.4548
L770.9762 25.4548
" />
<path d="M770.9762 25.4548
L771.4524 25.4548
" />
<path d="M771.6429 26.5501
L772.4048 26.5501
" />
<path d="M772.9762 25.9310
L773.1190 25.9786
" />
<path d="M773.1190 25.9786
L773.1667 26.0262
" />
<path d="M773.1667 26.0262
L773.2143 26.1215
" />
<path d="M773.2143 26.1215
L773.2143 26.2643
" />
<path d="M773.2143 26.2643
L773.1667 26.3596
" />
<path d="M773.1667 26.3596
L773.1190 26.4072
" />
<path d="M773.1190 26.4072
L773.0238 26.4548
" />
<path d="M773.0238 26.4548
L772.6429 26.4548
" />
<path d="M772.6429 26.4548
L772.6429 25.4548
" />
<path d="M772.6429 25.4548
L772.9762 25.4548
" />
<path d="M772.9762 25.4548
L773.0714 25.5024
" />
<path d="M773.0714 25.5024
L773.1190 25.5501
" />
<path d="M773.1190 25.5501
L773.1667 25.6453
" />
<path d="M773.1667 25.6453
L773.1667 25.7405
" />
<path d="M773.1667 25.7405
L773.1190 25.8358
" />
<path d="M773.1190 25.8358
L773.0714 25.8834
" />
<path d="M773.0714 25.8834
L772.9762 25.9310
" />
<path d="M772.9762 25.9310
L772.6429 25.9310
" />
<path d="M773.8333 25.9786
L773.8333 26.4548
" />
<path d="M773.5000 25.4548
L773.8333 25.9786
" />
<path d="M773.8333 25.9786
L774.1667 25.4548
" />
<path d="M774.5000 26.4548
L774.5000 25.4548
" />
<path d="M774.5000 25.4548
L774.8810 25.4548
" />
<path d="M774.8810 25.4548
L774.9762 25.5024
" />
<path d="M774.9762 25.5024
L775.0238 25.5501
" />
<path d="M775.0238 25.5501
L775.0714 25.6453
" />
<path d="M775.0714 25.6453
L775.0714 25.7882
" />
<path d="M775.0714 25.7882
L775.0238 25.8834
" />
<path d="M775.0238 25.8834
L774.9762 25.9310
" />
<path d="M774.9762 25.9310
L774.8810 25.9786
" />
<path d="M774.8810 25.9786
L774.5000 25.9786
" />
</g><text x="838.5800" y="26.5000"
textLength="5.8690" font-size="1.3333" lengthAdjust="spacingAndGlyphs"
text-anchor="middle" opacity="0" stroke-opacity="0">RPRE_S</text>
<g class="stroked-text"><desc>RPRE_S</desc>
<path d="M836.5800 26.4548
L836.2467 25.9786
" />
<path d="M836.0086 26.4548
L836.0086 25.4548
" />
<path d="M836.0086 25.4548
L836.3895 25.4548
" />
<path d="M836.3895 25.4548
L836.4848 25.5024
" />
<path d="M836.4848 25.5024
L836.5324 25.5501
" />
<path d="M836.5324 25.5501
L836.5800 25.6453
" />
<path d="M836.5800 25.6453
L836.5800 25.7882
" />
<path d="M836.5800 25.7882
L836.5324 25.8834
" />
<path d="M836.5324 25.8834
L836.4848 25.9310
" />
<path d="M836.4848 25.9310
L836.3895 25.9786
" />
<path d="M836.3895 25.9786
L836.0086 25.9786
" />
<path d="M837.0086 26.4548
L837.0086 25.4548
" />
<path d="M837.0086 25.4548
L837.3895 25.4548
" />
<path d="M837.3895 25.4548
L837.4848 25.5024
" />
<path d="M837.4848 25.5024
L837.5324 25.5501
" />
<path d="M837.5324 25.5501
L837.5800 25.6453
" />
<path d="M837.5800 25.6453
L837.5800 25.7882
" />
<path d="M837.5800 25.7882
L837.5324 25.8834
" />
<path d="M837.5324 25.8834
L837.4848 25.9310
" />
<path d="M837.4848 25.9310
L837.3895 25.9786
" />
<path d="M837.3895 25.9786
L837.0086 25.9786
" />
<path d="M838.5800 26.4548
L838.2467 25.9786
" />
<path d="M838.0086 26.4548
L838.0086 25.4548
" />
<path d="M838.0086 25.4548
L838.3895 25.4548
" />
<path d="M838.3895 25.4548
L838.4848 25.5024
" />
<path d="M838.4848 25.5024
L838.5324 25.5501
" />
<path d="M838.5324 25.5501
L838.5800 25.6453
" />
<path d="M838.5800 25.6453
L838.5800 25.7882
" />
<path d="M838.5800 25.7882
L838.5324 25.8834
" />
<path d="M838.5324 25.8834
L838.4848 25.9310
" />
<path d="M838.4848 25.9310
L838.3895 25.9786
" />
<path d="M838.3895 25.9786
L838.0086 25.9786
" />
<path d="M839.0086 25.9310
L839.3419 25.9310
" />
<path d="M839.4848 26.4548
L839.0086 26.4548
" />
<path d="M839.0086 26.4548
L839.0086 25.4548
" />
<path d="M839.0086 25.4548
L839.4848 25.4548
" />
<path d="M839.6752 26.5501
L840.4371 26.5501
" />
<path d="M840.6276 26.4072
L840.7705 26.4548
" />
<path d="M840.7705 26.4548
L841.0086 26.4548
" />
<path d="M841.0086 26.4548
L841.1038 26.4072
" />
<path d="M841.1038 26.4072
L841.1514 26.3596
" />
<path d="M841.1514 26.3596
L841.1990 26.2643
" />
<path d="M841.1990 26.2643
L841.1990 26.1691
" />
<path d="M841.1990 26.1691
L841.1514 26.0739
" />
<path d="M841.1514 26.0739
L841.1038 26.0262
" />
<path d="M841.1038 26.0262
L841.0086 25.9786
" />
<path d="M841.0086 25.9786
L840.8181 25.9310
" />
<path d="M840.8181 25.9310
L840.7229 25.8834
" />
<path d="M840.7229 25.8834
L840.6752 25.8358
" />
<path d="M840.6752 25.8358
L840.6276 25.7405
" />
<path d="M840.6276 25.7405
L840.6276 25.6453
" />
<path d="M840.6276 25.6453
L840.6752 25.5501
" />
<path d="M840.6752 25.5501
L840.7229 25.5024
" />
<path d="M840.7229 25.5024
L840.8181 25.4548
" />
<path d="M840.8181 25.4548
L841.0562 25.4548
" />
<path d="M841.0562 25.4548
L841.1990 25.5024
" />
</g><text x="905.6600" y="26.5000"
textLength="3.8690" font-size="1.3333" lengthAdjust="spacingAndGlyphs"
text-anchor="middle" opacity="0" stroke-opacity="0">RMID</text>
<g class="stroked-text"><desc>RMID</desc>
<path d="M904.6600 26.4548
L904.3267 25.9786
" />
<path d="M904.0886 26.4548
L904.0886 25.4548
" />
<path d="M904.0886 25.4548
L904.4695 25.4548
" />
<path d="M904.4695 25.4548
L904.5648 25.5024
" />
<path d="M904.5648 25.5024
L904.6124 25.5501
" />
<path d="M904.6124 25.5501
L904.6600 25.6453
" />
<path d="M904.6600 25.6453
L904.6600 25.7882
" />
<path d="M904.6600 25.7882
L904.6124 25.8834
" />
<path d="M904.6124 25.8834
L904.5648 25.9310
" />
<path d="M904.5648 25.9310
L904.4695 25.9786
" />
<path d="M904.4695 25.9786
L904.0886 25.9786
" />
<path d="M905.0886 26.4548
L905.0886 25.4548
" />
<path d="M905.0886 25.4548
L905.4219 26.1691
" />
<path d="M905.4219 26.1691
L905.7552 25.4548
" />
<path d="M905.7552 25.4548
L905.7552 26.4548
" />
<path d="M906.2314 26.4548
L906.2314 25.4548
" />
<path d="M906.7076 26.4548
L906.7076 25.4548
" />
<path d="M906.7076 25.4548
L906.9457 25.4548
" />
<path d="M906.9457 25.4548
L907.0886 25.5024
" />
<path d="M907.0886 25.5024
L907.1838 25.5977
" />
<path d="M907.1838 25.5977
L907.2314 25.6929
" />
<path d="M907.2314 25.6929
L907.2790 25.8834
" />
<path d="M907.2790 25.8834
L907.2790 26.0262
" />
<path d="M907.2790 26.0262
L907.2314 26.2167
" />
<path d="M907.2314 26.2167
L907.1838 26.3120
" />
<path d="M907.1838 26.3120
L907.0886 26.4072
" />
<path d="M907.0886 26.4072
L906.9457 26.4548
" />
<path d="M906.9457 26.4548
L906.7076 26.4548
" />
</g><text x="972.7400" y="26.5000"
textLength="3.8690" font-size="1.3333" lengthAdjust="spacingAndGlyphs"
text-anchor="middle" opacity="0" stroke-opacity="0">CMID</text>
<g class="stroked-text"><desc>CMID</desc>
<path d="M971.7400 26.3596
L971.6924 26.4072
" />
<path d="M971.6924 26.4072
L971.5495 26.4548
" />
<path d="M971.5495 26.4548
L971.4543 26.4548
" />
<path d="M971.4543 26.4548
L971.3114 26.4072
" />
<path d="M971.3114 26.4072
L971.2162 26.3120
" />
<path d="M971.2162 26.3120
L971.1686 26.2167
" />
<path d="M971.1686 26.2167
L971.1210 26.0262
" />
<path d="M971.1210 26.0262
L971.1210 25.8834
" />
<path d="M971.1210 25.8834
L971.1686 25.6929
" />
<path d="M971.1686 25.6929
L971.2162 25.5977
" />
<path d="M971.2162 25.5977
L971.3114 25.5024
" />
<path d="M971.3114 25.5024
L971.4543 25.4548
" />
<path d="M971.4543 25.4548
L971.5495 25.4548
" />
<path d="M971.5495 25.4548
L971.6924 25.5024
" />
<path d="M971.6924 25.5024
L971.7400 25.5501
" />
<path d="M972.1686 26.4548
L972.1686 25.4548
" />
<path d="M972.1686 25.4548
L972.5019 26.1691
" />
<path d="M972.5019 26.1691
L972.8352 25.4548
" />
<path d="M972.8352 25.4548
L972.8352 26.4548
" />
<path d="M973.3114 26.4548
L973.3114 25.4548
" />
<path d="M973.7876 26.4548
L973.7876 25.4548
" />
<path d="M973.7876 25.4548
L974.0257 25.4548
" />
<path d="M974.0257 25.4548
L974.1686 25.5024
" />
<path d="M974.1686 25.5024
L974.2638 25.5977
" />
<path d="M974.2638 25.5977
L974.3114 25.6929
" />
<path d="M974.3114 25.6929
L974.3590 25.8834
" />
<path d="M974.3590 25.8834
L974.3590 26.0262
" />
<path d="M974.3590 26.0262
L974.3114 26.2167
" />
<path d="M974.3114 26.2167
L974.2638 26.3120
" />
<path d="M974.2638 26.3120
L974.1686 26.4072
" />
<path d="M974.1686 26.4072
L974.0257 26.4548
" />
<path d="M974.0257 26.4548
L973.7876 26.4548
" />
</g><text x="1039.8200" y="26.5000"
textLength="6.6310" font-size="1.3333" lengthAdjust="spacingAndGlyphs"
text-anchor="middle" opacity="0" stroke-opacity="0">RTREBLE</text>
<g class="stroked-text"><desc>RTREBLE</desc>
<path d="M1037.4390 26.4548
L1037.1057 25.9786
" />
<path d="M1036.8676 26.4548
L1036.8676 25.4548
" />
<path d="M1036.8676 25.4548
L1037.2486 25.4548
" />
<path d="M1037.2486 25.4548
L1037.3438 25.5024
" />
<path d="M1037.3438 25.5024
L1037.3914 25.5501
" />
<path d="M1037.3914 25.5501
L1037.4390 25.6453
" />
<path d="M1037.4390 25.6453
L1037.4390 25.7882
" />
<path d="M1037.4390 25.7882
L1037.3914 25.8834
" />
<path d="M1037.3914 25.8834
L1037.3438 25.9310
" />
<path d="M1037.3438 25.9310
L1037.2486 25.9786
" />
<path d="M1037.2486 25.9786
L1036.8676 25.9786
" />
<path d="M1037.7248 25.4548
L1038.2962 25.4548
" />
<path d="M1038.0105 26.4548
L1038.0105 25.4548
" />
<path d="M1039.2010 26.4548
L1038.8676 25.9786
" />
<path d="M1038.6295 26.4548
L1038.6295 25.4548
" />
<path d="M1038.6295 25.4548
L1039.0105 25.4548
" />
<path d="M1039.0105 25.4548
L1039.1057 25.5024
" />
<path d="M1039.1057 25.5024
L1039.1533 25.5501
" />
<path d="M1039.1533 25.5501
L1039.2010 25.6453
" />
<path d="M1039.2010 25.6453
L1039.2010 25.7882
" />
<path d="M1039.2010 25.7882
L1039.1533 25.8834
" />
<path d="M1039.1533 25.8834
L1039.1057 25.9310
" />
<path d="M1039.1057 25.9310
L1039.0105 25.9786
" />
<path d="M1039.0105 25.9786
L1038.6295 25.9786
" />
<path d="M1039.6295 25.9310
L1039.9629 25.9310
" />
<path d="M1040.1057 26.4548
L1039.6295 26.4548
" />
<path d="M1039.6295 26.4548
L1039.6295 25.4548
" />
<path d="M1039.6295 25.4548
L1040.1057 25.4548
" />
<path d="M1040.8676 25.9310
L1041.0105 25.9786
" />
<path d="M1041.0105 25.9786
L1041.0581 26.0262
" />
<path d="M1041.0581 26.0262
L1041.1057 26.1215
" />
<path d="M1041.1057 26.1215
L1041.1057 26.2643
" />
<path d="M1041.1057 26.2643
L1041.0581 26.3596
" />
<path d="M1041.0581 26.3596
L1041.0105 26.4072
" />
<path d="M1041.0105 26.4072
L1040.9152 26.4548
" />
<path d="M1040.9152 26.4548
L1040.5343 26.4548
" />
<path d="M1040.5343 26.4548
L1040.5343 25.4548
" />
<path d="M1040.5343 25.4548
L1040.8676 25.4548
" />
<path d="M1040.8676 25.4548
L1040.9629 25.5024
" />
<path d="M1040.9629 25.5024
L1041.0105 25.5501
" />
<path d="M1041.0105 25.5501
L1041.0581 25.6453
" />
<path d="M1041.0581 25.6453
L1041.0581 25.7405
" />
<path d="M1041.0581 25.7405
L1041.0105 25.8358
" />
<path d="M1041.0105 25.8358
L1040.9629 25.8834
" />
<path d="M1040.9629 25.8834
L1040.8676 25.9310
" />
<path d="M1040.8676 25.9310
L1040.5343 25.9310
" />
<path d="M1042.0105 26.4548
L1041.5343 26.4548
" />
<path d="M1041.5343 26.4548
L1041.5343 25.4548
" />
<path d="M1042.3438 25.9310
L1042.6771 25.9310
" />
<path d="M1042.8200 26.4548
L1042.3438 26.4548
" />
<path d="M1042.3438 26.4548
L1042.3438 25.4548
" />
<path d="M1042.3438 25.4548
L1042.8200 25.4548
" />
</g><text x="1106.9000" y="26.5000"
textLength="6.6310" font-size="1.3333" lengthAdjust="spacingAndGlyphs"
text-anchor="middle" opacity="0" stroke-opacity="0">CTREBLE</text>
<g class="stroked-text"><desc>CTREBLE</desc>
<path d="M1104.5190 26.3596
L1104.4714 26.4072
" />
<path d="M1104.4714 26.4072
L1104.3286 26.4548
" />
<path d="M1104.3286 26.4548
L1104.2333 26.4548
" />
<path d="M1104.2333 26.4548
L1104.0905 26.4072
" />
<path d="M1104.0905 26.4072
L1103.9952 26.3120
" />
<path d="M1103.9952 26.3120
L1103.9476 26.2167
" />
<path d="M1103.9476 26.2167
L1103.9000 26.0262
" />
<path d="M1103.9000 26.0262
L1103.9000 25.8834
" />
<path d="M1103.9000 25.8834
L1103.9476 25.6929
" />
<path d="M1103.9476 25.6929
L1103.9952 25.5977
" />
<path d="M1103.9952 25.5977
L1104.0905 25.5024
" />
<path d="M1104.0905 25.5024
L1104.2333 25.4548
" />
<path d="M1104.2333 25.4548
L1104.3286 25.4548
" />
<path d="M1104.3286 25.4548
L1104.4714 25.5024
" />
<path d="M1104.4714 25.5024
L1104.5190 25.5501
" />
<path d="M1104.8048 25.4548
L1105.3762 25.4548
" />
<path d="M1105.0905 26.4548
L1105.0905 25.4548
" />
<path d="M1106.2810 26.4548
L1105.9476 25.9786
" />
<path d="M1105.7095 26.4548
L1105.7095 25.4548
" />
<path d="M1105.7095 25.4548
L1106.0905 25.4548
" />
<path d="M1106.0905 25.4548
L1106.1857 25.5024
" />
<path d="M1106.1857 25.5024
L1106.2333 25.5501
" />
<path d="M1106.2333 25.5501
L1106.2810 25.6453
" />
<path d="M1106.2810 25.6453
L1106.2810 25.7882
" />
<path d="M1106.2810 25.7882
L1106.2333 25.8834
" />
<path d="M1106.2333 25.8834
L1106.1857 25.9310
" />
<path d="M1106.1857 25.9310
L1106.0905 25.9786
" />
<path d="M1106.0905 25.9786
L1105.7095 25.9786
" />
<path d="M1106.7095 25.9310
L1107.0429 25.9310
" />
<path d="M1107.1857 26.4548
L1106.7095 26.4548
" />
<path d="M1106.7095 26.4548
L1106.7095 25.4548
" />
<path d="M1106.7095 25.4548
L1107.1857 25.4548
" />
<path d="M1107.9476 25.9310
L1108.0905 25.9786
" />
<path d="M1108.0905 25.9786
L1108.1381 26.0262
" />
<path d="M1108.1381 26.0262
L1108.1857 26.1215
" />
<path d="M1108.1857 26.1215
L1108.1857 26.2643
" />
<path d="M1108.1857 26.2643
L1108.1381 26.3596
" />
<path d="M1108.1381 26.3596
L1108.0905 26.4072
" />
<path d="M1108.0905 26.4072
L1107.9952 26.4548
" />
<path d="M1107.9952 26.4548
L1107.6143 26.4548
" />
<path d="M1107.6143 26.4548
L1107.6143 25.4548
" />
<path d="M1107.6143 25.4548
L1107.9476 25.4548
" />
<path d="M1107.9476 25.4548
L1108.0429 25.5024
" />
<path d="M1108.0429 25.5024
L1108.0905 25.5501
" />
<path d="M1108.0905 25.5501
L1108.1381 25.6453
" />
<path d="M1108.1381 25.6453
L1108.1381 25.7405
" />
<path d="M1108.1381 25.7405
L1108.0905 25.8358
" />
<path d="M1108.0905 25.8358
L1108.0429 25.8834
" />
<path d="M1108.0429 25.8834
L1107.9476 25.9310
" />
<path d="M1107.9476 25.9310
L1107.6143 25.9310
" />
<path d="M1109.0905 26.4548
L1108.6143 26.4548
" />
<path d="M1108.6143 26.4548
L1108.6143 25.4548
" />
<path d="M1109.4238 25.9310
L1109.7571 25.9310
" />
<path d="M1109.9000 26.4548
L1109.4238 26.4548
" />
<path d="M1109.4238 26.4548
L1109.4238 25.4548
" />
<path d="M1109.4238 25.4548
L1109.9000 25.4548
" />
</g><text x="1173.9800" y="26.5000"
textLength="5.1071" font-size="1.3333" lengthAdjust="spacingAndGlyphs"
text-anchor="middle" opacity="0" stroke-opacity="0">RFILT1</text>
<g class="stroked-text"><desc>RFILT1</desc>
<path d="M1172.3610 26.4548
L1172.0276 25.9786
" />
<path d="M1171.7895 26.4548
L1171.7895 25.4548
" />
<path d="M1171.7895 25.4548
L1172.1705 25.4548
" />
<path d="M1172.1705 25.4548
L1172.2657 25.5024
" />
<path d="M1172.2657 25.5024
L1172.3133 25.5501
" />
<path d="M1172.3133 25.5501
L1172.3610 25.6453
" />
<path d="M1172.3610 25.6453
L1172.3610 25.7882
" />
<path d="M1172.3610 25.7882
L1172.3133 25.8834
" />
<path d="M1172.3133 25.8834
L1172.2657 25.9310
" />
<path d="M1172.2657 25.9310
L1172.1705 25.9786
" />
<path d="M1172.1705 25.9786
L1171.7895 25.9786
" />
<path d="M1173.1229 25.9310
L1172.7895 25.9310
" />
<path d="M1172.7895 26.4548
L1172.7895 25.4548
" />
<path d="M1172.7895 25.4548
L1173.2657 25.4548
" />
<path d="M1173.6467 26.4548
L1173.6467 25.4548
" />
<path d="M1174.5990 26.4548
L1174.1229 26.4548
" />
<path d="M1174.1229 26.4548
L1174.1229 25.4548
" />
<path d="M1174.7895 25.4548
L1175.3610 25.4548
" />
<path d="M1175.0752 26.4548
L1175.0752 25.4548
" />
<path d="M1176.2181 26.4548
L1175.6467 26.4548
" />
<path d="M1175.9324 26.4548
L1175.9324 25.4548
" />
<path d="M1175.9324 25.4548
L1175.8371 25.5977
" />
<path d="M1175.8371 25.5977
L1175.7419 25.6929
" />
<path d="M1175.7419 25.6929
L1175.6467 25.7405
" />
</g><text x="1241.0600" y="26.5000"
textLength="5.1071" font-size="1.3333" lengthAdjust="spacingAndGlyphs"
text-anchor="middle" opacity="0" stroke-opacity="0">CFILT1</text>
<g class="stroked-text"><desc>CFILT1</desc>
<path d="M1239.4410 26.3596
L1239.3933 26.4072
" />
<path d="M1239.3933 26.4072
L1239.2505 26.4548
" />
<path d="M1239.2505 26.4548
L1239.1552 26.4548
" />
<path d="M1239.1552 26.4548
L1239.0124 26.4072
" />
<path d="M1239.0124 26.4072
L1238.9171 26.3120
" />
<path d="M1238.9171 26.3120
L1238.8695 26.2167
" />
<path d="M1238.8695 26.2167
L1238.8219 26.0262
" />
<path d="M1238.8219 26.0262
L1238.8219 25.8834
" />
<path d="M1238.8219 25.8834
L1238.8695 25.6929
" />
<path d="M1238.8695 25.6929
L1238.9171 25.5977
" />
<path d="M1238.9171 25.5977
L1239.0124 25.5024
" />
<path d="M1239.0124 25.5024
L1239.1552 25.4548
" />
<path d="M1239.1552 25.4548
L1239.2505 25.4548
" />
<path d="M1239.2505 25.4548
L1239.3933 25.5024
" />
<path d="M1239.3933 25.5024
L1239.4410 25.5501
" />
<path d="M1240.2029 25.9310
L1239.8695 25.9310
" />
<path d="M1239.8695 26.4548
L1239.8695 25.4548
" />
<path d="M1239.8695 25.4548
L1240.3457 25.4548
" />
<path d="M1240.7267 26.4548
L1240.7267 25.4548
" />
<path d="M1241.6790 26.4548
L1241.2029 26.4548
" />
<path d="M1241.2029 26.4548
L1241.2029 25.4548
" />
<path d="M1241.8695 25.4548
L1242.4410 25.4548
" />
<path d="M1242.1552 26.4548
L1242.1552 25.4548
" />
<path d="M1243.2981 26.4548
L1242.7267 26.4548
" />
<path d="M1243.0124 26.4548
L1243.0124 25.4548
" />
<path d="M1243.0124 25.4548
L1242.9171 25.5977
" />
<path d="M1242.9171 25.5977
L1242.8219 25.6929
" />
<path d="M1242.8219 25.6929
L1242.7267 25.7405
" />
</g><text x="1308.1400" y="26.5000"
textLength="6.9167" font-size="1.3333" lengthAdjust="spacingAndGlyphs"
text-anchor="middle" opacity="0" stroke-opacity="0">RVBOOST</text>
<g class="stroked-text"><desc>RVBOOST</desc>
<path d="M1305.6162 26.4548
L1305.2829 25.9786
" />
<path d="M1305.0448 26.4548
L1305.0448 25.4548
" />
<path d="M1305.0448 25.4548
L1305.4257 25.4548
" />
<path d="M1305.4257 25.4548
L1305.5210 25.5024
" />
<path d="M1305.5210 25.5024
L1305.5686 25.5501
" />
<path d="M1305.5686 25.5501
L1305.6162 25.6453
" />
<path d="M1305.6162 25.6453
L1305.6162 25.7882
" />
<path d="M1305.6162 25.7882
L1305.5686 25.8834
" />
<path d="M1305.5686 25.8834
L1305.5210 25.9310
" />
<path d="M1305.5210 25.9310
L1305.4257 25.9786
" />
<path d="M1305.4257 25.9786
L1305.0448 25.9786
" />
<path d="M1305.9019 25.4548
L1306.2352 26.4548
" />
<path d="M1306.2352 26.4548
L1306.5686 25.4548
" />
<path d="M1307.2352 25.9310
L1307.3781 25.9786
" />
<path d="M1307.3781 25.9786
L1307.4257 26.0262
" />
<path d="M1307.4257 26.0262
L1307.4733 26.1215
" />
<path d="M1307.4733 26.1215
L1307.4733 26.2643
" />
<path d="M1307.4733 26.2643
L1307.4257 26.3596
" />
<path d="M1307.4257 26.3596
L1307.3781 26.4072
" />
<path d="M1307.3781 26.4072
L1307.2829 26.4548
" />
<path d="M1307.2829 26.4548
L1306.9019 26.4548
" />
<path d="M1306.9019 26.4548
L1306.9019 25.4548
" />
<path d="M1306.9019 25.4548
L1307.2352 25.4548
" />
<path d="M1307.2352 25.4548
L1307.3305 25.5024
" />
<path d="M1307.3305 25.5024
L1307.3781 25.5501
" />
<path d="M1307.3781 25.5501
L1307.4257 25.6453
" />
<path d="M1307.4257 25.6453
L1307.4257 25.7405
" />
<path d="M1307.4257 25.7405
L1307.3781 25.8358
" />
<path d="M1307.3781 25.8358
L1307.3305 25.8834
" />
<path d="M1307.3305 25.8834
L1307.2352 25.9310
" />
<path d="M1307.2352 25.9310
L1306.9019 25.9310
" />
<path d="M1308.0924 25.4548
L1308.2829 25.4548
" />
<path d="M1308.2829 25.4548
L1308.3781 25.5024
" />
<path d="M1308.3781 25.5024
L1308.4733 25.5977
" />
<path d="M1308.4733 25.5977
L1308.5210 25.7882
" />
<path d="M1308.5210 25.7882
L1308.5210 26.1215
" />
<path d="M1308.5210 26.1215
L1308.4733 26.3120
" />
<path d="M1308.4733 26.3120
L1308.3781 26.4072
" />
<path d="M1308.3781 26.4072
L1308.2829 26.4548
" />
<path d="M1308.2829 26.4548
L1308.0924 26.4548
" />
<path d="M1308.0924 26.4548
L1307.9971 26.4072
" />
<path d="M1307.9971 26.4072
L1307.9019 26.3120
" />
<path d="M1307.9019 26.3120
L1307.8543 26.1215
" />
<path d="M1307.8543 26.1215
L1307.8543 25.7882
" />
<path d="M1307.8543 25.7882
L1307.9019 25.5977
" />
<path d="M1307.9019 25.5977
L1307.9971 25.5024
" />
<path d="M1307.9971 25.5024
L1308.0924 25.4548
" />
<path d="M1309.1400 25.4548
L1309.3305 25.4548
" />
<path d="M1309.3305 25.4548
L1309.4257 25.5024
" />
<path d="M1309.4257 25.5024
L1309.5210 25.5977
" />
<path d="M1309.5210 25.5977
L1309.5686 25.7882
" />
<path d="M1309.5686 25.7882
L1309.5686 26.1215
" />
<path d="M1309.5686 26.1215
L1309.5210 26.3120
" />
<path d="M1309.5210 26.3120
L1309.4257 26.4072
" />
<path d="M1309.4257 26.4072
L1309.3305 26.4548
" />
<path d="M1309.3305 26.4548
L1309.1400 26.4548
" />
<path d="M1309.1400 26.4548
L1309.0448 26.4072
" />
<path d="M1309.0448 26.4072
L1308.9495 26.3120
" />
<path d="M1308.9495 26.3120
L1308.9019 26.1215
" />
<path d="M1308.9019 26.1215
L1308.9019 25.7882
" />
<path d="M1308.9019 25.7882
L1308.9495 25.5977
" />
<path d="M1308.9495 25.5977
L1309.0448 25.5024
" />
<path d="M1309.0448 25.5024
L1309.1400 25.4548
" />
<path d="M1309.9495 26.4072
L1310.0924 26.4548
" />
<path d="M1310.0924 26.4548
L1310.3305 26.4548
" />
<path d="M1310.3305 26.4548
L1310.4257 26.4072
" />
<path d="M1310.4257 26.4072
L1310.4733 26.3596
" />
<path d="M1310.4733 26.3596
L1310.5210 26.2643
" />
<path d="M1310.5210 26.2643
L1310.5210 26.1691
" />
<path d="M1310.5210 26.1691
L1310.4733 26.0739
" />
<path d="M1310.4733 26.0739
L1310.4257 26.0262
" />
<path d="M1310.4257 26.0262
L1310.3305 25.9786
" />
<path d="M1310.3305 25.9786
L1310.1400 25.9310
" />
<path d="M1310.1400 25.9310
L1310.0448 25.8834
" />
<path d="M1310.0448 25.8834
L1309.9971 25.8358
" />
<path d="M1309.9971 25.8358
L1309.9495 25.7405
" />
<path d="M1309.9495 25.7405
L1309.9495 25.6453
" />
<path d="M1309.9495 25.6453
L1309.9971 25.5501
" />
<path d="M1309.9971 25.5501
L1310.0448 25.5024
" />
<path d="M1310.0448 25.5024
L1310.1400 25.4548
" />
<path d="M1310.1400 25.4548
L1310.3781 25.4548
" />
<path d="M1310.3781 25.4548
L1310.5210 25.5024
" />
<path d="M1310.8067 25.4548
L1311.3781 25.4548
" />
<path d="M1311.0924 26.4548
L1311.0924 25.4548
" />
</g><text x="1377.7600" y="26.5000"
textLength="5.1071" font-size="1.3333" lengthAdjust="spacingAndGlyphs"
text-anchor="middle" opacity="0" stroke-opacity="0">QDRV1</text>
<g class="stroked-text"><desc>QDRV1</desc>
<path d="M1376.2362 26.5501
L1376.1410 26.5024
" />
<path d="M1376.1410 26.5024
L1376.0457 26.4072
" />
<path d="M1376.0457 26.4072
L1375.9029 26.2643
" />
<path d="M1375.9029 26.2643
L1375.8076 26.2167
" />
<path d="M1375.8076 26.2167
L1375.7124 26.2167
" />
<path d="M1375.7600 26.4548
L1375.6648 26.4072
" />
<path d="M1375.6648 26.4072
L1375.5695 26.3120
" />
<path d="M1375.5695 26.3120
L1375.5219 26.1215
" />
<path d="M1375.5219 26.1215
L1375.5219 25.7882
" />
<path d="M1375.5219 25.7882
L1375.5695 25.5977
" />
<path d="M1375.5695 25.5977
L1375.6648 25.5024
" />
<path d="M1375.6648 25.5024
L1375.7600 25.4548
" />
<path d="M1375.7600 25.4548
L1375.9505 25.4548
" />
<path d="M1375.9505 25.4548
L1376.0457 25.5024
" />
<path d="M1376.0457 25.5024
L1376.1410 25.5977
" />
<path d="M1376.1410 25.5977
L1376.1886 25.7882
" />
<path d="M1376.1886 25.7882
L1376.1886 26.1215
" />
<path d="M1376.1886 26.1215
L1376.1410 26.3120
" />
<path d="M1376.1410 26.3120
L1376.0457 26.4072
" />
<path d="M1376.0457 26.4072
L1375.9505 26.4548
" />
<path d="M1375.9505 26.4548
L1375.7600 26.4548
" />
<path d="M1376.6171 26.4548
L1376.6171 25.4548
" />
<path d="M1376.6171 25.4548
L1376.8552 25.4548
" />
<path d="M1376.8552 25.4548
L1376.9981 25.5024
" />
<path d="M1376.9981 25.5024
L1377.0933 25.5977
" />
<path d="M1377.0933 25.5977
L1377.1410 25.6929
" />
<path d="M1377.1410 25.6929
L1377.1886 25.8834
" />
<path d="M1377.1886 25.8834
L1377.1886 26.0262
" />
<path d="M1377.1886 26.0262
L1377.1410 26.2167
" />
<path d="M1377.1410 26.2167
L1377.0933 26.3120
" />
<path d="M1377.0933 26.3120
L1376.9981 26.4072
" />
<path d="M1376.9981 26.4072
L1376.8552 26.4548
" />
<path d="M1376.8552 26.4548
L1376.6171 26.4548
" />
<path d="M1378.1886 26.4548
L1377.8552 25.9786
" />
<path d="M1377.6171 26.4548
L1377.6171 25.4548
" />
<path d="M1377.6171 25.4548
L1377.9981 25.4548
" />
<path d="M1377.9981 25.4548
L1378.0933 25.5024
" />
<path d="M1378.0933 25.5024
L1378.1410 25.5501
" />
<path d="M1378.1410 25.5501
L1378.1886 25.6453
" />
<path d="M1378.1886 25.6453
L1378.1886 25.7882
" />
<path d="M1378.1886 25.7882
L1378.1410 25.8834
" />
<path d="M1378.1410 25.8834
L1378.0933 25.9310
" />
<path d="M1378.0933 25.9310
L1377.9981 25.9786
" />
<path d="M1377.9981 25.9786
L1377.6171 25.9786
" />
<path d="M1378.4743 25.4548
L1378.8076 26.4548
" />
<path d="M1378.8076 26.4548
L1379.1410 25.4548
" />
<path d="M1379.9981 26.4548
L1379.4267 26.4548
" />
<path d="M1379.7124 26.4548
L1379.7124 25.4548
" />
<path d="M1379.7124 25.4548
L1379.6171 25.5977
" />
<path d="M1379.6171 25.5977
L1379.5219 25.6929
" />
<path d="M1379.5219 25.6929
L1379.4267 25.7405
" />
</g><text x="1447.3800" y="26.5000"
textLength="5.8690" font-size="1.3333" lengthAdjust="spacingAndGlyphs"
text-anchor="middle" opacity="0" stroke-opacity="0">RDRV_C</text>
<g class="stroked-text"><desc>RDRV_C</desc>
<path d="M1445.3800 26.4548
L1445.0467 25.9786
" />
<path d="M1444.8086 26.4548
L1444.8086 25.4548
" />
<path d="M1444.8086 25.4548
L1445.1895 25.4548
" />
<path d="M1445.1895 25.4548
L1445.2848 25.5024
" />
<path d="M1445.2848 25.5024
L1445.3324 25.5501
" />
<path d="M1445.3324 25.5501
L1445.3800 25.6453
" />
<path d="M1445.3800 25.6453
L1445.3800 25.7882
" />
<path d="M1445.3800 25.7882
L1445.3324 25.8834
" />
<path d="M1445.3324 25.8834
L1445.2848 25.9310
" />
<path d="M1445.2848 25.9310
L1445.1895 25.9786
" />
<path d="M1445.1895 25.9786
L1444.8086 25.9786
" />
<path d="M1445.8086 26.4548
L1445.8086 25.4548
" />
<path d="M1445.8086 25.4548
L1446.0467 25.4548
" />
<path d="M1446.0467 25.4548
L1446.1895 25.5024
" />
<path d="M1446.1895 25.5024
L1446.2848 25.5977
" />
<path d="M1446.2848 25.5977
L1446.3324 25.6929
" />
<path d="M1446.3324 25.6929
L1446.3800 25.8834
" />
<path d="M1446.3800 25.8834
L1446.3800 26.0262
" />
<path d="M1446.3800 26.0262
L1446.3324 26.2167
" />
<path d="M1446.3324 26.2167
L1446.2848 26.3120
" />
<path d="M1446.2848 26.3120
L1446.1895 26.4072
" />
<path d="M1446.1895 26.4072
L1446.0467 26.4548
" />
<path d="M1446.0467 26.4548
L1445.8086 26.4548
" />
<path d="M1447.3800 26.4548
L1447.0467 25.9786
" />
<path d="M1446.8086 26.4548
L1446.8086 25.4548
" />
<path d="M1446.8086 25.4548
L1447.1895 25.4548
" />
<path d="M1447.1895 25.4548
L1447.2848 25.5024
" />
<path d="M1447.2848 25.5024
L1447.3324 25.5501
" />
<path d="M1447.3324 25.5501
L1447.3800 25.6453
" />
<path d="M1447.3800 25.6453
L1447.3800 25.7882
" />
<path d="M1447.3800 25.7882
L1447.3324 25.8834
" />
<path d="M1447.3324 25.8834
L1447.2848 25.9310
" />
<path d="M1447.2848 25.9310
L1447.1895 25.9786
" />
<path d="M1447.1895 25.9786
L1446.8086 25.9786
" />
<path d="M1447.6657 25.4548
L1447.9990 26.4548
" />
<path d="M1447.9990 26.4548
L1448.3324 25.4548
" />
<path d="M1448.4276 26.5501
L1449.1895 26.5501
" />
<path d="M1449.9990 26.3596
L1449.9514 26.4072
" />
<path d="M1449.9514 26.4072
L1449.8086 26.4548
" />
<path d="M1449.8086 26.4548
L1449.7133 26.4548
" />
<path d="M1449.7133 26.4548
L1449.5705 26.4072
" />
<path d="M1449.5705 26.4072
L1449.4752 26.3120
" />
<path d="M1449.4752 26.3120
L1449.4276 26.2167
" />
<path d="M1449.4276 26.2167
L1449.3800 26.0262
" />
<path d="M1449.3800 26.0262
L1449.3800 25.8834
" />
<path d="M1449.3800 25.8834
L1449.4276 25.6929
" />
<path d="M1449.4276 25.6929
L1449.4752 25.5977
" />
<path d="M1449.4752 25.5977
L1449.5705 25.5024
" />
<path d="M1449.5705 25.5024
L1449.7133 25.4548
" />
<path d="M1449.7133 25.4548
L1449.8086 25.4548
" />
<path d="M1449.8086 25.4548
L1449.9514 25.5024
" />
<path d="M1449.9514 25.5024
L1449.9990 25.5501
" />
</g><text x="1514.4600" y="26.5000"
textLength="5.1071" font-size="1.3333" lengthAdjust="spacingAndGlyphs"
text-anchor="middle" opacity="0" stroke-opacity="0">QOUT1</text>
<g class="stroked-text"><desc>QOUT1</desc>
<path d="M1512.9362 26.5501
L1512.8410 26.5024
" />
<path d="M1512.8410 26.5024
L1512.7457 26.4072
" />
<path d="M1512.7457 26.4072
L1512.6029 26.2643
" />
<path d="M1512.6029 26.2643
L1512.5076 26.2167
" />
<path d="M1512.5076 26.2167
L1512.4124 26.2167
" />
<path d="M1512.4600 26.4548
L1512.3648 26.4072
" />
<path d="M1512.3648 26.4072
L1512.2695 26.3120
" />
<path d="M1512.2695 26.3120
L1512.2219 26.1215
" />
<path d="M1512.2219 26.1215
L1512.2219 25.7882
" />
<path d="M1512.2219 25.7882
L1512.2695 25.5977
" />
<path d="M1512.2695 25.5977
L1512.3648 25.5024
" />
<path d="M1512.3648 25.5024
L1512.4600 25.4548
" />
<path d="M1512.4600 25.4548
L1512.6505 25.4548
" />
<path d="M1512.6505 25.4548
L1512.7457 25.5024
" />
<path d="M1512.7457 25.5024
L1512.8410 25.5977
" />
<path d="M1512.8410 25.5977
L1512.8886 25.7882
" />
<path d="M1512.8886 25.7882
L1512.8886 26.1215
" />
<path d="M1512.8886 26.1215
L1512.8410 26.3120
" />
<path d="M1512.8410 26.3120
L1512.7457 26.4072
" />
<path d="M1512.7457 26.4072
L1512.6505 26.4548
" />
<path d="M1512.6505 26.4548
L1512.4600 26.4548
" />
<path d="M1513.5076 25.4548
L1513.6981 25.4548
" />
<path d="M1513.6981 25.4548
L1513.7933 25.5024
" />
<path d="M1513.7933 25.5024
L1513.8886 25.5977
" />
<path d="M1513.8886 25.5977
L1513.9362 25.7882
" />
<path d="M1513.9362 25.7882
L1513.9362 26.1215
" />
<path d="M1513.9362 26.1215
L1513.8886 26.3120
" />
<path d="M1513.8886 26.3120
L1513.7933 26.4072
" />
<path d="M1513.7933 26.4072
L1513.6981 26.4548
" />
<path d="M1513.6981 26.4548
L1513.5076 26.4548
" />
<path d="M1513.5076 26.4548
L1513.4124 26.4072
" />
<path d="M1513.4124 26.4072
L1513.3171 26.3120
" />
<path d="M1513.3171 26.3120
L1513.2695 26.1215
" />
<path d="M1513.2695 26.1215
L1513.2695 25.7882
" />
<path d="M1513.2695 25.7882
L1513.3171 25.5977
" />
<path d="M1513.3171 25.5977
L1513.4124 25.5024
" />
<path d="M1513.4124 25.5024
L1513.5076 25.4548
" />
<path d="M1514.3648 25.4548
L1514.3648 26.2643
" />
<path d="M1514.3648 26.2643
L1514.4124 26.3596
" />
<path d="M1514.4124 26.3596
L1514.4600 26.4072
" />
<path d="M1514.4600 26.4072
L1514.5552 26.4548
" />
<path d="M1514.5552 26.4548
L1514.7457 26.4548
" />
<path d="M1514.7457 26.4548
L1514.8410 26.4072
" />
<path d="M1514.8410 26.4072
L1514.8886 26.3596
" />
<path d="M1514.8886 26.3596
L1514.9362 26.2643
" />
<path d="M1514.9362 26.2643
L1514.9362 25.4548
" />
<path d="M1515.2695 25.4548
L1515.8410 25.4548
" />
<path d="M1515.5552 26.4548
L1515.5552 25.4548
" />
<path d="M1516.6981 26.4548
L1516.1267 26.4548
" />
<path d="M1516.4124 26.4548
L1516.4124 25.4548
" />
<path d="M1516.4124 25.4548
L1516.3171 25.5977
" />
<path d="M1516.3171 25.5977
L1516.2219 25.6929
" />
<path d="M1516.2219 25.6929
L1516.1267 25.7405
" />
</g><text x="1584.0800" y="26.5000"
textLength="4.5357" font-size="1.3333" lengthAdjust="spacingAndGlyphs"
text-anchor="middle" opacity="0" stroke-opacity="0">REMIT</text>
<g class="stroked-text"><desc>REMIT</desc>
<path d="M1582.7467 26.4548
L1582.4133 25.9786
" />
<path d="M1582.1752 26.4548
L1582.1752 25.4548
" />
<path d="M1582.1752 25.4548
L1582.5562 25.4548
" />
<path d="M1582.5562 25.4548
L1582.6514 25.5024
" />
<path d="M1582.6514 25.5024
L1582.6990 25.5501
" />
<path d="M1582.6990 25.5501
L1582.7467 25.6453
" />
<path d="M1582.7467 25.6453
L1582.7467 25.7882
" />
<path d="M1582.7467 25.7882
L1582.6990 25.8834
" />
<path d="M1582.6990 25.8834
L1582.6514 25.9310
" />
<path d="M1582.6514 25.9310
L1582.5562 25.9786
" />
<path d="M1582.5562 25.9786
L1582.1752 25.9786
" />
<path d="M1583.1752 25.9310
L1583.5086 25.9310
" />
<path d="M1583.6514 26.4548
L1583.1752 26.4548
" />
<path d="M1583.1752 26.4548
L1583.1752 25.4548
" />
<path d="M1583.1752 25.4548
L1583.6514 25.4548
" />
<path d="M1584.0800 26.4548
L1584.0800 25.4548
" />
<path d="M1584.0800 25.4548
L1584.4133 26.1691
" />
<path d="M1584.4133 26.1691
L1584.7467 25.4548
" />
<path d="M1584.7467 25.4548
L1584.7467 26.4548
" />
<path d="M1585.2229 26.4548
L1585.2229 25.4548
" />
<path d="M1585.5562 25.4548
L1586.1276 25.4548
" />
<path d="M1585.8419 26.4548
L1585.8419 25.4548
" />
</g><text x="1651.1600" y="26.5000"
textLength="5.7738" font-size="1.3333" lengthAdjust="spacingAndGlyphs"
text-anchor="middle" opacity="0" stroke-opacity="0">RDRV_E</text>
<g class="stroked-text"><desc>RDRV_E</desc>
<path d="M1649.2076 26.4548
L1648.8743 25.9786
" />
<path d="M1648.6362 26.4548
L1648.6362 25.4548
" />
<path d="M1648.6362 25.4548
L1649.0171 25.4548
" />
<path d="M1649.0171 25.4548
L1649.1124 25.5024
" />
<path d="M1649.1124 25.5024
L1649.1600 25.5501
" />
<path d="M1649.1600 25.5501
L1649.2076 25.6453
" />
<path d="M1649.2076 25.6453
L1649.2076 25.7882
" />
<path d="M1649.2076 25.7882
L1649.1600 25.8834
" />
<path d="M1649.1600 25.8834
L1649.1124 25.9310
" />
<path d="M1649.1124 25.9310
L1649.0171 25.9786
" />
<path d="M1649.0171 25.9786
L1648.6362 25.9786
" />
<path d="M1649.6362 26.4548
L1649.6362 25.4548
" />
<path d="M1649.6362 25.4548
L1649.8743 25.4548
" />
<path d="M1649.8743 25.4548
L1650.0171 25.5024
" />
<path d="M1650.0171 25.5024
L1650.1124 25.5977
" />
<path d="M1650.1124 25.5977
L1650.1600 25.6929
" />
<path d="M1650.1600 25.6929
L1650.2076 25.8834
" />
<path d="M1650.2076 25.8834
L1650.2076 26.0262
" />
<path d="M1650.2076 26.0262
L1650.1600 26.2167
" />
<path d="M1650.1600 26.2167
L1650.1124 26.3120
" />
<path d="M1650.1124 26.3120
L1650.0171 26.4072
" />
<path d="M1650.0171 26.4072
L1649.8743 26.4548
" />
<path d="M1649.8743 26.4548
L1649.6362 26.4548
" />
<path d="M1651.2076 26.4548
L1650.8743 25.9786
" />
<path d="M1650.6362 26.4548
L1650.6362 25.4548
" />
<path d="M1650.6362 25.4548
L1651.0171 25.4548
" />
<path d="M1651.0171 25.4548
L1651.1124 25.5024
" />
<path d="M1651.1124 25.5024
L1651.1600 25.5501
" />
<path d="M1651.1600 25.5501
L1651.2076 25.6453
" />
<path d="M1651.2076 25.6453
L1651.2076 25.7882
" />
<path d="M1651.2076 25.7882
L1651.1600 25.8834
" />
<path d="M1651.1600 25.8834
L1651.1124 25.9310
" />
<path d="M1651.1124 25.9310
L1651.0171 25.9786
" />
<path d="M1651.0171 25.9786
L1650.6362 25.9786
" />
<path d="M1651.4933 25.4548
L1651.8267 26.4548
" />
<path d="M1651.8267 26.4548
L1652.1600 25.4548
" />
<path d="M1652.2552 26.5501
L1653.0171 26.5501
" />
<path d="M1653.2552 25.9310
L1653.5886 25.9310
" />
<path d="M1653.7314 26.4548
L1653.2552 26.4548
" />
<path d="M1653.2552 26.4548
L1653.2552 25.4548
" />
<path d="M1653.2552 25.4548
L1653.7314 25.4548
" />
</g><text x="1718.2400" y="26.5000"
textLength="3.9643" font-size="1.3333" lengthAdjust="spacingAndGlyphs"
text-anchor="middle" opacity="0" stroke-opacity="0">JSPK</text>
<g class="stroked-text"><desc>JSPK</desc>
<path d="M1716.9067 25.4548
L1716.9067 26.1691
" />
<path d="M1716.9067 26.1691
L1716.8590 26.3120
" />
<path d="M1716.8590 26.3120
L1716.7638 26.4072
" />
<path d="M1716.7638 26.4072
L1716.6210 26.4548
" />
<path d="M1716.6210 26.4548
L1716.5257 26.4548
" />
<path d="M1717.3352 26.4072
L1717.4781 26.4548
" />
<path d="M1717.4781 26.4548
L1717.7162 26.4548
" />
<path d="M1717.7162 26.4548
L1717.8114 26.4072
" />
<path d="M1717.8114 26.4072
L1717.8590 26.3596
" />
<path d="M1717.8590 26.3596
L1717.9067 26.2643
" />
<path d="M1717.9067 26.2643
L1717.9067 26.1691
" />
<path d="M1717.9067 26.1691
L1717.8590 26.0739
" />
<path d="M1717.8590 26.0739
L1717.8114 26.0262
" />
<path d="M1717.8114 26.0262
L1717.7162 25.9786
" />
<path d="M1717.7162 25.9786
L1717.5257 25.9310
" />
<path d="M1717.5257 25.9310
L1717.4305 25.8834
" />
<path d="M1717.4305 25.8834
L1717.3829 25.8358
" />
<path d="M1717.3829 25.8358
L1717.3352 25.7405
" />
<path d="M1717.3352 25.7405
L1717.3352 25.6453
" />
<path d="M1717.3352 25.6453
L1717.3829 25.5501
" />
<path d="M1717.3829 25.5501
L1717.4305 25.5024
" />
<path d="M1717.4305 25.5024
L1717.5257 25.4548
" />
<path d="M1717.5257 25.4548
L1717.7638 25.4548
" />
<path d="M1717.7638 25.4548
L1717.9067 25.5024
" />
<path d="M1718.3352 26.4548
L1718.3352 25.4548
" />
<path d="M1718.3352 25.4548
L1718.7162 25.4548
" />
<path d="M1718.7162 25.4548
L1718.8114 25.5024
" />
<path d="M1718.8114 25.5024
L1718.8590 25.5501
" />
<path d="M1718.8590 25.5501
L1718.9067 25.6453
" />
<path d="M1718.9067 25.6453
L1718.9067 25.7882
" />
<path d="M1718.9067 25.7882
L1718.8590 25.8834
" />
<path d="M1718.8590 25.8834
L1718.8114 25.9310
" />
<path d="M1718.8114 25.9310
L1718.7162 25.9786
" />
<path d="M1718.7162 25.9786
L1718.3352 25.9786
" />
<path d="M1719.3352 26.4548
L1719.3352 25.4548
" />
<path d="M1719.9067 26.4548
L1719.4781 25.8834
" />
<path d="M1719.9067 25.4548
L1719.3352 26.0262
" />
</g><path style="fill:none; 
stroke:#D0D2CD; stroke-width:0.1000; stroke-opacity:1; 
stroke-linecap:round; stroke-linejoin:round;fill:none"
d="M 0.0000,0.0000
1751.3200,0.0000
1751.3200,295.0000
0.0000,295.0000
Z" /> 
</g>
<g style="fill:#FFFFFF; fill-opacity:1.0000; stroke:none;">
<circle cx="26.0000" cy="44.0000" r="0.2000" /> 
<circle cx="98.1600" cy="44.0000" r="0.2000" /> 
<circle cx="28.5400" cy="51.0000" r="0.2000" /> 
<circle cx="100.7000" cy="51.0000" r="0.2000" /> 
<circle cx="93.0800" cy="58.0000" r="0.2000" /> 
<circle cx="165.2400" cy="58.0000" r="0.2000" /> 
<circle cx="503.1800" cy="58.0000" r="0.2000" /> 
<circle cx="1447.3800" cy="58.0000" r="0.2000" /> 
<circle cx="1517.0000" cy="58.0000" r="0.2000" /> 
<circle cx="95.6200" cy="65.0000" r="0.2000" /> 
<circle cx="167.7800" cy="65.0000" r="0.2000" /> 
<circle cx="234.8600" cy="65.0000" r="0.2000" /> 
<circle cx="301.9400" cy="65.0000" r="0.2000" /> 
<circle cx="706.9600" cy="65.0000" r="0.2000" /> 
<circle cx="774.0400" cy="65.0000" r="0.2000" /> 
<circle cx="841.1200" cy="65.0000" r="0.2000" /> 
<circle cx="975.2800" cy="65.0000" r="0.2000" /> 
<circle cx="1109.4400" cy="65.0000" r="0.2000" /> 
<circle cx="1243.6000" cy="65.0000" r="0.2000" /> 
<circle cx="1586.6200" cy="65.0000" r="0.2000" /> 
<circle cx="1653.7000" cy="65.0000" r="0.2000" /> 
<circle cx="1720.7800" cy="65.0000" r="0.2000" /> 
<circle cx="232.3200" cy="72.0000" r="0.2000" /> 
<circle cx="299.4000" cy="72.0000" r="0.2000" /> 
<circle cx="366.4800" cy="72.0000" r="0.2000" /> 
<circle cx="369.0200" cy="79.0000" r="0.2000" /> 
<circle cx="438.6400" cy="79.0000" r="0.2000" /> 
<circle cx="433.5600" cy="86.0000" r="0.2000" /> 
<circle cx="505.7200" cy="86.0000" r="0.2000" /> 
<circle cx="570.2600" cy="86.0000" r="0.2000" /> 
<circle cx="436.1000" cy="93.0000" r="0.2000" /> 
<circle cx="771.5000" cy="93.0000" r="0.2000" /> 
<circle cx="838.5800" cy="93.0000" r="0.2000" /> 
<circle cx="572.8000" cy="100.0000" r="0.2000" /> 
<circle cx="637.3400" cy="100.0000" r="0.2000" /> 
<circle cx="905.6600" cy="100.0000" r="0.2000" /> 
<circle cx="1039.8200" cy="100.0000" r="0.2000" /> 
<circle cx="639.8800" cy="107.0000" r="0.2000" /> 
<circle cx="704.4200" cy="107.0000" r="0.2000" /> 
<circle cx="908.2000" cy="107.0000" r="0.2000" /> 
<circle cx="972.7400" cy="107.0000" r="0.2000" /> 
<circle cx="1042.3600" cy="107.0000" r="0.2000" /> 
<circle cx="1106.9000" cy="107.0000" r="0.2000" /> 
<circle cx="1173.9800" cy="107.0000" r="0.2000" /> 
<circle cx="1176.5200" cy="114.0000" r="0.2000" /> 
<circle cx="1241.0600" cy="114.0000" r="0.2000" /> 
<circle cx="1310.6800" cy="114.0000" r="0.2000" /> 
<circle cx="1377.7600" cy="114.0000" r="0.2000" /> 
<circle cx="1308.1400" cy="121.0000" r="0.2000" /> 
<circle cx="1313.2200" cy="121.0000" r="0.2000" /> 
<circle cx="1380.3000" cy="128.0000" r="0.2000" /> 
<circle cx="1449.9200" cy="128.0000" r="0.2000" /> 
<circle cx="1514.4600" cy="128.0000" r="0.2000" /> 
<circle cx="1382.8400" cy="135.0000" r="0.2000" /> 
<circle cx="1651.1600" cy="135.0000" r="0.2000" /> 
<circle cx="1519.5400" cy="142.0000" r="0.2000" /> 
<circle cx="1584.0800" cy="142.0000" r="0.2000" /> 
<circle cx="1718.2400" cy="142.0000" r="0.2000" /> 
</g>
<g style="fill:#FFFFFF; fill-opacity:1.0000; stroke:none;">
<circle cx="26.0000" cy="28.0000" r="0.4000" /> 
</g>
<g style="fill:#FFFFFF; fill-opacity:1.0000; stroke:none;">
<circle cx="28.5400" cy="28.0000" r="0.4000" /> 
</g>
<g style="fill:#FFFFFF; fill-opacity:1.0000; stroke:none;">
<circle cx="93.0800" cy="28.0000" r="0.4000" /> 
</g>
<g style="fill:#FFFFFF; fill-opacity:1.0000; stroke:none;">
<circle cx="95.6200" cy="28.0000" r="0.4000" /> 
</g>
<g style="fill:#FFFFFF; fill-opacity:1.0000; stroke:none;">
<circle cx="98.1600" cy="28.0000" r="0.4000" /> 
</g>
<g style="fill:#FFFFFF; fill-opacity:1.0000; stroke:none;">
<circle cx="100.7000" cy="28.0000" r="0.4000" /> 
</g>
<g style="fill:#FFFFFF; fill-opacity:1.0000; stroke:none;">
<circle cx="165.2400" cy="28.0000" r="0.4000" /> 
</g>
<g style="fill:#FFFFFF; fill-opacity:1.0000; stroke:none;">
<circle cx="167.7800" cy="28.0000" r="0.4000" /> 
</g>
<g style="fill:#FFFFFF; fill-opacity:1.0000; stroke:none;">
<circle cx="232.3200" cy="28.0000" r="0.4000" /> 
</g>
<g style="fill:#FFFFFF; fill-opacity:1.0000; stroke:none;">
<circle cx="234.8600" cy="28.0000" r="0.4000" /> 
</g>
<g style="fill:#FFFFFF; fill-opacity:1.0000; stroke:none;">
<circle cx="299.4000" cy="28.0000" r="0.4000" /> 
</g>
<g style="fill:#FFFFFF; fill-opacity:1.0000; stroke:none;">
<circle cx="301.9400" cy="28.0000" r="0.4000" /> 
</g>
<g style="fill:#FFFFFF; fill-opacity:1.0000; stroke:none;">
<circle cx="366.4800" cy="28.0000" r="0.4000" /> 
</g>
<g style="fill:#FFFFFF; fill-opacity:1.0000; stroke:none;">
<circle cx="369.0200" cy="28.0000" r="0.4000" /> 
</g>
<g style="fill:#FFFFFF; fill-opacity:1.0000; stroke:none;">
<circle cx="433.5600" cy="28.0000" r="0.4000" /> 
</g>
<g style="fill:#FFFFFF; fill-opacity:1.0000; stroke:none;">
<circle cx="436.1000" cy="28.0000" r="0.4000" /> 
</g>
<g style="fill:#FFFFFF; fill-opacity:1.0000; stroke:none;">
<circle cx="438.6400" cy="28.0000" r="0.4000" /> 
</g>
<g style="fill:#FFFFFF; fill-opacity:1.0000; stroke:none;">
<circle cx="503.1800" cy="28.0000" r="0.4000" /> 
</g>
<g style="fill:#FFFFFF; fill-opacity:1.0000; stroke:none;">
<circle cx="505.7200" cy="28.0000" r="0.4000" /> 
</g>
<g style="fill:#FFFFFF; fill-opacity:1.0000; stroke:none;">
<circle cx="570.2600" cy="28.0000" r="0.4000" /> 
</g>
<g style="fill:#FFFFFF; fill-opacity:1.0000; stroke:none;">
<circle cx="572.8000" cy="28.0000" r="0.4000" /> 
</g>
<g style="fill:#FFFFFF; fill-opacity:1.0000; stroke:none;">
<circle cx="637.3400" cy="28.0000" r="0.4000" /> 
</g>
<g style="fill:#FFFFFF; fill-opacity:1.0000; stroke:none;">
<circle cx="639.8800" cy="28.0000" r="0.4000" /> 
</g>
<g style="fill:#FFFFFF; fill-opacity:1.0000; stroke:none;">
<circle cx="704.4200" cy="28.0000" r="0.4000" /> 
</g>
<g style="fill:#FFFFFF; fill-opacity:1.0000; stroke:none;">
<circle cx="706.9600" cy="28.0000" r="0.4000" /> 
</g>
<g style="fill:#FFFFFF; fill-opacity:1.0000; stroke:none;">
<circle cx="771.5000" cy="28.0000" r="0.4000" /> 
</g>
<g style="fill:#FFFFFF; fill-opacity:1.0000; stroke:none;">
<circle cx="774.0400" cy="28.0000" r="0.4000" /> 
</g>
<g style="fill:#FFFFFF; fill-opacity:1.0000; stroke:none;">
<circle cx="838.5800" cy="28.0000" r="0.4000" /> 
</g>
<g style="fill:#FFFFFF; fill-opacity:1.0000; stroke:none;">
<circle cx="841.1200" cy="28.0000" r="0.4000" /> 
</g>
<g style="fill:#FFFFFF; fill-opacity:1.0000; stroke:none;">
<circle cx="905.6600" cy="28.0000" r="0.4000" /> 
</g>
<g style="fill:#FFFFFF; fill-opacity:1.0000; stroke:none;">
<circle cx="908.2000" cy="28.0000" r="0.4000" /> 
</g>
<g style="fill:#FFFFFF; fill-opacity:1.0000; stroke:none;">
<circle cx="972.7400" cy="28.0000" r="0.4000" /> 
</g>
<g style="fill:#FFFFFF; fill-opacity:1.0000; stroke:none;">
<circle cx="975.2800" cy="28.0000" r="0.4000" /> 
</g>
<g style="fill:#FFFFFF; fill-opacity:1.0000; stroke:none;">
<circle cx="1039.8200" cy="28.0000" r="0.4000" /> 
</g>
<g style="fill:#FFFFFF; fill-opacity:1.0000; stroke:none;">
<circle cx="1042.3600" cy="28.0000" r="0.4000" /> 
</g>
<g style="fill:#FFFFFF; fill-opacity:1.0000; stroke:none;">
<circle cx="1106.9000" cy="28.0000" r="0.4000" /> 
</g>
<g style="fill:#FFFFFF; fill-opacity:1.0000; stroke:none;">
<circle cx="1109.4400" cy="28.0000" r="0.4000" /> 
</g>
<g style="fill:#FFFFFF; fill-opacity:1.0000; stroke:none;">
<circle cx="1173.9800" cy="28.0000" r="0.4000" /> 
</g>
<g style="fill:#FFFFFF; fill-opacity:1.0000; stroke:none;">
<circle cx="1176.5200" cy="28.0000" r="0.4000" /> 
</g>
<g style="fill:#FFFFFF; fill-opacity:1.0000; stroke:none;">
<circle cx="1241.0600" cy="28.0000" r="0.4000" /> 
</g>
<g style="fill:#FFFFFF; fill-opacity:1.0000; stroke:none;">
<circle cx="1243.6000" cy="28.0000" r="0.4000" /> 
</g>
<g style="fill:#FFFFFF; fill-opacity:1.0000; stroke:none;">
<circle cx="1308.1400" cy="28.0000" r="0.4000" /> 
</g>
<g style="fill:#FFFFFF; fill-opacity:1.0000; stroke:none;">
<circle cx="1310.6800" cy="28.0000" r="0.4000" /> 
</g>
<g style="fill:#FFFFFF; fill-opacity:1.0000; stroke:none;">
<circle cx="1313.2200" cy="28.0000" r="0.4000" /> 
</g>
<g style="fill:#FFFFFF; fill-opacity:1.0000; stroke:none;">
<circle cx="1377.7600" cy="28.0000" r="0.4000" /> 
</g>
<g style="fill:#FFFFFF; fill-opacity:1.0000; stroke:none;">
<circle cx="1380.3000" cy="28.0000" r="0.4000" /> 
</g>
<g style="fill:#FFFFFF; fill-opacity:1.0000; stroke:none;">
<circle cx="1382.8400" cy="28.0000" r="0.4000" /> 
</g>
<g style="fill:#FFFFFF; fill-opacity:1.0000; stroke:none;">
<circle cx="1447.3800" cy="28.0000" r="0.4000" /> 
</g>
<g style="fill:#FFFFFF; fill-opacity:1.0000; stroke:none;">
<circle cx="1449.9200" cy="28.0000" r="0.4000" /> 
</g>
<g style="fill:#FFFFFF; fill-opacity:1.0000; stroke:none;">
<circle cx="1514.4600" cy="28.0000" r="0.4000" /> 
</g>
<g style="fill:#FFFFFF; fill-opacity:1.0000; stroke:none;">
<circle cx="1517.0000" cy="28.0000" r="0.4000" /> 
</g>
<g style="fill:#FFFFFF; fill-opacity:1.0000; stroke:none;">
<circle cx="1519.5400" cy="28.0000" r="0.4000" /> 
</g>
<g style="fill:#FFFFFF; fill-opacity:1.0000; stroke:none;">
<circle cx="1584.0800" cy="28.0000" r="0.4000" /> 
</g>
<g style="fill:#FFFFFF; fill-opacity:1.0000; stroke:none;">
<circle cx="1586.6200" cy="28.0000" r="0.4000" /> 
</g>
<g style="fill:#FFFFFF; fill-opacity:1.0000; stroke:none;">
<circle cx="1651.1600" cy="28.0000" r="0.4000" /> 
</g>
<g style="fill:#FFFFFF; fill-opacity:1.0000; stroke:none;">
<circle cx="1653.7000" cy="28.0000" r="0.4000" /> 
</g>
<g style="fill:#FFFFFF; fill-opacity:1.0000; stroke:none;">
<circle cx="1718.2400" cy="28.0000" r="0.4000" /> 
</g>
<g style="fill:#FFFFFF; fill-opacity:1.0000; stroke:none;">
<circle cx="1720.7800" cy="28.0000" r="0.4000" /> 
</g> 
</svg>
